<svg version="1.1" xmlns="http://www.w3.org/2000/svg" xmlns:xlink="http://www.w3.org/1999/xlink" width="785.7275390625" height="44"><defs/><g><text fill="#eeeeee" stroke="none" font-family="Arial" font-size="24px" font-style="normal" font-weight="normal" text-decoration="none" x="0" y="0">UNREGISTERED</text><text fill="#eeeeee" stroke="none" font-family="Arial" font-size="24px" font-style="normal" font-weight="normal" text-decoration="none" x="0" y="30">UNREGISTERED</text><text fill="#eeeeee" stroke="none" font-family="Arial" font-size="24px" font-style="normal" font-weight="normal" text-decoration="none" x="200" y="0">UNREGISTERED</text><text fill="#eeeeee" stroke="none" font-family="Arial" font-size="24px" font-style="normal" font-weight="normal" text-decoration="none" x="200" y="30">UNREGISTERED</text><text fill="#eeeeee" stroke="none" font-family="Arial" font-size="24px" font-style="normal" font-weight="normal" text-decoration="none" x="400" y="0">UNREGISTERED</text><text fill="#eeeeee" stroke="none" font-family="Arial" font-size="24px" font-style="normal" font-weight="normal" text-decoration="none" x="400" y="30">UNREGISTERED</text><text fill="#eeeeee" stroke="none" font-family="Arial" font-size="24px" font-style="normal" font-weight="normal" text-decoration="none" x="600" y="0">UNREGISTERED</text><text fill="#eeeeee" stroke="none" font-family="Arial" font-size="24px" font-style="normal" font-weight="normal" text-decoration="none" x="600" y="30">UNREGISTERED</text><g transform="translate(-10,-10) scale(1,1)"><path fill="#C0C0C0" stroke="none" d="M 27 39 C 27 32.3725824 43.889443809374995 27 64.7236328125 27 C 85.557821815625 27 102.447265625 32.3725824 102.447265625 39 C 102.447265625 45.6274176 85.557821815625 51 64.7236328125 51 C 43.889443809374995 51 27 45.6274176 27 39 Z" opacity="0.2"/></g><g transform="translate(-10,-10) scale(1,1)"><path fill="#ffffff" stroke="none" d="M 20 32 C 20 25.3725824 36.889443809374995 20 57.7236328125 20 C 78.557821815625 20 95.447265625 25.3725824 95.447265625 32 C 95.447265625 38.6274176 78.557821815625 44 57.7236328125 44 C 36.889443809374995 44 20 38.6274176 20 32 Z"/></g><g transform="translate(-10,-10) scale(1,1)"><path fill="none" stroke="#000000" d="M 20 32 C 20 25.3725824 36.889443809374995 20 57.7236328125 20 C 78.557821815625 20 95.447265625 25.3725824 95.447265625 32 C 95.447265625 38.6274176 78.557821815625 44 57.7236328125 44 C 36.889443809374995 44 20 38.6274176 20 32 Z" stroke-miterlimit="10" stroke-dasharray="5"/></g><g transform="translate(-10,-10) scale(1,1)"><g><path fill="none" stroke="none"/><text fill="#000000" stroke="none" font-family="Arial" font-size="13px" font-style="normal" font-weight="bold" text-decoration="none" x="26.65185546875" y="39.5">AutoNavAI</text></g></g><g transform="translate(-10,-10) scale(1,1)"><path fill="#C0C0C0" stroke="none" d="M 133.447265625 39 C 133.447265625 32.3725824 157.2909419671875 27 186.70361328125 27 C 216.1162845953125 27 239.9599609375 32.3725824 239.9599609375 39 C 239.9599609375 45.6274176 216.1162845953125 51 186.70361328125 51 C 157.2909419671875 51 133.447265625 45.6274176 133.447265625 39 Z" opacity="0.2"/></g><g transform="translate(-10,-10) scale(1,1)"><path fill="#ffffff" stroke="none" d="M 126.447265625 32 C 126.447265625 25.3725824 150.2909419671875 20 179.70361328125 20 C 209.1162845953125 20 232.9599609375 25.3725824 232.9599609375 32 C 232.9599609375 38.6274176 209.1162845953125 44 179.70361328125 44 C 150.2909419671875 44 126.447265625 38.6274176 126.447265625 32 Z"/></g><g transform="translate(-10,-10) scale(1,1)"><path fill="none" stroke="#000000" d="M 126.447265625 32 C 126.447265625 25.3725824 150.2909419671875 20 179.70361328125 20 C 209.1162845953125 20 232.9599609375 25.3725824 232.9599609375 32 C 232.9599609375 38.6274176 209.1162845953125 44 179.70361328125 44 C 150.2909419671875 44 126.447265625 38.6274176 126.447265625 32 Z" stroke-miterlimit="10" stroke-dasharray="5"/></g><g transform="translate(-10,-10) scale(1,1)"><g><path fill="none" stroke="none"/><text fill="#000000" stroke="none" font-family="Arial" font-size="13px" font-style="normal" font-weight="bold" text-decoration="none" x="134.06396484375" y="39.5">TrainAutoNavAI</text></g></g><g transform="translate(-10,-10) scale(1,1)"><path fill="#C0C0C0" stroke="none" d="M 270.9599609375 39 C 270.9599609375 32.3725824 307.4715945804687 27 352.510986328125 27 C 397.5503780757813 27 434.06201171875 32.3725824 434.06201171875 39 C 434.06201171875 45.6274176 397.5503780757813 51 352.510986328125 51 C 307.4715945804687 51 270.9599609375 45.6274176 270.9599609375 39 Z" opacity="0.2"/></g><g transform="translate(-10,-10) scale(1,1)"><path fill="#ffffff" stroke="none" d="M 263.9599609375 32 C 263.9599609375 25.3725824 300.4715945804687 20 345.510986328125 20 C 390.5503780757813 20 427.06201171875 25.3725824 427.06201171875 32 C 427.06201171875 38.6274176 390.5503780757813 44 345.510986328125 44 C 300.4715945804687 44 263.9599609375 38.6274176 263.9599609375 32 Z"/></g><g transform="translate(-10,-10) scale(1,1)"><path fill="none" stroke="#000000" d="M 263.9599609375 32 C 263.9599609375 25.3725824 300.4715945804687 20 345.510986328125 20 C 390.5503780757813 20 427.06201171875 25.3725824 427.06201171875 32 C 427.06201171875 38.6274176 390.5503780757813 44 345.510986328125 44 C 300.4715945804687 44 263.9599609375 38.6274176 263.9599609375 32 Z" stroke-miterlimit="10" stroke-dasharray="5"/></g><g transform="translate(-10,-10) scale(1,1)"><g><path fill="none" stroke="none"/><text fill="#000000" stroke="none" font-family="Arial" font-size="13px" font-style="normal" font-weight="bold" text-decoration="none" x="274.093505859375" y="39.5">ACATsentencePrediction</text></g></g><g transform="translate(-10,-10) scale(1,1)"><path fill="#C0C0C0" stroke="none" d="M 465.06201171875 39 C 465.06201171875 32.3725824 486.22005269375 27 512.31982421875 27 C 538.41959574375 27 559.57763671875 32.3725824 559.57763671875 39 C 559.57763671875 45.6274176 538.41959574375 51 512.31982421875 51 C 486.22005269375 51 465.06201171875 45.6274176 465.06201171875 39 Z" opacity="0.2"/></g><g transform="translate(-10,-10) scale(1,1)"><path fill="#ffffff" stroke="none" d="M 458.06201171875 32 C 458.06201171875 25.3725824 479.22005269375 20 505.31982421875 20 C 531.41959574375 20 552.57763671875 25.3725824 552.57763671875 32 C 552.57763671875 38.6274176 531.41959574375 44 505.31982421875 44 C 479.22005269375 44 458.06201171875 38.6274176 458.06201171875 32 Z"/></g><g transform="translate(-10,-10) scale(1,1)"><path fill="none" stroke="#000000" d="M 458.06201171875 32 C 458.06201171875 25.3725824 479.22005269375 20 505.31982421875 20 C 531.41959574375 20 552.57763671875 25.3725824 552.57763671875 32 C 552.57763671875 38.6274176 531.41959574375 44 505.31982421875 44 C 479.22005269375 44 458.06201171875 38.6274176 458.06201171875 32 Z" stroke-miterlimit="10" stroke-dasharray="5"/></g><g transform="translate(-10,-10) scale(1,1)"><g><path fill="none" stroke="none"/><text fill="#000000" stroke="none" font-family="Arial" font-size="13px" font-style="normal" font-weight="bold" text-decoration="none" x="464.970947265625" y="39.5">AvatarSpeaks</text></g></g><g transform="translate(-10,-10) scale(1,1)"><path fill="#C0C0C0" stroke="none" d="M 590.57763671875 39 C 590.57763671875 32.3725824 604.7260272882812 27 622.178955078125 27 C 639.6318828679688 27 653.7802734375 32.3725824 653.7802734375 39 C 653.7802734375 45.6274176 639.6318828679688 51 622.178955078125 51 C 604.7260272882812 51 590.57763671875 45.6274176 590.57763671875 39 Z" opacity="0.2"/></g><g transform="translate(-10,-10) scale(1,1)"><path fill="#ffffff" stroke="none" d="M 583.57763671875 32 C 583.57763671875 25.3725824 597.7260272882812 20 615.178955078125 20 C 632.6318828679688 20 646.7802734375 25.3725824 646.7802734375 32 C 646.7802734375 38.6274176 632.6318828679688 44 615.178955078125 44 C 597.7260272882812 44 583.57763671875 38.6274176 583.57763671875 32 Z"/></g><g transform="translate(-10,-10) scale(1,1)"><path fill="none" stroke="#000000" d="M 583.57763671875 32 C 583.57763671875 25.3725824 597.7260272882812 20 615.178955078125 20 C 632.6318828679688 20 646.7802734375 25.3725824 646.7802734375 32 C 646.7802734375 38.6274176 632.6318828679688 44 615.178955078125 44 C 597.7260272882812 44 583.57763671875 38.6274176 583.57763671875 32 Z" stroke-miterlimit="10" stroke-dasharray="5"/></g><g transform="translate(-10,-10) scale(1,1)"><g><path fill="none" stroke="none"/><text fill="#000000" stroke="none" font-family="Arial" font-size="13px" font-style="normal" font-weight="bold" text-decoration="none" x="588.442626953125" y="39.5">EyeGaze</text></g></g><g transform="translate(-10,-10) scale(1,1)"><path fill="#C0C0C0" stroke="none" d="M 684.7802734375 39 C 684.7802734375 32.3725824 708.945089246875 27 738.75390625 27 C 768.562723253125 27 792.7275390625 32.3725824 792.7275390625 39 C 792.7275390625 45.6274176 768.562723253125 51 738.75390625 51 C 708.945089246875 51 684.7802734375 45.6274176 684.7802734375 39 Z" opacity="0.2"/></g><g transform="translate(-10,-10) scale(1,1)"><path fill="#ffffff" stroke="none" d="M 677.7802734375 32 C 677.7802734375 25.3725824 701.945089246875 20 731.75390625 20 C 761.562723253125 20 785.7275390625 25.3725824 785.7275390625 32 C 785.7275390625 38.6274176 761.562723253125 44 731.75390625 44 C 701.945089246875 44 677.7802734375 38.6274176 677.7802734375 32 Z"/></g><g transform="translate(-10,-10) scale(1,1)"><path fill="none" stroke="#000000" d="M 677.7802734375 32 C 677.7802734375 25.3725824 701.945089246875 20 731.75390625 20 C 761.562723253125 20 785.7275390625 25.3725824 785.7275390625 32 C 785.7275390625 38.6274176 761.562723253125 44 731.75390625 44 C 701.945089246875 44 677.7802734375 38.6274176 677.7802734375 32 Z" stroke-miterlimit="10" stroke-dasharray="5"/></g><g transform="translate(-10,-10) scale(1,1)"><g><path fill="none" stroke="none"/><text fill="#000000" stroke="none" font-family="Arial" font-size="13px" font-style="normal" font-weight="bold" text-decoration="none" x="685.857177734375" y="39.5">EdgeIntegration</text></g></g></g></svg>