<svg version="1.1" xmlns="http://www.w3.org/2000/svg" xmlns:xlink="http://www.w3.org/1999/xlink" width="120.00634765625" height="44"><defs/><g><text fill="#eeeeee" stroke="none" font-family="Arial" font-size="24px" font-style="normal" font-weight="normal" text-decoration="none" x="0" y="0">UNREGISTERED</text><text fill="#eeeeee" stroke="none" font-family="Arial" font-size="24px" font-style="normal" font-weight="normal" text-decoration="none" x="0" y="30">UNREGISTERED</text><g transform="translate(-64,-33) scale(1,1)"><path fill="#C0C0C0" stroke="none" d="M 81 62 C 81 55.3725824 103.38718097109376 50 131.003173828125 50 C 158.61916668515624 50 181.00634765625 55.3725824 181.00634765625 62 C 181.00634765625 68.6274176 158.61916668515624 74 131.003173828125 74 C 103.38718097109376 74 81 68.6274176 81 62 Z" opacity="0.2"/></g><g transform="translate(-64,-33) scale(1,1)"><path fill="#ffffff" stroke="none" d="M 74 55 C 74 48.3725824 96.38718097109376 43 124.003173828125 43 C 151.61916668515624 43 174.00634765625 48.3725824 174.00634765625 55 C 174.00634765625 61.6274176 151.61916668515624 67 124.003173828125 67 C 96.38718097109376 67 74 61.6274176 74 55 Z"/></g><g transform="translate(-64,-33) scale(1,1)"><path fill="none" stroke="#000000" d="M 74 55 C 74 48.3725824 96.38718097109376 43 124.003173828125 43 C 151.61916668515624 43 174.00634765625 48.3725824 174.00634765625 55 C 174.00634765625 61.6274176 151.61916668515624 67 124.003173828125 67 C 96.38718097109376 67 74 61.6274176 74 55 Z" stroke-miterlimit="10" stroke-dasharray="5"/></g><g transform="translate(-64,-33) scale(1,1)"><g><path fill="none" stroke="none"/><text fill="#000000" stroke="none" font-family="Arial" font-size="13px" font-style="normal" font-weight="bold" text-decoration="none" x="82.08642578125" y="62.5">Collaboration1</text></g></g></g></svg>