<svg version="1.1" xmlns="http://www.w3.org/2000/svg" xmlns:xlink="http://www.w3.org/1999/xlink" width="545" height="264"><defs/><g><text fill="#eeeeee" stroke="none" font-family="Arial" font-size="24px" font-style="normal" font-weight="normal" text-decoration="none" x="0" y="0">UNREGISTERED</text><text fill="#eeeeee" stroke="none" font-family="Arial" font-size="24px" font-style="normal" font-weight="normal" text-decoration="none" x="0" y="30">UNREGISTERED</text><text fill="#eeeeee" stroke="none" font-family="Arial" font-size="24px" font-style="normal" font-weight="normal" text-decoration="none" x="0" y="60">UNREGISTERED</text><text fill="#eeeeee" stroke="none" font-family="Arial" font-size="24px" font-style="normal" font-weight="normal" text-decoration="none" x="0" y="90">UNREGISTERED</text><text fill="#eeeeee" stroke="none" font-family="Arial" font-size="24px" font-style="normal" font-weight="normal" text-decoration="none" x="0" y="120">UNREGISTERED</text><text fill="#eeeeee" stroke="none" font-family="Arial" font-size="24px" font-style="normal" font-weight="normal" text-decoration="none" x="0" y="150">UNREGISTERED</text><text fill="#eeeeee" stroke="none" font-family="Arial" font-size="24px" font-style="normal" font-weight="normal" text-decoration="none" x="0" y="180">UNREGISTERED</text><text fill="#eeeeee" stroke="none" font-family="Arial" font-size="24px" font-style="normal" font-weight="normal" text-decoration="none" x="0" y="210">UNREGISTERED</text><text fill="#eeeeee" stroke="none" font-family="Arial" font-size="24px" font-style="normal" font-weight="normal" text-decoration="none" x="0" y="240">UNREGISTERED</text><text fill="#eeeeee" stroke="none" font-family="Arial" font-size="24px" font-style="normal" font-weight="normal" text-decoration="none" x="200" y="0">UNREGISTERED</text><text fill="#eeeeee" stroke="none" font-family="Arial" font-size="24px" font-style="normal" font-weight="normal" text-decoration="none" x="200" y="30">UNREGISTERED</text><text fill="#eeeeee" stroke="none" font-family="Arial" font-size="24px" font-style="normal" font-weight="normal" text-decoration="none" x="200" y="60">UNREGISTERED</text><text fill="#eeeeee" stroke="none" font-family="Arial" font-size="24px" font-style="normal" font-weight="normal" text-decoration="none" x="200" y="90">UNREGISTERED</text><text fill="#eeeeee" stroke="none" font-family="Arial" font-size="24px" font-style="normal" font-weight="normal" text-decoration="none" x="200" y="120">UNREGISTERED</text><text fill="#eeeeee" stroke="none" font-family="Arial" font-size="24px" font-style="normal" font-weight="normal" text-decoration="none" x="200" y="150">UNREGISTERED</text><text fill="#eeeeee" stroke="none" font-family="Arial" font-size="24px" font-style="normal" font-weight="normal" text-decoration="none" x="200" y="180">UNREGISTERED</text><text fill="#eeeeee" stroke="none" font-family="Arial" font-size="24px" font-style="normal" font-weight="normal" text-decoration="none" x="200" y="210">UNREGISTERED</text><text fill="#eeeeee" stroke="none" font-family="Arial" font-size="24px" font-style="normal" font-weight="normal" text-decoration="none" x="200" y="240">UNREGISTERED</text><text fill="#eeeeee" stroke="none" font-family="Arial" font-size="24px" font-style="normal" font-weight="normal" text-decoration="none" x="400" y="0">UNREGISTERED</text><text fill="#eeeeee" stroke="none" font-family="Arial" font-size="24px" font-style="normal" font-weight="normal" text-decoration="none" x="400" y="30">UNREGISTERED</text><text fill="#eeeeee" stroke="none" font-family="Arial" font-size="24px" font-style="normal" font-weight="normal" text-decoration="none" x="400" y="60">UNREGISTERED</text><text fill="#eeeeee" stroke="none" font-family="Arial" font-size="24px" font-style="normal" font-weight="normal" text-decoration="none" x="400" y="90">UNREGISTERED</text><text fill="#eeeeee" stroke="none" font-family="Arial" font-size="24px" font-style="normal" font-weight="normal" text-decoration="none" x="400" y="120">UNREGISTERED</text><text fill="#eeeeee" stroke="none" font-family="Arial" font-size="24px" font-style="normal" font-weight="normal" text-decoration="none" x="400" y="150">UNREGISTERED</text><text fill="#eeeeee" stroke="none" font-family="Arial" font-size="24px" font-style="normal" font-weight="normal" text-decoration="none" x="400" y="180">UNREGISTERED</text><text fill="#eeeeee" stroke="none" font-family="Arial" font-size="24px" font-style="normal" font-weight="normal" text-decoration="none" x="400" y="210">UNREGISTERED</text><text fill="#eeeeee" stroke="none" font-family="Arial" font-size="24px" font-style="normal" font-weight="normal" text-decoration="none" x="400" y="240">UNREGISTERED</text><g transform="translate(-10,-10) scale(1,1)"><path fill="#C0C0C0" stroke="none" d="M 210.7626953125 204 C 210.7626953125 197.3725824 227.652139121875 192 248.486328125 192 C 269.320517128125 192 286.2099609375 197.3725824 286.2099609375 204 C 286.2099609375 210.6274176 269.320517128125 216 248.486328125 216 C 227.652139121875 216 210.7626953125 210.6274176 210.7626953125 204 Z" opacity="0.2"/></g><g transform="translate(-10,-10) scale(1,1)"><path fill="#ffffff" stroke="none" d="M 203.7626953125 197 C 203.7626953125 190.3725824 220.652139121875 185 241.486328125 185 C 262.320517128125 185 279.2099609375 190.3725824 279.2099609375 197 C 279.2099609375 203.6274176 262.320517128125 209 241.486328125 209 C 220.652139121875 209 203.7626953125 203.6274176 203.7626953125 197 Z"/></g><g transform="translate(-10,-10) scale(1,1)"><path fill="none" stroke="#000000" d="M 203.7626953125 197 C 203.7626953125 190.3725824 220.652139121875 185 241.486328125 185 C 262.320517128125 185 279.2099609375 190.3725824 279.2099609375 197 C 279.2099609375 203.6274176 262.320517128125 209 241.486328125 209 C 220.652139121875 209 203.7626953125 203.6274176 203.7626953125 197 Z" stroke-miterlimit="10" stroke-dasharray="5"/></g><g transform="translate(-10,-10) scale(1,1)"><g><path fill="none" stroke="none"/><text fill="#000000" stroke="none" font-family="Arial" font-size="13px" font-style="normal" font-weight="bold" text-decoration="none" x="210.41455078125" y="204.5">AutoNavAI</text></g></g><g transform="translate(-10,-10) scale(1,1)"><path fill="#C0C0C0" stroke="none" d="M 27 149 C 27 142.3725824 50.8436763421875 137 80.25634765625 137 C 109.6690189703125 137 133.5126953125 142.3725824 133.5126953125 149 C 133.5126953125 155.6274176 109.6690189703125 161 80.25634765625 161 C 50.8436763421875 161 27 155.6274176 27 149 Z" opacity="0.2"/></g><g transform="translate(-10,-10) scale(1,1)"><path fill="#ffffff" stroke="none" d="M 20 142 C 20 135.3725824 43.8436763421875 130 73.25634765625 130 C 102.6690189703125 130 126.5126953125 135.3725824 126.5126953125 142 C 126.5126953125 148.6274176 102.6690189703125 154 73.25634765625 154 C 43.8436763421875 154 20 148.6274176 20 142 Z"/></g><g transform="translate(-10,-10) scale(1,1)"><path fill="none" stroke="#000000" d="M 20 142 C 20 135.3725824 43.8436763421875 130 73.25634765625 130 C 102.6690189703125 130 126.5126953125 135.3725824 126.5126953125 142 C 126.5126953125 148.6274176 102.6690189703125 154 73.25634765625 154 C 43.8436763421875 154 20 148.6274176 20 142 Z" stroke-miterlimit="10" stroke-dasharray="5"/></g><g transform="translate(-10,-10) scale(1,1)"><g><path fill="none" stroke="none"/><text fill="#000000" stroke="none" font-family="Arial" font-size="13px" font-style="normal" font-weight="bold" text-decoration="none" x="27.61669921875" y="149.5">TrainAutoNavAI</text></g></g><g transform="translate(-10,-10) scale(1,1)"><path fill="#C0C0C0" stroke="none" d="M 356.5462646484375 204 C 356.5462646484375 197.3725824 393.0578982914062 192 438.0972900390625 192 C 483.1366817867188 192 519.6483154296875 197.3725824 519.6483154296875 204 C 519.6483154296875 210.6274176 483.1366817867188 216 438.0972900390625 216 C 393.0578982914062 216 356.5462646484375 210.6274176 356.5462646484375 204 Z" opacity="0.2"/></g><g transform="translate(-10,-10) scale(1,1)"><path fill="#ffffff" stroke="none" d="M 349.5462646484375 197 C 349.5462646484375 190.3725824 386.0578982914062 185 431.0972900390625 185 C 476.1366817867188 185 512.6483154296875 190.3725824 512.6483154296875 197 C 512.6483154296875 203.6274176 476.1366817867188 209 431.0972900390625 209 C 386.0578982914062 209 349.5462646484375 203.6274176 349.5462646484375 197 Z"/></g><g transform="translate(-10,-10) scale(1,1)"><path fill="none" stroke="#000000" d="M 349.5462646484375 197 C 349.5462646484375 190.3725824 386.0578982914062 185 431.0972900390625 185 C 476.1366817867188 185 512.6483154296875 190.3725824 512.6483154296875 197 C 512.6483154296875 203.6274176 476.1366817867188 209 431.0972900390625 209 C 386.0578982914062 209 349.5462646484375 203.6274176 349.5462646484375 197 Z" stroke-miterlimit="10" stroke-dasharray="5"/></g><g transform="translate(-10,-10) scale(1,1)"><g><path fill="none" stroke="none"/><text fill="#000000" stroke="none" font-family="Arial" font-size="13px" font-style="normal" font-weight="bold" text-decoration="none" x="359.6798095703125" y="204.5">ACATsentencePrediction</text></g></g><g transform="translate(-10,-10) scale(1,1)"><path fill="#C0C0C0" stroke="none" d="M 446.864990234375 259 C 446.864990234375 252.3725824 468.023031209375 247 494.122802734375 247 C 520.222574259375 247 541.380615234375 252.3725824 541.380615234375 259 C 541.380615234375 265.6274176 520.222574259375 271 494.122802734375 271 C 468.023031209375 271 446.864990234375 265.6274176 446.864990234375 259 Z" opacity="0.2"/></g><g transform="translate(-10,-10) scale(1,1)"><path fill="#ffffff" stroke="none" d="M 439.864990234375 252 C 439.864990234375 245.3725824 461.023031209375 240 487.122802734375 240 C 513.222574259375 240 534.380615234375 245.3725824 534.380615234375 252 C 534.380615234375 258.6274176 513.222574259375 264 487.122802734375 264 C 461.023031209375 264 439.864990234375 258.6274176 439.864990234375 252 Z"/></g><g transform="translate(-10,-10) scale(1,1)"><path fill="none" stroke="#000000" d="M 439.864990234375 252 C 439.864990234375 245.3725824 461.023031209375 240 487.122802734375 240 C 513.222574259375 240 534.380615234375 245.3725824 534.380615234375 252 C 534.380615234375 258.6274176 513.222574259375 264 487.122802734375 264 C 461.023031209375 264 439.864990234375 258.6274176 439.864990234375 252 Z" stroke-miterlimit="10" stroke-dasharray="5"/></g><g transform="translate(-10,-10) scale(1,1)"><g><path fill="none" stroke="none"/><text fill="#000000" stroke="none" font-family="Arial" font-size="13px" font-style="normal" font-weight="bold" text-decoration="none" x="446.77392578125" y="259.5">AvatarSpeaks</text></g></g><g transform="translate(-10,-10) scale(1,1)"><path fill="#C0C0C0" stroke="none" d="M 259.121826171875 149 C 259.121826171875 142.3725824 273.2702167414063 137 290.72314453125 137 C 308.1760723210937 137 322.324462890625 142.3725824 322.324462890625 149 C 322.324462890625 155.6274176 308.1760723210937 161 290.72314453125 161 C 273.2702167414063 161 259.121826171875 155.6274176 259.121826171875 149 Z" opacity="0.2"/></g><g transform="translate(-10,-10) scale(1,1)"><path fill="#ffffff" stroke="none" d="M 252.121826171875 142 C 252.121826171875 135.3725824 266.2702167414063 130 283.72314453125 130 C 301.1760723210937 130 315.324462890625 135.3725824 315.324462890625 142 C 315.324462890625 148.6274176 301.1760723210937 154 283.72314453125 154 C 266.2702167414063 154 252.121826171875 148.6274176 252.121826171875 142 Z"/></g><g transform="translate(-10,-10) scale(1,1)"><path fill="none" stroke="#000000" d="M 252.121826171875 142 C 252.121826171875 135.3725824 266.2702167414063 130 283.72314453125 130 C 301.1760723210937 130 315.324462890625 135.3725824 315.324462890625 142 C 315.324462890625 148.6274176 301.1760723210937 154 283.72314453125 154 C 266.2702167414063 154 252.121826171875 148.6274176 252.121826171875 142 Z" stroke-miterlimit="10" stroke-dasharray="5"/></g><g transform="translate(-10,-10) scale(1,1)"><g><path fill="none" stroke="none"/><text fill="#000000" stroke="none" font-family="Arial" font-size="13px" font-style="normal" font-weight="bold" text-decoration="none" x="256.98681640625" y="149.5">EyeGaze</text></g></g><g transform="translate(-10,-10) scale(1,1)"><path fill="#C0C0C0" stroke="none" d="M 194.5126953125 94 C 194.5126953125 87.3725824 218.677511121875 82 248.486328125 82 C 278.295145128125 82 302.4599609375 87.3725824 302.4599609375 94 C 302.4599609375 100.6274176 278.295145128125 106 248.486328125 106 C 218.677511121875 106 194.5126953125 100.6274176 194.5126953125 94 Z" opacity="0.2"/></g><g transform="translate(-10,-10) scale(1,1)"><path fill="#ffffff" stroke="none" d="M 187.5126953125 87 C 187.5126953125 80.3725824 211.677511121875 75 241.486328125 75 C 271.295145128125 75 295.4599609375 80.3725824 295.4599609375 87 C 295.4599609375 93.6274176 271.295145128125 99 241.486328125 99 C 211.677511121875 99 187.5126953125 93.6274176 187.5126953125 87 Z"/></g><g transform="translate(-10,-10) scale(1,1)"><path fill="none" stroke="#000000" d="M 187.5126953125 87 C 187.5126953125 80.3725824 211.677511121875 75 241.486328125 75 C 271.295145128125 75 295.4599609375 80.3725824 295.4599609375 87 C 295.4599609375 93.6274176 271.295145128125 99 241.486328125 99 C 211.677511121875 99 187.5126953125 93.6274176 187.5126953125 87 Z" stroke-miterlimit="10" stroke-dasharray="5"/></g><g transform="translate(-10,-10) scale(1,1)"><g><path fill="none" stroke="none"/><text fill="#000000" stroke="none" font-family="Arial" font-size="13px" font-style="normal" font-weight="bold" text-decoration="none" x="195.589599609375" y="94.5">EdgeIntegration</text></g></g><g transform="translate(-10,-10) scale(1,1)"><path fill="#C0C0C0" stroke="none" d="M 218.3306884765625 39 C 218.3306884765625 32.3725824 236.8400393328125 27 259.6724853515625 27 C 282.5049313703125 27 301.0142822265625 32.3725824 301.0142822265625 39 C 301.0142822265625 45.6274176 282.5049313703125 51 259.6724853515625 51 C 236.8400393328125 51 218.3306884765625 45.6274176 218.3306884765625 39 Z" opacity="0.2"/></g><g transform="translate(-10,-10) scale(1,1)"><path fill="#ffffff" stroke="none" d="M 211.3306884765625 32 C 211.3306884765625 25.3725824 229.8400393328125 20 252.6724853515625 20 C 275.5049313703125 20 294.0142822265625 25.3725824 294.0142822265625 32 C 294.0142822265625 38.6274176 275.5049313703125 44 252.6724853515625 44 C 229.8400393328125 44 211.3306884765625 38.6274176 211.3306884765625 32 Z"/></g><g transform="translate(-10,-10) scale(1,1)"><path fill="none" stroke="#000000" d="M 211.3306884765625 32 C 211.3306884765625 25.3725824 229.8400393328125 20 252.6724853515625 20 C 275.5049313703125 20 294.0142822265625 25.3725824 294.0142822265625 32 C 294.0142822265625 38.6274176 275.5049313703125 44 252.6724853515625 44 C 229.8400393328125 44 211.3306884765625 38.6274176 211.3306884765625 32 Z" stroke-miterlimit="10" stroke-dasharray="5"/></g><g transform="translate(-10,-10) scale(1,1)"><g><path fill="none" stroke="none"/><text fill="#000000" stroke="none" font-family="Arial" font-size="13px" font-style="normal" font-weight="bold" text-decoration="none" x="218.3507080078125" y="39.5">Compliance</text></g></g><g transform="translate(-10,-10) scale(1,1)"><path fill="none" stroke="#000000" d="M 418 184 Q 403 170 316 150" stroke-miterlimit="10" stroke-dasharray="3"/></g><g transform="translate(-10,-10) scale(1,1)"><path fill="none" stroke="#000000" d="M 326.8474419434143 148.17434853154924 L 316 150 L 324.96123029014035 156.37936922329092" stroke-miterlimit="10"/></g><g transform="translate(-10,-10) scale(1,1)"><path fill="none" stroke="#000000" d="M 461 239 Q 432 225 431 210" stroke-miterlimit="10" stroke-dasharray="3"/></g><g transform="translate(-10,-10) scale(1,1)"><path fill="none" stroke="#000000" d="M 435.8762054144906 219.86015318114747 L 431 210 L 427.4758167371174 220.42017909297235" stroke-miterlimit="10"/></g><g transform="translate(-10,-10) scale(1,1)"><path fill="none" stroke="#000000" d="M 263 129 Q 242 115 241 100" stroke-miterlimit="10" stroke-dasharray="3"/></g><g transform="translate(-10,-10) scale(1,1)"><path fill="none" stroke="#000000" d="M 245.8762054144906 109.86015318114747 L 241 100 L 237.47581673711738 110.42017909297235" stroke-miterlimit="10"/></g><g transform="translate(-10,-10) scale(1,1)"><path fill="none" stroke="#000000" d="M 203 191 Q 74 170 73 155" stroke-miterlimit="10" stroke-dasharray="3"/></g><g transform="translate(-10,-10) scale(1,1)"><path fill="none" stroke="#000000" d="M 77.8762054144906 164.86015318114747 L 73 155 L 69.47581673711738 165.42017909297235" stroke-miterlimit="10"/></g><g transform="translate(-10,-10) scale(1,1)"><path fill="none" stroke="#000000" d="M 241 74 Q 242 60 247 45" stroke-miterlimit="10" stroke-dasharray="3"/></g><g transform="translate(-10,-10) scale(1,1)"><path fill="none" stroke="#000000" d="M 247.77977922099748 55.972326296939066 L 247 45 L 239.79278084503858 53.30999350495277" stroke-miterlimit="10"/></g><g transform="translate(-10,-10) scale(1,1)"><path fill="none" stroke="#000000" d="M 304 129 Q 326 115 326 101.5 Q 326 88 326 74 Q 326 60 286 45" stroke-miterlimit="10" stroke-dasharray="3"/></g><g transform="translate(-10,-10) scale(1,1)"><path fill="none" stroke="#000000" d="M 296.9936693532606 44.626859073300075 L 286 45 L 294.03754862942105 52.50984767020555" stroke-miterlimit="10"/></g><g transform="translate(-10,-10) scale(1,1)"><path fill="none" stroke="#000000" d="M 451 184 Q 473 170 473 156.5 Q 473 143 473 129 Q 473 115 473 101.5 Q 473 88 473 74 Q 473 60 295 37" stroke-miterlimit="10" stroke-dasharray="3"/></g><g transform="translate(-10,-10) scale(1,1)"><path fill="none" stroke="#000000" d="M 305.61832580530023 34.12751725984381 L 295 37 L 304.53944220618166 42.47713815737014" stroke-miterlimit="10"/></g><g transform="translate(-10,-10) scale(1,1)"><path fill="none" stroke="#000000" d="M 514 239 Q 544 225 544 211.5 Q 544 198 544 184 Q 544 170 544 156.5 Q 544 143 544 129 Q 544 115 544 101.5 Q 544 88 544 74 Q 544 60 295 36" stroke-miterlimit="10" stroke-dasharray="3"/></g><g transform="translate(-10,-10) scale(1,1)"><path fill="none" stroke="#000000" d="M 305.5196597470125 32.78491698286275 L 295 36 L 304.7119297463832 41.16511573939226" stroke-miterlimit="10"/></g><g transform="translate(-10,-10) scale(1,1)"><path fill="none" stroke="#000000" d="M 73 129 Q 74 115 74 101.5 Q 74 88 74 74 Q 74 60 210 39" stroke-miterlimit="10" stroke-dasharray="3"/></g><g transform="translate(-10,-10) scale(1,1)"><path fill="none" stroke="#000000" d="M 200.59874106781336 44.711070870684516 L 210 39 L 199.31396911686227 36.39064299785822" stroke-miterlimit="10"/></g><g transform="translate(-10,-10) scale(1,1)"><path fill="none" stroke="#000000" d="M 203 185 Q 158 170 158 156.5 Q 158 143 158 129 Q 158 115 158 101.5 Q 158 88 158 74 Q 158 60 210 44" stroke-miterlimit="10" stroke-dasharray="3"/></g><g transform="translate(-10,-10) scale(1,1)"><path fill="none" stroke="#000000" d="M 201.5246883010911 51.012067570006565 L 210 44 L 199.0487690961419 42.96533015392175" stroke-miterlimit="10"/></g><g transform="translate(-10,-10) scale(1,1)"><path fill="none" stroke="#000000" d="M 262 184 Q 284 170 283 155" stroke-miterlimit="10" stroke-dasharray="3"/></g><g transform="translate(-10,-10) scale(1,1)"><path fill="none" stroke="#000000" d="M 287.8762054144906 164.86015318114747 L 283 155 L 279.4758167371174 165.42017909297235" stroke-miterlimit="10"/></g><g transform="translate(-10,-10) scale(1,1)"><path fill="none" stroke="#000000" d="M 241 197 Q 280 189 326.5 179.5 Q 373 170 373 156.5 Q 373 143 373 129 Q 373 115 296 99" stroke-miterlimit="10" stroke-dasharray="3"/></g><g transform="translate(-10,-10) scale(1,1)"><path fill="none" stroke="#000000" d="M 306.8065448943958 96.94607998076663 L 296 99 L 305.09372194963885 105.18904040240942" stroke-miterlimit="10"/></g></g></svg>