<svg version="1.1" xmlns="http://www.w3.org/2000/svg" xmlns:xlink="http://www.w3.org/1999/xlink" width="530.11181640625" height="374.5"><defs/><g><text fill="#eeeeee" stroke="none" font-family="Arial" font-size="24px" font-style="normal" font-weight="normal" text-decoration="none" x="0" y="0">UNREGISTERED</text><text fill="#eeeeee" stroke="none" font-family="Arial" font-size="24px" font-style="normal" font-weight="normal" text-decoration="none" x="0" y="30">UNREGISTERED</text><text fill="#eeeeee" stroke="none" font-family="Arial" font-size="24px" font-style="normal" font-weight="normal" text-decoration="none" x="0" y="60">UNREGISTERED</text><text fill="#eeeeee" stroke="none" font-family="Arial" font-size="24px" font-style="normal" font-weight="normal" text-decoration="none" x="0" y="90">UNREGISTERED</text><text fill="#eeeeee" stroke="none" font-family="Arial" font-size="24px" font-style="normal" font-weight="normal" text-decoration="none" x="0" y="120">UNREGISTERED</text><text fill="#eeeeee" stroke="none" font-family="Arial" font-size="24px" font-style="normal" font-weight="normal" text-decoration="none" x="0" y="150">UNREGISTERED</text><text fill="#eeeeee" stroke="none" font-family="Arial" font-size="24px" font-style="normal" font-weight="normal" text-decoration="none" x="0" y="180">UNREGISTERED</text><text fill="#eeeeee" stroke="none" font-family="Arial" font-size="24px" font-style="normal" font-weight="normal" text-decoration="none" x="0" y="210">UNREGISTERED</text><text fill="#eeeeee" stroke="none" font-family="Arial" font-size="24px" font-style="normal" font-weight="normal" text-decoration="none" x="0" y="240">UNREGISTERED</text><text fill="#eeeeee" stroke="none" font-family="Arial" font-size="24px" font-style="normal" font-weight="normal" text-decoration="none" x="0" y="270">UNREGISTERED</text><text fill="#eeeeee" stroke="none" font-family="Arial" font-size="24px" font-style="normal" font-weight="normal" text-decoration="none" x="0" y="300">UNREGISTERED</text><text fill="#eeeeee" stroke="none" font-family="Arial" font-size="24px" font-style="normal" font-weight="normal" text-decoration="none" x="0" y="330">UNREGISTERED</text><text fill="#eeeeee" stroke="none" font-family="Arial" font-size="24px" font-style="normal" font-weight="normal" text-decoration="none" x="0" y="360">UNREGISTERED</text><text fill="#eeeeee" stroke="none" font-family="Arial" font-size="24px" font-style="normal" font-weight="normal" text-decoration="none" x="200" y="0">UNREGISTERED</text><text fill="#eeeeee" stroke="none" font-family="Arial" font-size="24px" font-style="normal" font-weight="normal" text-decoration="none" x="200" y="30">UNREGISTERED</text><text fill="#eeeeee" stroke="none" font-family="Arial" font-size="24px" font-style="normal" font-weight="normal" text-decoration="none" x="200" y="60">UNREGISTERED</text><text fill="#eeeeee" stroke="none" font-family="Arial" font-size="24px" font-style="normal" font-weight="normal" text-decoration="none" x="200" y="90">UNREGISTERED</text><text fill="#eeeeee" stroke="none" font-family="Arial" font-size="24px" font-style="normal" font-weight="normal" text-decoration="none" x="200" y="120">UNREGISTERED</text><text fill="#eeeeee" stroke="none" font-family="Arial" font-size="24px" font-style="normal" font-weight="normal" text-decoration="none" x="200" y="150">UNREGISTERED</text><text fill="#eeeeee" stroke="none" font-family="Arial" font-size="24px" font-style="normal" font-weight="normal" text-decoration="none" x="200" y="180">UNREGISTERED</text><text fill="#eeeeee" stroke="none" font-family="Arial" font-size="24px" font-style="normal" font-weight="normal" text-decoration="none" x="200" y="210">UNREGISTERED</text><text fill="#eeeeee" stroke="none" font-family="Arial" font-size="24px" font-style="normal" font-weight="normal" text-decoration="none" x="200" y="240">UNREGISTERED</text><text fill="#eeeeee" stroke="none" font-family="Arial" font-size="24px" font-style="normal" font-weight="normal" text-decoration="none" x="200" y="270">UNREGISTERED</text><text fill="#eeeeee" stroke="none" font-family="Arial" font-size="24px" font-style="normal" font-weight="normal" text-decoration="none" x="200" y="300">UNREGISTERED</text><text fill="#eeeeee" stroke="none" font-family="Arial" font-size="24px" font-style="normal" font-weight="normal" text-decoration="none" x="200" y="330">UNREGISTERED</text><text fill="#eeeeee" stroke="none" font-family="Arial" font-size="24px" font-style="normal" font-weight="normal" text-decoration="none" x="200" y="360">UNREGISTERED</text><text fill="#eeeeee" stroke="none" font-family="Arial" font-size="24px" font-style="normal" font-weight="normal" text-decoration="none" x="400" y="0">UNREGISTERED</text><text fill="#eeeeee" stroke="none" font-family="Arial" font-size="24px" font-style="normal" font-weight="normal" text-decoration="none" x="400" y="30">UNREGISTERED</text><text fill="#eeeeee" stroke="none" font-family="Arial" font-size="24px" font-style="normal" font-weight="normal" text-decoration="none" x="400" y="60">UNREGISTERED</text><text fill="#eeeeee" stroke="none" font-family="Arial" font-size="24px" font-style="normal" font-weight="normal" text-decoration="none" x="400" y="90">UNREGISTERED</text><text fill="#eeeeee" stroke="none" font-family="Arial" font-size="24px" font-style="normal" font-weight="normal" text-decoration="none" x="400" y="120">UNREGISTERED</text><text fill="#eeeeee" stroke="none" font-family="Arial" font-size="24px" font-style="normal" font-weight="normal" text-decoration="none" x="400" y="150">UNREGISTERED</text><text fill="#eeeeee" stroke="none" font-family="Arial" font-size="24px" font-style="normal" font-weight="normal" text-decoration="none" x="400" y="180">UNREGISTERED</text><text fill="#eeeeee" stroke="none" font-family="Arial" font-size="24px" font-style="normal" font-weight="normal" text-decoration="none" x="400" y="210">UNREGISTERED</text><text fill="#eeeeee" stroke="none" font-family="Arial" font-size="24px" font-style="normal" font-weight="normal" text-decoration="none" x="400" y="240">UNREGISTERED</text><text fill="#eeeeee" stroke="none" font-family="Arial" font-size="24px" font-style="normal" font-weight="normal" text-decoration="none" x="400" y="270">UNREGISTERED</text><text fill="#eeeeee" stroke="none" font-family="Arial" font-size="24px" font-style="normal" font-weight="normal" text-decoration="none" x="400" y="300">UNREGISTERED</text><text fill="#eeeeee" stroke="none" font-family="Arial" font-size="24px" font-style="normal" font-weight="normal" text-decoration="none" x="400" y="330">UNREGISTERED</text><text fill="#eeeeee" stroke="none" font-family="Arial" font-size="24px" font-style="normal" font-weight="normal" text-decoration="none" x="400" y="360">UNREGISTERED</text><g transform="translate(-474,-378) scale(1,1)"><path fill="#C0C0C0" stroke="none" d="M 844.11181640625 538.75 C 844.11181640625 523.562168 879.25745960625 511.25 922.61181640625 511.25 C 965.96617320625 511.25 1001.11181640625 523.562168 1001.11181640625 538.75 C 1001.11181640625 553.937832 965.96617320625 566.25 922.61181640625 566.25 C 879.25745960625 566.25 844.11181640625 553.937832 844.11181640625 538.75 Z" opacity="0.2"/></g><g transform="translate(-474,-378) scale(1,1)"><path fill="#ffffff" stroke="none" d="M 837.11181640625 531.75 C 837.11181640625 516.562168 872.25745960625 504.25 915.61181640625 504.25 C 958.96617320625 504.25 994.11181640625 516.562168 994.11181640625 531.75 C 994.11181640625 546.937832 958.96617320625 559.25 915.61181640625 559.25 C 872.25745960625 559.25 837.11181640625 546.937832 837.11181640625 531.75 Z"/></g><g transform="translate(-474,-378) scale(1,1)"><path fill="none" stroke="#000000" d="M 837.11181640625 531.75 C 837.11181640625 516.562168 872.25745960625 504.25 915.61181640625 504.25 C 958.96617320625 504.25 994.11181640625 516.562168 994.11181640625 531.75 C 994.11181640625 546.937832 958.96617320625 559.25 915.61181640625 559.25 C 872.25745960625 559.25 837.11181640625 546.937832 837.11181640625 531.75 Z" stroke-miterlimit="10"/></g><g transform="translate(-474,-378) scale(1,1)"><g><path fill="none" stroke="none"/><text fill="#000000" stroke="none" font-family="Arial" font-size="13px" font-style="normal" font-weight="bold" text-decoration="none" x="881.2900390625" y="531.25">Compliance</text></g></g><g transform="translate(-474,-378) scale(1,1)"><g><path fill="none" stroke="none"/><text fill="#000000" stroke="none" font-family="Arial" font-size="13px" font-style="normal" font-weight="normal" text-decoration="none" x="864.687744140625" y="546.25">(from Use Cases)</text></g></g><g transform="translate(-474,-378) scale(1,1)"><path fill="#C0C0C0" stroke="none" d="M 606.11181640625 587.25 C 606.11181640625 572.062168 652.45033960625 559.75 709.61181640625 559.75 C 766.77329320625 559.75 813.11181640625 572.062168 813.11181640625 587.25 C 813.11181640625 602.437832 766.77329320625 614.75 709.61181640625 614.75 C 652.45033960625 614.75 606.11181640625 602.437832 606.11181640625 587.25 Z" opacity="0.2"/></g><g transform="translate(-474,-378) scale(1,1)"><path fill="#ffffff" stroke="none" d="M 599.11181640625 580.25 C 599.11181640625 565.062168 645.45033960625 552.75 702.61181640625 552.75 C 759.77329320625 552.75 806.11181640625 565.062168 806.11181640625 580.25 C 806.11181640625 595.437832 759.77329320625 607.75 702.61181640625 607.75 C 645.45033960625 607.75 599.11181640625 595.437832 599.11181640625 580.25 Z"/></g><g transform="translate(-474,-378) scale(1,1)"><path fill="none" stroke="#000000" d="M 599.11181640625 580.25 C 599.11181640625 565.062168 645.45033960625 552.75 702.61181640625 552.75 C 759.77329320625 552.75 806.11181640625 565.062168 806.11181640625 580.25 C 806.11181640625 595.437832 759.77329320625 607.75 702.61181640625 607.75 C 645.45033960625 607.75 599.11181640625 595.437832 599.11181640625 580.25 Z" stroke-miterlimit="10"/></g><g transform="translate(-474,-378) scale(1,1)"><g><path fill="none" stroke="none"/><text fill="#000000" stroke="none" font-family="Arial" font-size="13px" font-style="normal" font-weight="bold" text-decoration="none" x="643.353271484375" y="579.75">License Applications</text></g></g><g transform="translate(-474,-378) scale(1,1)"><g><path fill="none" stroke="none"/><text fill="#000000" stroke="none" font-family="Arial" font-size="13px" font-style="normal" font-weight="normal" text-decoration="none" x="651.687744140625" y="594.75">(from Use Cases)</text></g></g><g transform="translate(-474,-378) scale(1,1)"><path fill="#ffffff" stroke="none" d="M 693.9325436789773 412.68 C 693.9325436789773 407.886167936 697.8183860039227 404 702.61181640625 404 C 707.4052468085773 404 711.2910891335227 407.886167936 711.2910891335227 412.68 C 711.2910891335227 417.473832064 707.4052468085773 421.36 702.61181640625 421.36 C 697.8183860039227 421.36 693.9325436789773 417.473832064 693.9325436789773 412.68 Z"/></g><g transform="translate(-474,-378) scale(1,1)"><path fill="none" stroke="#000000" d="M 693.9325436789773 412.68 C 693.9325436789773 407.886167936 697.8183860039227 404 702.61181640625 404 C 707.4052468085773 404 711.2910891335227 407.886167936 711.2910891335227 412.68 C 711.2910891335227 417.473832064 707.4052468085773 421.36 702.61181640625 421.36 C 697.8183860039227 421.36 693.9325436789773 417.473832064 693.9325436789773 412.68 Z" stroke-miterlimit="10"/></g><g transform="translate(-474,-378) scale(1,1)"><path fill="none" stroke="#000000" d="M 702.61181640625 421.36 L 702.61181640625 438.64" stroke-miterlimit="10"/></g><g transform="translate(-474,-378) scale(1,1)"><path fill="none" stroke="#000000" d="M 693.4219982244318 427.84 L 711.8016345880682 427.84" stroke-miterlimit="10"/></g><g transform="translate(-474,-378) scale(1,1)"><path fill="none" stroke="#000000" d="M 702.61181640625 438.64 L 689.8481800426136 456" stroke-miterlimit="10"/></g><g transform="translate(-474,-378) scale(1,1)"><path fill="none" stroke="#000000" d="M 702.61181640625 438.64 L 715.3754527698864 456" stroke-miterlimit="10"/></g><g transform="translate(-474,-378) scale(1,1)"><g><path fill="none" stroke="none"/><text fill="#000000" stroke="none" font-family="Arial" font-size="13px" font-style="normal" font-weight="bold" text-decoration="none" x="667.20458984375" y="476.5">Collaborator</text></g></g><g transform="translate(-474,-378) scale(1,1)"><g><path fill="none" stroke="none"/><text fill="#000000" stroke="none" font-family="Arial" font-size="13px" font-style="normal" font-weight="normal" text-decoration="none" x="665.055908203125" y="491.5">(from Actors)</text></g></g><g transform="translate(-474,-378) scale(1,1)"><path fill="#ffffff" stroke="none" d="M 522.0929440696023 658.1800000000001 C 522.0929440696023 653.3861679360001 525.9787863945477 649.5 530.772216796875 649.5 C 535.5656471992023 649.5 539.4514895241477 653.3861679360001 539.4514895241477 658.1800000000001 C 539.4514895241477 662.973832064 535.5656471992023 666.86 530.772216796875 666.86 C 525.9787863945477 666.86 522.0929440696023 662.973832064 522.0929440696023 658.1800000000001 Z"/></g><g transform="translate(-474,-378) scale(1,1)"><path fill="none" stroke="#000000" d="M 522.0929440696023 658.1800000000001 C 522.0929440696023 653.3861679360001 525.9787863945477 649.5 530.772216796875 649.5 C 535.5656471992023 649.5 539.4514895241477 653.3861679360001 539.4514895241477 658.1800000000001 C 539.4514895241477 662.973832064 535.5656471992023 666.86 530.772216796875 666.86 C 525.9787863945477 666.86 522.0929440696023 662.973832064 522.0929440696023 658.1800000000001 Z" stroke-miterlimit="10"/></g><g transform="translate(-474,-378) scale(1,1)"><path fill="none" stroke="#000000" d="M 530.772216796875 666.86 L 530.772216796875 684.14" stroke-miterlimit="10"/></g><g transform="translate(-474,-378) scale(1,1)"><path fill="none" stroke="#000000" d="M 521.5823986150568 673.34 L 539.9620349786932 673.34" stroke-miterlimit="10"/></g><g transform="translate(-474,-378) scale(1,1)"><path fill="none" stroke="#000000" d="M 530.772216796875 684.14 L 518.0085804332386 701.5" stroke-miterlimit="10"/></g><g transform="translate(-474,-378) scale(1,1)"><path fill="none" stroke="#000000" d="M 530.772216796875 684.14 L 543.5358531605114 701.5" stroke-miterlimit="10"/></g><g transform="translate(-474,-378) scale(1,1)"><g><path fill="none" stroke="none"/><text fill="#000000" stroke="none" font-family="Arial" font-size="13px" font-style="normal" font-weight="bold" text-decoration="none" x="491.404052734375" y="722">Micro Service</text></g></g><g transform="translate(-474,-378) scale(1,1)"><g><path fill="none" stroke="none"/><text fill="#000000" stroke="none" font-family="Arial" font-size="13px" font-style="normal" font-weight="normal" text-decoration="none" x="493.21630859375" y="737">(from Actors)</text></g></g><g transform="translate(-474,-378) scale(1,1)"><path fill="none" stroke="#000000" d="M 747 451 Q 747 451 784.5 451 Q 822 451 883 503" stroke-miterlimit="10"/></g><g transform="translate(-474,-378) scale(1,1)"><path fill="none" stroke="#000000" d="M 579 661 Q 584 657 643.5 657 Q 703 657 762.5 657 Q 822 657 893 560" stroke-miterlimit="10"/></g><g transform="translate(-474,-378) scale(1,1)"><path fill="none" stroke="#000000" d="M 579 705 Q 584 706 675 609" stroke-miterlimit="10"/></g><g transform="translate(-474,-378) scale(1,1)"><path fill="#ffffff" stroke="none" d="M 517.3766354758523 397.68 C 517.3766354758523 392.886167936 521.2624778007977 389 526.055908203125 389 C 530.8493386054523 389 534.7351809303977 392.886167936 534.7351809303977 397.68 C 534.7351809303977 402.473832064 530.8493386054523 406.36 526.055908203125 406.36 C 521.2624778007977 406.36 517.3766354758523 402.473832064 517.3766354758523 397.68 Z"/></g><g transform="translate(-474,-378) scale(1,1)"><path fill="none" stroke="#000000" d="M 517.3766354758523 397.68 C 517.3766354758523 392.886167936 521.2624778007977 389 526.055908203125 389 C 530.8493386054523 389 534.7351809303977 392.886167936 534.7351809303977 397.68 C 534.7351809303977 402.473832064 530.8493386054523 406.36 526.055908203125 406.36 C 521.2624778007977 406.36 517.3766354758523 402.473832064 517.3766354758523 397.68 Z" stroke-miterlimit="10"/></g><g transform="translate(-474,-378) scale(1,1)"><path fill="none" stroke="#000000" d="M 526.055908203125 406.36 L 526.055908203125 423.64" stroke-miterlimit="10"/></g><g transform="translate(-474,-378) scale(1,1)"><path fill="none" stroke="#000000" d="M 516.8660900213068 412.84 L 535.2457263849432 412.84" stroke-miterlimit="10"/></g><g transform="translate(-474,-378) scale(1,1)"><path fill="none" stroke="#000000" d="M 526.055908203125 423.64 L 513.2922718394886 441" stroke-miterlimit="10"/></g><g transform="translate(-474,-378) scale(1,1)"><path fill="none" stroke="#000000" d="M 526.055908203125 423.64 L 538.8195445667614 441" stroke-miterlimit="10"/></g><g transform="translate(-474,-378) scale(1,1)"><g><path fill="none" stroke="none"/><text fill="#000000" stroke="none" font-family="Arial" font-size="13px" font-style="normal" font-weight="bold" text-decoration="none" x="506.905029296875" y="461.5">Patron</text></g></g><g transform="translate(-474,-378) scale(1,1)"><g><path fill="none" stroke="none"/><text fill="#000000" stroke="none" font-family="Arial" font-size="13px" font-style="normal" font-weight="normal" text-decoration="none" x="488.5" y="476.5">(from Actors)</text></g></g><g transform="translate(-474,-378) scale(1,1)"><path fill="none" stroke="#000000" d="M 526 435 Q 569 424 576.5 422.5 Q 584 421 658 439" stroke-miterlimit="10"/></g><g transform="translate(-474,-378) scale(1,1)"><path fill="#FFFFFF" stroke="none" d="M 636.2606638205887 442.3765755549873 L 658 439 L 640.2403684969239 426.0155674411644"/></g><g transform="translate(-474,-378) scale(1,1)"><path fill="none" stroke="#000000" d="M 636.2606638205887 442.3765755549873 L 658 439 L 640.2403684969239 426.0155674411644 L 636.2606638205887 442.3765755549873" stroke-miterlimit="10"/></g><g transform="translate(-474,-378) scale(1,1)"><path fill="#ffffff" stroke="none" d="M 517.3766354758523 533.1800000000001 C 517.3766354758523 528.3861679360001 521.2624778007977 524.5 526.055908203125 524.5 C 530.8493386054523 524.5 534.7351809303977 528.3861679360001 534.7351809303977 533.1800000000001 C 534.7351809303977 537.973832064 530.8493386054523 541.86 526.055908203125 541.86 C 521.2624778007977 541.86 517.3766354758523 537.973832064 517.3766354758523 533.1800000000001 Z"/></g><g transform="translate(-474,-378) scale(1,1)"><path fill="none" stroke="#000000" d="M 517.3766354758523 533.1800000000001 C 517.3766354758523 528.3861679360001 521.2624778007977 524.5 526.055908203125 524.5 C 530.8493386054523 524.5 534.7351809303977 528.3861679360001 534.7351809303977 533.1800000000001 C 534.7351809303977 537.973832064 530.8493386054523 541.86 526.055908203125 541.86 C 521.2624778007977 541.86 517.3766354758523 537.973832064 517.3766354758523 533.1800000000001 Z" stroke-miterlimit="10"/></g><g transform="translate(-474,-378) scale(1,1)"><path fill="none" stroke="#000000" d="M 526.055908203125 541.86 L 526.055908203125 559.14" stroke-miterlimit="10"/></g><g transform="translate(-474,-378) scale(1,1)"><path fill="none" stroke="#000000" d="M 516.8660900213068 548.34 L 535.2457263849432 548.34" stroke-miterlimit="10"/></g><g transform="translate(-474,-378) scale(1,1)"><path fill="none" stroke="#000000" d="M 526.055908203125 559.14 L 513.2922718394886 576.5" stroke-miterlimit="10"/></g><g transform="translate(-474,-378) scale(1,1)"><path fill="none" stroke="#000000" d="M 526.055908203125 559.14 L 538.8195445667614 576.5" stroke-miterlimit="10"/></g><g transform="translate(-474,-378) scale(1,1)"><g><path fill="none" stroke="none"/><text fill="#000000" stroke="none" font-family="Arial" font-size="13px" font-style="normal" font-weight="bold" text-decoration="none" x="502.207763671875" y="597">Supplier</text></g></g><g transform="translate(-474,-378) scale(1,1)"><g><path fill="none" stroke="none"/><text fill="#000000" stroke="none" font-family="Arial" font-size="13px" font-style="normal" font-weight="normal" text-decoration="none" x="488.5" y="612">(from Actors)</text></g></g><g transform="translate(-474,-378) scale(1,1)"><path fill="none" stroke="#000000" d="M 526 570 Q 569 528 576.5 520.5 Q 584 513 658 473" stroke-miterlimit="10"/></g><g transform="translate(-474,-378) scale(1,1)"><path fill="#FFFFFF" stroke="none" d="M 644.1230522636824 490.07133039699926 L 658 473 L 636.1162626658843 475.2587696410728"/></g><g transform="translate(-474,-378) scale(1,1)"><path fill="none" stroke="#000000" d="M 644.1230522636824 490.07133039699926 L 658 473 L 636.1162626658843 475.2587696410728 L 644.1230522636824 490.07133039699926" stroke-miterlimit="10"/></g><g transform="translate(-474,-378) scale(1,1)"><path fill="none" stroke="#000000" d="M 526 570 Q 569 592 576.5 595.5 Q 584 599 598 597" stroke-miterlimit="10"/></g><g transform="translate(-474,-378) scale(1,1)"><path fill="none" stroke="#000000" d="M 526 435 Q 569 471 576.5 477 Q 584 483 668 552" stroke-miterlimit="10"/></g></g></svg>