<svg version="1.1" xmlns="http://www.w3.org/2000/svg" xmlns:xlink="http://www.w3.org/1999/xlink" width="964" height="780"><defs/><g><text fill="#eeeeee" stroke="none" font-family="Arial" font-size="24px" font-style="normal" font-weight="normal" text-decoration="none" x="0" y="0">UNREGISTERED</text><text fill="#eeeeee" stroke="none" font-family="Arial" font-size="24px" font-style="normal" font-weight="normal" text-decoration="none" x="0" y="30">UNREGISTERED</text><text fill="#eeeeee" stroke="none" font-family="Arial" font-size="24px" font-style="normal" font-weight="normal" text-decoration="none" x="0" y="60">UNREGISTERED</text><text fill="#eeeeee" stroke="none" font-family="Arial" font-size="24px" font-style="normal" font-weight="normal" text-decoration="none" x="0" y="90">UNREGISTERED</text><text fill="#eeeeee" stroke="none" font-family="Arial" font-size="24px" font-style="normal" font-weight="normal" text-decoration="none" x="0" y="120">UNREGISTERED</text><text fill="#eeeeee" stroke="none" font-family="Arial" font-size="24px" font-style="normal" font-weight="normal" text-decoration="none" x="0" y="150">UNREGISTERED</text><text fill="#eeeeee" stroke="none" font-family="Arial" font-size="24px" font-style="normal" font-weight="normal" text-decoration="none" x="0" y="180">UNREGISTERED</text><text fill="#eeeeee" stroke="none" font-family="Arial" font-size="24px" font-style="normal" font-weight="normal" text-decoration="none" x="0" y="210">UNREGISTERED</text><text fill="#eeeeee" stroke="none" font-family="Arial" font-size="24px" font-style="normal" font-weight="normal" text-decoration="none" x="0" y="240">UNREGISTERED</text><text fill="#eeeeee" stroke="none" font-family="Arial" font-size="24px" font-style="normal" font-weight="normal" text-decoration="none" x="0" y="270">UNREGISTERED</text><text fill="#eeeeee" stroke="none" font-family="Arial" font-size="24px" font-style="normal" font-weight="normal" text-decoration="none" x="0" y="300">UNREGISTERED</text><text fill="#eeeeee" stroke="none" font-family="Arial" font-size="24px" font-style="normal" font-weight="normal" text-decoration="none" x="0" y="330">UNREGISTERED</text><text fill="#eeeeee" stroke="none" font-family="Arial" font-size="24px" font-style="normal" font-weight="normal" text-decoration="none" x="0" y="360">UNREGISTERED</text><text fill="#eeeeee" stroke="none" font-family="Arial" font-size="24px" font-style="normal" font-weight="normal" text-decoration="none" x="0" y="390">UNREGISTERED</text><text fill="#eeeeee" stroke="none" font-family="Arial" font-size="24px" font-style="normal" font-weight="normal" text-decoration="none" x="0" y="420">UNREGISTERED</text><text fill="#eeeeee" stroke="none" font-family="Arial" font-size="24px" font-style="normal" font-weight="normal" text-decoration="none" x="0" y="450">UNREGISTERED</text><text fill="#eeeeee" stroke="none" font-family="Arial" font-size="24px" font-style="normal" font-weight="normal" text-decoration="none" x="0" y="480">UNREGISTERED</text><text fill="#eeeeee" stroke="none" font-family="Arial" font-size="24px" font-style="normal" font-weight="normal" text-decoration="none" x="0" y="510">UNREGISTERED</text><text fill="#eeeeee" stroke="none" font-family="Arial" font-size="24px" font-style="normal" font-weight="normal" text-decoration="none" x="0" y="540">UNREGISTERED</text><text fill="#eeeeee" stroke="none" font-family="Arial" font-size="24px" font-style="normal" font-weight="normal" text-decoration="none" x="0" y="570">UNREGISTERED</text><text fill="#eeeeee" stroke="none" font-family="Arial" font-size="24px" font-style="normal" font-weight="normal" text-decoration="none" x="0" y="600">UNREGISTERED</text><text fill="#eeeeee" stroke="none" font-family="Arial" font-size="24px" font-style="normal" font-weight="normal" text-decoration="none" x="0" y="630">UNREGISTERED</text><text fill="#eeeeee" stroke="none" font-family="Arial" font-size="24px" font-style="normal" font-weight="normal" text-decoration="none" x="0" y="660">UNREGISTERED</text><text fill="#eeeeee" stroke="none" font-family="Arial" font-size="24px" font-style="normal" font-weight="normal" text-decoration="none" x="0" y="690">UNREGISTERED</text><text fill="#eeeeee" stroke="none" font-family="Arial" font-size="24px" font-style="normal" font-weight="normal" text-decoration="none" x="0" y="720">UNREGISTERED</text><text fill="#eeeeee" stroke="none" font-family="Arial" font-size="24px" font-style="normal" font-weight="normal" text-decoration="none" x="0" y="750">UNREGISTERED</text><text fill="#eeeeee" stroke="none" font-family="Arial" font-size="24px" font-style="normal" font-weight="normal" text-decoration="none" x="200" y="0">UNREGISTERED</text><text fill="#eeeeee" stroke="none" font-family="Arial" font-size="24px" font-style="normal" font-weight="normal" text-decoration="none" x="200" y="30">UNREGISTERED</text><text fill="#eeeeee" stroke="none" font-family="Arial" font-size="24px" font-style="normal" font-weight="normal" text-decoration="none" x="200" y="60">UNREGISTERED</text><text fill="#eeeeee" stroke="none" font-family="Arial" font-size="24px" font-style="normal" font-weight="normal" text-decoration="none" x="200" y="90">UNREGISTERED</text><text fill="#eeeeee" stroke="none" font-family="Arial" font-size="24px" font-style="normal" font-weight="normal" text-decoration="none" x="200" y="120">UNREGISTERED</text><text fill="#eeeeee" stroke="none" font-family="Arial" font-size="24px" font-style="normal" font-weight="normal" text-decoration="none" x="200" y="150">UNREGISTERED</text><text fill="#eeeeee" stroke="none" font-family="Arial" font-size="24px" font-style="normal" font-weight="normal" text-decoration="none" x="200" y="180">UNREGISTERED</text><text fill="#eeeeee" stroke="none" font-family="Arial" font-size="24px" font-style="normal" font-weight="normal" text-decoration="none" x="200" y="210">UNREGISTERED</text><text fill="#eeeeee" stroke="none" font-family="Arial" font-size="24px" font-style="normal" font-weight="normal" text-decoration="none" x="200" y="240">UNREGISTERED</text><text fill="#eeeeee" stroke="none" font-family="Arial" font-size="24px" font-style="normal" font-weight="normal" text-decoration="none" x="200" y="270">UNREGISTERED</text><text fill="#eeeeee" stroke="none" font-family="Arial" font-size="24px" font-style="normal" font-weight="normal" text-decoration="none" x="200" y="300">UNREGISTERED</text><text fill="#eeeeee" stroke="none" font-family="Arial" font-size="24px" font-style="normal" font-weight="normal" text-decoration="none" x="200" y="330">UNREGISTERED</text><text fill="#eeeeee" stroke="none" font-family="Arial" font-size="24px" font-style="normal" font-weight="normal" text-decoration="none" x="200" y="360">UNREGISTERED</text><text fill="#eeeeee" stroke="none" font-family="Arial" font-size="24px" font-style="normal" font-weight="normal" text-decoration="none" x="200" y="390">UNREGISTERED</text><text fill="#eeeeee" stroke="none" font-family="Arial" font-size="24px" font-style="normal" font-weight="normal" text-decoration="none" x="200" y="420">UNREGISTERED</text><text fill="#eeeeee" stroke="none" font-family="Arial" font-size="24px" font-style="normal" font-weight="normal" text-decoration="none" x="200" y="450">UNREGISTERED</text><text fill="#eeeeee" stroke="none" font-family="Arial" font-size="24px" font-style="normal" font-weight="normal" text-decoration="none" x="200" y="480">UNREGISTERED</text><text fill="#eeeeee" stroke="none" font-family="Arial" font-size="24px" font-style="normal" font-weight="normal" text-decoration="none" x="200" y="510">UNREGISTERED</text><text fill="#eeeeee" stroke="none" font-family="Arial" font-size="24px" font-style="normal" font-weight="normal" text-decoration="none" x="200" y="540">UNREGISTERED</text><text fill="#eeeeee" stroke="none" font-family="Arial" font-size="24px" font-style="normal" font-weight="normal" text-decoration="none" x="200" y="570">UNREGISTERED</text><text fill="#eeeeee" stroke="none" font-family="Arial" font-size="24px" font-style="normal" font-weight="normal" text-decoration="none" x="200" y="600">UNREGISTERED</text><text fill="#eeeeee" stroke="none" font-family="Arial" font-size="24px" font-style="normal" font-weight="normal" text-decoration="none" x="200" y="630">UNREGISTERED</text><text fill="#eeeeee" stroke="none" font-family="Arial" font-size="24px" font-style="normal" font-weight="normal" text-decoration="none" x="200" y="660">UNREGISTERED</text><text fill="#eeeeee" stroke="none" font-family="Arial" font-size="24px" font-style="normal" font-weight="normal" text-decoration="none" x="200" y="690">UNREGISTERED</text><text fill="#eeeeee" stroke="none" font-family="Arial" font-size="24px" font-style="normal" font-weight="normal" text-decoration="none" x="200" y="720">UNREGISTERED</text><text fill="#eeeeee" stroke="none" font-family="Arial" font-size="24px" font-style="normal" font-weight="normal" text-decoration="none" x="200" y="750">UNREGISTERED</text><text fill="#eeeeee" stroke="none" font-family="Arial" font-size="24px" font-style="normal" font-weight="normal" text-decoration="none" x="400" y="0">UNREGISTERED</text><text fill="#eeeeee" stroke="none" font-family="Arial" font-size="24px" font-style="normal" font-weight="normal" text-decoration="none" x="400" y="30">UNREGISTERED</text><text fill="#eeeeee" stroke="none" font-family="Arial" font-size="24px" font-style="normal" font-weight="normal" text-decoration="none" x="400" y="60">UNREGISTERED</text><text fill="#eeeeee" stroke="none" font-family="Arial" font-size="24px" font-style="normal" font-weight="normal" text-decoration="none" x="400" y="90">UNREGISTERED</text><text fill="#eeeeee" stroke="none" font-family="Arial" font-size="24px" font-style="normal" font-weight="normal" text-decoration="none" x="400" y="120">UNREGISTERED</text><text fill="#eeeeee" stroke="none" font-family="Arial" font-size="24px" font-style="normal" font-weight="normal" text-decoration="none" x="400" y="150">UNREGISTERED</text><text fill="#eeeeee" stroke="none" font-family="Arial" font-size="24px" font-style="normal" font-weight="normal" text-decoration="none" x="400" y="180">UNREGISTERED</text><text fill="#eeeeee" stroke="none" font-family="Arial" font-size="24px" font-style="normal" font-weight="normal" text-decoration="none" x="400" y="210">UNREGISTERED</text><text fill="#eeeeee" stroke="none" font-family="Arial" font-size="24px" font-style="normal" font-weight="normal" text-decoration="none" x="400" y="240">UNREGISTERED</text><text fill="#eeeeee" stroke="none" font-family="Arial" font-size="24px" font-style="normal" font-weight="normal" text-decoration="none" x="400" y="270">UNREGISTERED</text><text fill="#eeeeee" stroke="none" font-family="Arial" font-size="24px" font-style="normal" font-weight="normal" text-decoration="none" x="400" y="300">UNREGISTERED</text><text fill="#eeeeee" stroke="none" font-family="Arial" font-size="24px" font-style="normal" font-weight="normal" text-decoration="none" x="400" y="330">UNREGISTERED</text><text fill="#eeeeee" stroke="none" font-family="Arial" font-size="24px" font-style="normal" font-weight="normal" text-decoration="none" x="400" y="360">UNREGISTERED</text><text fill="#eeeeee" stroke="none" font-family="Arial" font-size="24px" font-style="normal" font-weight="normal" text-decoration="none" x="400" y="390">UNREGISTERED</text><text fill="#eeeeee" stroke="none" font-family="Arial" font-size="24px" font-style="normal" font-weight="normal" text-decoration="none" x="400" y="420">UNREGISTERED</text><text fill="#eeeeee" stroke="none" font-family="Arial" font-size="24px" font-style="normal" font-weight="normal" text-decoration="none" x="400" y="450">UNREGISTERED</text><text fill="#eeeeee" stroke="none" font-family="Arial" font-size="24px" font-style="normal" font-weight="normal" text-decoration="none" x="400" y="480">UNREGISTERED</text><text fill="#eeeeee" stroke="none" font-family="Arial" font-size="24px" font-style="normal" font-weight="normal" text-decoration="none" x="400" y="510">UNREGISTERED</text><text fill="#eeeeee" stroke="none" font-family="Arial" font-size="24px" font-style="normal" font-weight="normal" text-decoration="none" x="400" y="540">UNREGISTERED</text><text fill="#eeeeee" stroke="none" font-family="Arial" font-size="24px" font-style="normal" font-weight="normal" text-decoration="none" x="400" y="570">UNREGISTERED</text><text fill="#eeeeee" stroke="none" font-family="Arial" font-size="24px" font-style="normal" font-weight="normal" text-decoration="none" x="400" y="600">UNREGISTERED</text><text fill="#eeeeee" stroke="none" font-family="Arial" font-size="24px" font-style="normal" font-weight="normal" text-decoration="none" x="400" y="630">UNREGISTERED</text><text fill="#eeeeee" stroke="none" font-family="Arial" font-size="24px" font-style="normal" font-weight="normal" text-decoration="none" x="400" y="660">UNREGISTERED</text><text fill="#eeeeee" stroke="none" font-family="Arial" font-size="24px" font-style="normal" font-weight="normal" text-decoration="none" x="400" y="690">UNREGISTERED</text><text fill="#eeeeee" stroke="none" font-family="Arial" font-size="24px" font-style="normal" font-weight="normal" text-decoration="none" x="400" y="720">UNREGISTERED</text><text fill="#eeeeee" stroke="none" font-family="Arial" font-size="24px" font-style="normal" font-weight="normal" text-decoration="none" x="400" y="750">UNREGISTERED</text><text fill="#eeeeee" stroke="none" font-family="Arial" font-size="24px" font-style="normal" font-weight="normal" text-decoration="none" x="600" y="0">UNREGISTERED</text><text fill="#eeeeee" stroke="none" font-family="Arial" font-size="24px" font-style="normal" font-weight="normal" text-decoration="none" x="600" y="30">UNREGISTERED</text><text fill="#eeeeee" stroke="none" font-family="Arial" font-size="24px" font-style="normal" font-weight="normal" text-decoration="none" x="600" y="60">UNREGISTERED</text><text fill="#eeeeee" stroke="none" font-family="Arial" font-size="24px" font-style="normal" font-weight="normal" text-decoration="none" x="600" y="90">UNREGISTERED</text><text fill="#eeeeee" stroke="none" font-family="Arial" font-size="24px" font-style="normal" font-weight="normal" text-decoration="none" x="600" y="120">UNREGISTERED</text><text fill="#eeeeee" stroke="none" font-family="Arial" font-size="24px" font-style="normal" font-weight="normal" text-decoration="none" x="600" y="150">UNREGISTERED</text><text fill="#eeeeee" stroke="none" font-family="Arial" font-size="24px" font-style="normal" font-weight="normal" text-decoration="none" x="600" y="180">UNREGISTERED</text><text fill="#eeeeee" stroke="none" font-family="Arial" font-size="24px" font-style="normal" font-weight="normal" text-decoration="none" x="600" y="210">UNREGISTERED</text><text fill="#eeeeee" stroke="none" font-family="Arial" font-size="24px" font-style="normal" font-weight="normal" text-decoration="none" x="600" y="240">UNREGISTERED</text><text fill="#eeeeee" stroke="none" font-family="Arial" font-size="24px" font-style="normal" font-weight="normal" text-decoration="none" x="600" y="270">UNREGISTERED</text><text fill="#eeeeee" stroke="none" font-family="Arial" font-size="24px" font-style="normal" font-weight="normal" text-decoration="none" x="600" y="300">UNREGISTERED</text><text fill="#eeeeee" stroke="none" font-family="Arial" font-size="24px" font-style="normal" font-weight="normal" text-decoration="none" x="600" y="330">UNREGISTERED</text><text fill="#eeeeee" stroke="none" font-family="Arial" font-size="24px" font-style="normal" font-weight="normal" text-decoration="none" x="600" y="360">UNREGISTERED</text><text fill="#eeeeee" stroke="none" font-family="Arial" font-size="24px" font-style="normal" font-weight="normal" text-decoration="none" x="600" y="390">UNREGISTERED</text><text fill="#eeeeee" stroke="none" font-family="Arial" font-size="24px" font-style="normal" font-weight="normal" text-decoration="none" x="600" y="420">UNREGISTERED</text><text fill="#eeeeee" stroke="none" font-family="Arial" font-size="24px" font-style="normal" font-weight="normal" text-decoration="none" x="600" y="450">UNREGISTERED</text><text fill="#eeeeee" stroke="none" font-family="Arial" font-size="24px" font-style="normal" font-weight="normal" text-decoration="none" x="600" y="480">UNREGISTERED</text><text fill="#eeeeee" stroke="none" font-family="Arial" font-size="24px" font-style="normal" font-weight="normal" text-decoration="none" x="600" y="510">UNREGISTERED</text><text fill="#eeeeee" stroke="none" font-family="Arial" font-size="24px" font-style="normal" font-weight="normal" text-decoration="none" x="600" y="540">UNREGISTERED</text><text fill="#eeeeee" stroke="none" font-family="Arial" font-size="24px" font-style="normal" font-weight="normal" text-decoration="none" x="600" y="570">UNREGISTERED</text><text fill="#eeeeee" stroke="none" font-family="Arial" font-size="24px" font-style="normal" font-weight="normal" text-decoration="none" x="600" y="600">UNREGISTERED</text><text fill="#eeeeee" stroke="none" font-family="Arial" font-size="24px" font-style="normal" font-weight="normal" text-decoration="none" x="600" y="630">UNREGISTERED</text><text fill="#eeeeee" stroke="none" font-family="Arial" font-size="24px" font-style="normal" font-weight="normal" text-decoration="none" x="600" y="660">UNREGISTERED</text><text fill="#eeeeee" stroke="none" font-family="Arial" font-size="24px" font-style="normal" font-weight="normal" text-decoration="none" x="600" y="690">UNREGISTERED</text><text fill="#eeeeee" stroke="none" font-family="Arial" font-size="24px" font-style="normal" font-weight="normal" text-decoration="none" x="600" y="720">UNREGISTERED</text><text fill="#eeeeee" stroke="none" font-family="Arial" font-size="24px" font-style="normal" font-weight="normal" text-decoration="none" x="600" y="750">UNREGISTERED</text><text fill="#eeeeee" stroke="none" font-family="Arial" font-size="24px" font-style="normal" font-weight="normal" text-decoration="none" x="800" y="0">UNREGISTERED</text><text fill="#eeeeee" stroke="none" font-family="Arial" font-size="24px" font-style="normal" font-weight="normal" text-decoration="none" x="800" y="30">UNREGISTERED</text><text fill="#eeeeee" stroke="none" font-family="Arial" font-size="24px" font-style="normal" font-weight="normal" text-decoration="none" x="800" y="60">UNREGISTERED</text><text fill="#eeeeee" stroke="none" font-family="Arial" font-size="24px" font-style="normal" font-weight="normal" text-decoration="none" x="800" y="90">UNREGISTERED</text><text fill="#eeeeee" stroke="none" font-family="Arial" font-size="24px" font-style="normal" font-weight="normal" text-decoration="none" x="800" y="120">UNREGISTERED</text><text fill="#eeeeee" stroke="none" font-family="Arial" font-size="24px" font-style="normal" font-weight="normal" text-decoration="none" x="800" y="150">UNREGISTERED</text><text fill="#eeeeee" stroke="none" font-family="Arial" font-size="24px" font-style="normal" font-weight="normal" text-decoration="none" x="800" y="180">UNREGISTERED</text><text fill="#eeeeee" stroke="none" font-family="Arial" font-size="24px" font-style="normal" font-weight="normal" text-decoration="none" x="800" y="210">UNREGISTERED</text><text fill="#eeeeee" stroke="none" font-family="Arial" font-size="24px" font-style="normal" font-weight="normal" text-decoration="none" x="800" y="240">UNREGISTERED</text><text fill="#eeeeee" stroke="none" font-family="Arial" font-size="24px" font-style="normal" font-weight="normal" text-decoration="none" x="800" y="270">UNREGISTERED</text><text fill="#eeeeee" stroke="none" font-family="Arial" font-size="24px" font-style="normal" font-weight="normal" text-decoration="none" x="800" y="300">UNREGISTERED</text><text fill="#eeeeee" stroke="none" font-family="Arial" font-size="24px" font-style="normal" font-weight="normal" text-decoration="none" x="800" y="330">UNREGISTERED</text><text fill="#eeeeee" stroke="none" font-family="Arial" font-size="24px" font-style="normal" font-weight="normal" text-decoration="none" x="800" y="360">UNREGISTERED</text><text fill="#eeeeee" stroke="none" font-family="Arial" font-size="24px" font-style="normal" font-weight="normal" text-decoration="none" x="800" y="390">UNREGISTERED</text><text fill="#eeeeee" stroke="none" font-family="Arial" font-size="24px" font-style="normal" font-weight="normal" text-decoration="none" x="800" y="420">UNREGISTERED</text><text fill="#eeeeee" stroke="none" font-family="Arial" font-size="24px" font-style="normal" font-weight="normal" text-decoration="none" x="800" y="450">UNREGISTERED</text><text fill="#eeeeee" stroke="none" font-family="Arial" font-size="24px" font-style="normal" font-weight="normal" text-decoration="none" x="800" y="480">UNREGISTERED</text><text fill="#eeeeee" stroke="none" font-family="Arial" font-size="24px" font-style="normal" font-weight="normal" text-decoration="none" x="800" y="510">UNREGISTERED</text><text fill="#eeeeee" stroke="none" font-family="Arial" font-size="24px" font-style="normal" font-weight="normal" text-decoration="none" x="800" y="540">UNREGISTERED</text><text fill="#eeeeee" stroke="none" font-family="Arial" font-size="24px" font-style="normal" font-weight="normal" text-decoration="none" x="800" y="570">UNREGISTERED</text><text fill="#eeeeee" stroke="none" font-family="Arial" font-size="24px" font-style="normal" font-weight="normal" text-decoration="none" x="800" y="600">UNREGISTERED</text><text fill="#eeeeee" stroke="none" font-family="Arial" font-size="24px" font-style="normal" font-weight="normal" text-decoration="none" x="800" y="630">UNREGISTERED</text><text fill="#eeeeee" stroke="none" font-family="Arial" font-size="24px" font-style="normal" font-weight="normal" text-decoration="none" x="800" y="660">UNREGISTERED</text><text fill="#eeeeee" stroke="none" font-family="Arial" font-size="24px" font-style="normal" font-weight="normal" text-decoration="none" x="800" y="690">UNREGISTERED</text><text fill="#eeeeee" stroke="none" font-family="Arial" font-size="24px" font-style="normal" font-weight="normal" text-decoration="none" x="800" y="720">UNREGISTERED</text><text fill="#eeeeee" stroke="none" font-family="Arial" font-size="24px" font-style="normal" font-weight="normal" text-decoration="none" x="800" y="750">UNREGISTERED</text><g transform="translate(-166,-134) scale(1,1)"><path fill="#C0C0C0" stroke="none" d="M 193 151 L 853 151 Q 863 151 863 161 L 863 717 Q 863 727 853 727 L 193 727 Q 183 727 183 717 L 183 161 Q 183 151 193 151 Z" opacity="0.2"/></g><g transform="translate(-166,-134) scale(1,1)"><path fill="#ffffff" stroke="none" d="M 186 144 L 846 144 Q 856 144 856 154 L 856 710 Q 856 720 846 720 L 186 720 Q 176 720 176 710 L 176 154 Q 176 144 186 144 Z"/></g><g transform="translate(-166,-134) scale(1,1)"><path fill="none" stroke="#000000" d="M 186 144 L 846 144 Q 856 144 856 154 L 856 710 Q 856 720 846 720 L 186 720 Q 176 720 176 710 L 176 154 Q 176 144 186 144 Z" stroke-miterlimit="10"/></g><g transform="translate(-166,-134) scale(1,1)"><path fill="none" stroke="#000000" d="M 176 169 L 856 169" stroke-miterlimit="10"/></g><g transform="translate(-166,-134) scale(1,1)"><g><path fill="none" stroke="none"/><text fill="#000000" stroke="none" font-family="Arial" font-size="13px" font-style="normal" font-weight="bold" text-decoration="none" x="432.906005859375" y="163.5">GitHub Repo Software Asset</text></g></g><g transform="translate(-166,-134) scale(1,1)"><path fill="#C0C0C0" stroke="none" d="M 649 271 L 688 271 Q 698 271 698 281 L 698 301 Q 698 311 688 311 L 649 311 Q 639 311 639 301 L 639 281 Q 639 271 649 271 Z" opacity="0.2"/></g><g transform="translate(-166,-134) scale(1,1)"><path fill="#ffffff" stroke="none" d="M 642 264 L 681 264 Q 691 264 691 274 L 691 294 Q 691 304 681 304 L 642 304 Q 632 304 632 294 L 632 274 Q 632 264 642 264 Z"/></g><g transform="translate(-166,-134) scale(1,1)"><path fill="none" stroke="#000000" d="M 642 264 L 681 264 Q 691 264 691 274 L 691 294 Q 691 304 681 304 L 642 304 Q 632 304 632 294 L 632 274 Q 632 264 642 264 Z" stroke-miterlimit="10"/></g><g transform="translate(-166,-134) scale(1,1)"><g><path fill="none" stroke="none"/><text fill="#000000" stroke="none" font-family="Arial" font-size="13px" font-style="normal" font-weight="bold" text-decoration="none" x="647.411376953125" y="283.5">main</text></g></g><g transform="translate(-166,-134) scale(1,1)"><path fill="#C0C0C0" stroke="none" d="M 529 751 L 725 751 Q 735 751 735 761 L 735 901 Q 735 911 725 911 L 529 911 Q 519 911 519 901 L 519 761 Q 519 751 529 751 Z" opacity="0.2"/></g><g transform="translate(-166,-134) scale(1,1)"><path fill="#ffffff" stroke="none" d="M 522 744 L 718 744 Q 728 744 728 754 L 728 894 Q 728 904 718 904 L 522 904 Q 512 904 512 894 L 512 754 Q 512 744 522 744 Z"/></g><g transform="translate(-166,-134) scale(1,1)"><path fill="none" stroke="#000000" d="M 522 744 L 718 744 Q 728 744 728 754 L 728 894 Q 728 904 718 904 L 522 904 Q 512 904 512 894 L 512 754 Q 512 744 522 744 Z" stroke-miterlimit="10"/></g><g transform="translate(-166,-134) scale(1,1)"><path fill="none" stroke="#000000" d="M 512 769 L 728 769" stroke-miterlimit="10"/></g><g transform="translate(-166,-134) scale(1,1)"><path fill="none" stroke="#000000" d="M 512 807 L 728 807" stroke-miterlimit="10"/></g><g transform="translate(-166,-134) scale(1,1)"><g><path fill="none" stroke="none"/><text fill="#000000" stroke="none" font-family="Arial" font-size="13px" font-style="normal" font-weight="bold" text-decoration="none" x="558.94189453125" y="763.5">Local Software Asset</text></g></g><g transform="translate(-166,-134) scale(1,1)"><g><path fill="none" stroke="none"/><text fill="#000000" stroke="none" font-family="Arial" font-size="13px" font-style="normal" font-weight="normal" text-decoration="none" x="517" y="786.5">entry/clone</text></g></g><g transform="translate(-166,-134) scale(1,1)"><g><path fill="none" stroke="none"/><text fill="#000000" stroke="none" font-family="Arial" font-size="13px" font-style="normal" font-weight="normal" text-decoration="none" x="517" y="801.5">exit/commit</text></g></g><g transform="translate(-166,-134) scale(1,1)"><path fill="#C0C0C0" stroke="none" d="M 921 151 L 1117 151 Q 1127 151 1127 161 L 1127 605 Q 1127 615 1117 615 L 921 615 Q 911 615 911 605 L 911 161 Q 911 151 921 151 Z" opacity="0.2"/></g><g transform="translate(-166,-134) scale(1,1)"><path fill="#ffffff" stroke="none" d="M 914 144 L 1110 144 Q 1120 144 1120 154 L 1120 598 Q 1120 608 1110 608 L 914 608 Q 904 608 904 598 L 904 154 Q 904 144 914 144 Z"/></g><g transform="translate(-166,-134) scale(1,1)"><path fill="none" stroke="#000000" d="M 914 144 L 1110 144 Q 1120 144 1120 154 L 1120 598 Q 1120 608 1110 608 L 914 608 Q 904 608 904 598 L 904 154 Q 904 144 914 144 Z" stroke-miterlimit="10"/></g><g transform="translate(-166,-134) scale(1,1)"><path fill="none" stroke="#000000" d="M 904 169 L 1120 169" stroke-miterlimit="10"/></g><g transform="translate(-166,-134) scale(1,1)"><g><path fill="none" stroke="none"/><text fill="#000000" stroke="none" font-family="Arial" font-size="13px" font-style="normal" font-weight="bold" text-decoration="none" x="939.017822265625" y="163.5">Deployed Software Asset</text></g></g><g transform="translate(-166,-134) scale(1,1)"><path fill="#C0C0C0" stroke="none" d="M 761 511 L 800 511 Q 810 511 810 521 L 810 540 Q 810 550 800 550 L 761 550 Q 751 550 751 540 L 751 521 Q 751 511 761 511 Z" opacity="0.2"/></g><g transform="translate(-166,-134) scale(1,1)"><path fill="#ffffff" stroke="none" d="M 754 504 L 793 504 Q 803 504 803 514 L 803 533 Q 803 543 793 543 L 754 543 Q 744 543 744 533 L 744 514 Q 744 504 754 504 Z"/></g><g transform="translate(-166,-134) scale(1,1)"><path fill="none" stroke="#000000" d="M 754 504 L 793 504 Q 803 504 803 514 L 803 533 Q 803 543 793 543 L 754 543 Q 744 543 744 533 L 744 514 Q 744 504 754 504 Z" stroke-miterlimit="10"/></g><g transform="translate(-166,-134) scale(1,1)"><g><path fill="none" stroke="none"/><text fill="#000000" stroke="none" font-family="Arial" font-size="13px" font-style="normal" font-weight="bold" text-decoration="none" x="753.62548828125" y="523.5">branch</text></g></g><g transform="translate(-166,-134) scale(1,1)"><path fill="none" stroke="#000000" d="M 680 305 Q 744 376 769 503" stroke-miterlimit="10"/></g><g transform="translate(-166,-134) scale(1,1)"><path fill="none" stroke="#000000" d="M 762.9068879617369 493.8417258345706 L 769 503 L 771.1673969255554 492.215641392874" stroke-miterlimit="10"/></g><g transform="translate(-166,-134) scale(1,1)"><g><path fill="none" stroke="none"/><text fill="#000000" stroke="none" font-family="Arial" font-size="13px" font-style="normal" font-weight="normal" text-decoration="none" x="747.5" y="379.5">fork</text></g></g><g transform="translate(-166,-134) scale(1,1)"><path fill="#C0C0C0" stroke="none" d="M 601 831 L 656 831 Q 666 831 666 841 L 666 860 Q 666 870 656 870 L 601 870 Q 591 870 591 860 L 591 841 Q 591 831 601 831 Z" opacity="0.2"/></g><g transform="translate(-166,-134) scale(1,1)"><path fill="#ffffff" stroke="none" d="M 594 824 L 649 824 Q 659 824 659 834 L 659 853 Q 659 863 649 863 L 594 863 Q 584 863 584 853 L 584 834 Q 584 824 594 824 Z"/></g><g transform="translate(-166,-134) scale(1,1)"><path fill="none" stroke="#000000" d="M 594 824 L 649 824 Q 659 824 659 834 L 659 853 Q 659 863 649 863 L 594 863 Q 584 863 584 853 L 584 834 Q 584 824 594 824 Z" stroke-miterlimit="10"/></g><g transform="translate(-166,-134) scale(1,1)"><g><path fill="none" stroke="none"/><text fill="#000000" stroke="none" font-family="Arial" font-size="13px" font-style="normal" font-weight="bold" text-decoration="none" x="601.263671875" y="843.5">feature</text></g></g><g transform="translate(-166,-134) scale(1,1)"><path fill="#C0C0C0" stroke="none" d="M 305 471 L 653 471 Q 663 471 663 481 L 663 581 Q 663 591 653 591 L 305 591 Q 295 591 295 581 L 295 481 Q 295 471 305 471 Z" opacity="0.2"/></g><g transform="translate(-166,-134) scale(1,1)"><path fill="#ffffff" stroke="none" d="M 298 464 L 646 464 Q 656 464 656 474 L 656 574 Q 656 584 646 584 L 298 584 Q 288 584 288 574 L 288 474 Q 288 464 298 464 Z"/></g><g transform="translate(-166,-134) scale(1,1)"><path fill="none" stroke="#000000" d="M 298 464 L 646 464 Q 656 464 656 474 L 656 574 Q 656 584 646 584 L 298 584 Q 288 584 288 574 L 288 474 Q 288 464 298 464 Z" stroke-miterlimit="10"/></g><g transform="translate(-166,-134) scale(1,1)"><path fill="none" stroke="#000000" d="M 288 489 L 656 489" stroke-miterlimit="10"/></g><g transform="translate(-166,-134) scale(1,1)"><g><path fill="none" stroke="none"/><text fill="#000000" stroke="none" font-family="Arial" font-size="13px" font-style="normal" font-weight="bold" text-decoration="none" x="438.3955078125" y="483.5">pull request</text></g></g><g transform="translate(-166,-134) scale(1,1)"><path fill="#C0C0C0" stroke="none" d="M 401 519 L 445.6435546875 519 Q 455.6435546875 519 455.6435546875 529 L 455.6435546875 548 Q 455.6435546875 558 445.6435546875 558 L 401 558 Q 391 558 391 548 L 391 529 Q 391 519 401 519 Z" opacity="0.2"/></g><g transform="translate(-166,-134) scale(1,1)"><path fill="#ffffff" stroke="none" d="M 394 512 L 438.6435546875 512 Q 448.6435546875 512 448.6435546875 522 L 448.6435546875 541 Q 448.6435546875 551 438.6435546875 551 L 394 551 Q 384 551 384 541 L 384 522 Q 384 512 394 512 Z"/></g><g transform="translate(-166,-134) scale(1,1)"><path fill="none" stroke="#000000" d="M 394 512 L 438.6435546875 512 Q 448.6435546875 512 448.6435546875 522 L 448.6435546875 541 Q 448.6435546875 551 438.6435546875 551 L 394 551 Q 384 551 384 541 L 384 522 Q 384 512 394 512 Z" stroke-miterlimit="10"/></g><g transform="translate(-166,-134) scale(1,1)"><g><path fill="none" stroke="none"/><text fill="#000000" stroke="none" font-family="Arial" font-size="13px" font-style="normal" font-weight="bold" text-decoration="none" x="390.30908203125" y="531.5">reviewed</text></g></g><g transform="translate(-166,-134) scale(1,1)"><path fill="#C0C0C0" stroke="none" d="M 529 519 L 568 519 Q 578 519 578 529 L 578 548 Q 578 558 568 558 L 529 558 Q 519 558 519 548 L 519 529 Q 519 519 529 519 Z" opacity="0.2"/></g><g transform="translate(-166,-134) scale(1,1)"><path fill="#ffffff" stroke="none" d="M 522 512 L 561 512 Q 571 512 571 522 L 571 541 Q 571 551 561 551 L 522 551 Q 512 551 512 541 L 512 522 Q 512 512 522 512 Z"/></g><g transform="translate(-166,-134) scale(1,1)"><path fill="none" stroke="#000000" d="M 522 512 L 561 512 Q 571 512 571 522 L 571 541 Q 571 551 561 551 L 522 551 Q 512 551 512 541 L 512 522 Q 512 512 522 512 Z" stroke-miterlimit="10"/></g><g transform="translate(-166,-134) scale(1,1)"><g><path fill="none" stroke="none"/><text fill="#000000" stroke="none" font-family="Arial" font-size="13px" font-style="normal" font-weight="bold" text-decoration="none" x="523.793212890625" y="531.5">tested</text></g></g><g transform="translate(-166,-134) scale(1,1)"><path fill="#C0C0C0" stroke="none" d="M 937 375 L 986.68359375 375 Q 996.68359375 375 996.68359375 385 L 996.68359375 404 Q 996.68359375 414 986.68359375 414 L 937 414 Q 927 414 927 404 L 927 385 Q 927 375 937 375 Z" opacity="0.2"/></g><g transform="translate(-166,-134) scale(1,1)"><path fill="#ffffff" stroke="none" d="M 930 368 L 979.68359375 368 Q 989.68359375 368 989.68359375 378 L 989.68359375 397 Q 989.68359375 407 979.68359375 407 L 930 407 Q 920 407 920 397 L 920 378 Q 920 368 930 368 Z"/></g><g transform="translate(-166,-134) scale(1,1)"><path fill="none" stroke="#000000" d="M 930 368 L 979.68359375 368 Q 989.68359375 368 989.68359375 378 L 989.68359375 397 Q 989.68359375 407 979.68359375 407 L 930 407 Q 920 407 920 397 L 920 378 Q 920 368 930 368 Z" stroke-miterlimit="10"/></g><g transform="translate(-166,-134) scale(1,1)"><g><path fill="none" stroke="none"/><text fill="#000000" stroke="none" font-family="Arial" font-size="13px" font-style="normal" font-weight="bold" text-decoration="none" x="927.023193359375" y="387.5">simulated</text></g></g><g transform="translate(-166,-134) scale(1,1)"><path fill="#C0C0C0" stroke="none" d="M 1057 375 L 1096 375 Q 1106 375 1106 385 L 1106 404 Q 1106 414 1096 414 L 1057 414 Q 1047 414 1047 404 L 1047 385 Q 1047 375 1057 375 Z" opacity="0.2"/></g><g transform="translate(-166,-134) scale(1,1)"><path fill="#ffffff" stroke="none" d="M 1050 368 L 1089 368 Q 1099 368 1099 378 L 1099 397 Q 1099 407 1089 407 L 1050 407 Q 1040 407 1040 397 L 1040 378 Q 1040 368 1050 368 Z"/></g><g transform="translate(-166,-134) scale(1,1)"><path fill="none" stroke="#000000" d="M 1050 368 L 1089 368 Q 1099 368 1099 378 L 1099 397 Q 1099 407 1089 407 L 1050 407 Q 1040 407 1040 397 L 1040 378 Q 1040 368 1050 368 Z" stroke-miterlimit="10"/></g><g transform="translate(-166,-134) scale(1,1)"><g><path fill="none" stroke="none"/><text fill="#000000" stroke="none" font-family="Arial" font-size="13px" font-style="normal" font-weight="bold" text-decoration="none" x="1059.746826171875" y="387.5">live</text></g></g><g transform="translate(-166,-134) scale(1,1)"><path fill="none" stroke="#000000" d="M 777 544 Q 816 768 660 828" stroke-miterlimit="10"/></g><g transform="translate(-166,-134) scale(1,1)"><path fill="none" stroke="#000000" d="M 667.9741591172449 820.4228774344834 L 660 828 L 670.9964167340228 828.280747238106" stroke-miterlimit="10"/></g><g transform="translate(-166,-134) scale(1,1)"><g><path fill="none" stroke="none"/><text fill="#000000" stroke="none" font-family="Arial" font-size="13px" font-style="normal" font-weight="normal" text-decoration="none" x="783.5" y="691.5">clone</text></g></g><g transform="translate(-166,-134) scale(1,1)"><path fill="none" stroke="#000000" d="M 583 838 Q 472 824 472 585" stroke-miterlimit="10"/></g><g transform="translate(-166,-134) scale(1,1)"><path fill="none" stroke="#000000" d="M 476.209517756016 595.1626748576241 L 472 585 L 467.790482243984 595.1626748576241" stroke-miterlimit="10"/></g><g transform="translate(-166,-134) scale(1,1)"><g><path fill="none" stroke="none"/><text fill="#000000" stroke="none" font-family="Arial" font-size="13px" font-style="normal" font-weight="normal" text-decoration="none" x="407.5" y="699.5">pull request</text></g></g><g transform="translate(-166,-134) scale(1,1)"><path fill="none" stroke="#000000" d="M 450 531 L 511 531" stroke-miterlimit="10"/></g><g transform="translate(-166,-134) scale(1,1)"><path fill="none" stroke="#000000" d="M 500.83732514237585 535.209517756016 L 511 531 L 500.83732514237585 526.790482243984" stroke-miterlimit="10"/></g><g transform="translate(-166,-134) scale(1,1)"><g><path fill="none" stroke="none"/><text fill="#000000" stroke="none" font-family="Arial" font-size="13px" font-style="normal" font-weight="normal" text-decoration="none" x="456.5" y="522.5">approve</text></g></g><g transform="translate(-166,-134) scale(1,1)"><path fill="none" stroke="#000000" d="M 691 280 L 904 280" stroke-miterlimit="10"/></g><g transform="translate(-166,-134) scale(1,1)"><path fill="none" stroke="#000000" d="M 893.8373251423759 284.209517756016 L 904 280 L 893.8373251423758 275.790482243984" stroke-miterlimit="10"/></g><g transform="translate(-166,-134) scale(1,1)"><g><path fill="none" stroke="none"/><text fill="#000000" stroke="none" font-family="Arial" font-size="13px" font-style="normal" font-weight="normal" text-decoration="none" x="777.5" y="271.5">deploy</text></g></g><g transform="translate(-166,-134) scale(1,1)"><path fill="#C0C0C0" stroke="none" d="M 487 288.5 C 487 283.2532944 491.2532944 279 496.5 279 C 501.7467056 279 506 283.2532944 506 288.5 C 506 293.7467056 501.7467056 298 496.5 298 C 491.2532944 298 487 293.7467056 487 288.5 Z" opacity="0.2"/></g><g transform="translate(-166,-134) scale(1,1)"><path fill="#000000" stroke="none" d="M 480 281.5 C 480 276.2532944 484.2532944 272 489.5 272 C 494.7467056 272 499 276.2532944 499 281.5 C 499 286.7467056 494.7467056 291 489.5 291 C 484.2532944 291 480 286.7467056 480 281.5 Z"/></g><g transform="translate(-166,-134) scale(1,1)"><path fill="none" stroke="#000000" d="M 1017 228 L 1018 279" stroke-miterlimit="10"/></g><g transform="translate(-166,-134) scale(1,1)"><path fill="none" stroke="#000000" d="M 1013.592061382689 268.92180188992006 L 1018 279 L 1022.0094789384244 268.75675448686644" stroke-miterlimit="10"/></g><g transform="translate(-166,-134) scale(1,1)"><path fill="none" stroke="#000000" d="M 1011 286 Q 968 312 958 367" stroke-miterlimit="10"/></g><g transform="translate(-166,-134) scale(1,1)"><path fill="none" stroke="#000000" d="M 955.6763366890146 356.2482285730592 L 958 367 L 963.9595724013654 357.7542714298503" stroke-miterlimit="10"/></g><g transform="translate(-166,-134) scale(1,1)"><path fill="none" stroke="#000000" d="M 1022 286 Q 1064 323 1067 367" stroke-miterlimit="10"/></g><g transform="translate(-166,-134) scale(1,1)"><path fill="none" stroke="#000000" d="M 1062.108928123078 357.1472127854712 L 1067 367 L 1070.5084625615389 356.57451725557615" stroke-miterlimit="10"/></g><g transform="translate(-166,-134) scale(1,1)"><path fill="none" stroke="#000000" d="M 960 408 Q 968 440 1014 479" stroke-miterlimit="10"/></g><g transform="translate(-166,-134) scale(1,1)"><path fill="none" stroke="#000000" d="M 1003.5261159355831 475.63878703365066 L 1014 479 L 1008.9705820342069 469.21710907117136" stroke-miterlimit="10"/></g><g transform="translate(-166,-134) scale(1,1)"><path fill="none" stroke="#000000" d="M 1067 408 Q 1064 440 1021 479" stroke-miterlimit="10"/></g><g transform="translate(-166,-134) scale(1,1)"><path fill="none" stroke="#000000" d="M 1025.6996697986108 469.0544932867136 L 1021 479 L 1031.3557036232364 475.29063314463417" stroke-miterlimit="10"/></g><g transform="translate(-166,-134) scale(1,1)"><path fill="none" stroke="#000000" d="M 1018 486 L 1020 535" stroke-miterlimit="10"/></g><g transform="translate(-166,-134) scale(1,1)"><path fill="none" stroke="#000000" d="M 1015.3795263779318 525.0174540568164 L 1020 535 L 1023.7915576994734 524.6741058396105" stroke-miterlimit="10"/></g><g transform="translate(-166,-134) scale(1,1)"><path fill="#C0C0C0" stroke="none" d="M 1015 224.5 C 1015 219.2532944 1019.2532944 215 1024.5 215 C 1029.7467056 215 1034 219.2532944 1034 224.5 C 1034 229.7467056 1029.7467056 234 1024.5 234 C 1019.2532944 234 1015 229.7467056 1015 224.5 Z" opacity="0.2"/></g><g transform="translate(-166,-134) scale(1,1)"><path fill="#000000" stroke="none" d="M 1008 217.5 C 1008 212.2532944 1012.2532944 208 1017.5 208 C 1022.7467056 208 1027 212.2532944 1027 217.5 C 1027 222.7467056 1022.7467056 227 1017.5 227 C 1012.2532944 227 1008 222.7467056 1008 217.5 Z"/></g><g transform="translate(-166,-134) scale(1,1)"><path fill="#C0C0C0" stroke="none" d="M 994 287 L 1057 287 Q 1060 287 1060 290 L 1060 289 Q 1060 292 1057 292 L 994 292 Q 991 292 991 289 L 991 290 Q 991 287 994 287 Z" opacity="0.2"/></g><g transform="translate(-166,-134) scale(1,1)"><path fill="#000000" stroke="none" d="M 987 280 L 1050 280 Q 1053 280 1053 283 L 1053 283 Q 1053 286 1050 286 L 987 286 Q 984 286 984 283 L 984 283 Q 984 280 987 280 Z"/></g><g transform="translate(-166,-134) scale(1,1)"><path fill="#C0C0C0" stroke="none" d="M 994 487 L 1057 487 Q 1060 487 1060 490 L 1060 489 Q 1060 492 1057 492 L 994 492 Q 991 492 991 489 L 991 490 Q 991 487 994 487 Z" opacity="0.2"/></g><g transform="translate(-166,-134) scale(1,1)"><path fill="#000000" stroke="none" d="M 987 480 L 1050 480 Q 1053 480 1053 483 L 1053 483 Q 1053 486 1050 486 L 987 486 Q 984 486 984 483 L 984 483 Q 984 480 987 480 Z"/></g><g transform="translate(-166,-134) scale(1,1)"><path fill="#C0C0C0" stroke="none" d="M 1015 555.5 C 1015 548.59644 1020.59644 543 1027.5 543 C 1034.40356 543 1040 548.59644 1040 555.5 C 1040 562.40356 1034.40356 568 1027.5 568 C 1020.59644 568 1015 562.40356 1015 555.5 Z" opacity="0.2"/></g><g transform="translate(-166,-134) scale(1,1)"><path fill="none" stroke="#000000" d="M 1008 548.5 C 1008 541.59644 1013.59644 536 1020.5 536 C 1027.40356 536 1033 541.59644 1033 548.5 C 1033 555.40356 1027.40356 561 1020.5 561 C 1013.59644 561 1008 555.40356 1008 548.5 Z" stroke-miterlimit="10"/></g><g transform="translate(-166,-134) scale(1,1)"><path fill="#000000" stroke="none" d="M 1013 548.5 C 1013 544.357864 1016.357864 541 1020.5 541 C 1024.642136 541 1028 544.357864 1028 548.5 C 1028 552.642136 1024.642136 556 1020.5 556 C 1016.357864 556 1013 552.642136 1013 548.5 Z"/></g><g transform="translate(-166,-134) scale(1,1)"><path fill="#C0C0C0" stroke="none" d="M 327 536.5 C 327 531.2532944 331.2532944 527 336.5 527 C 341.7467056 527 346 531.2532944 346 536.5 C 346 541.7467056 341.7467056 546 336.5 546 C 331.2532944 546 327 541.7467056 327 536.5 Z" opacity="0.2"/></g><g transform="translate(-166,-134) scale(1,1)"><path fill="#000000" stroke="none" d="M 320 529.5 C 320 524.2532944 324.2532944 520 329.5 520 C 334.7467056 520 339 524.2532944 339 529.5 C 339 534.7467056 334.7467056 539 329.5 539 C 324.2532944 539 320 534.7467056 320 529.5 Z"/></g><g transform="translate(-166,-134) scale(1,1)"><path fill="none" stroke="#000000" d="M 340 529 L 383 530" stroke-miterlimit="10"/></g><g transform="translate(-166,-134) scale(1,1)"><path fill="none" stroke="#000000" d="M 372.7422028826507 533.9721025036246 L 383 530 L 372.9379414824055 525.5553427141674" stroke-miterlimit="10"/></g><g transform="translate(-166,-134) scale(1,1)"><path fill="#C0C0C0" stroke="none" d="M 615 539.5 C 615 532.59644 620.59644 527 627.5 527 C 634.40356 527 640 532.59644 640 539.5 C 640 546.40356 634.40356 552 627.5 552 C 620.59644 552 615 546.40356 615 539.5 Z" opacity="0.2"/></g><g transform="translate(-166,-134) scale(1,1)"><path fill="none" stroke="#000000" d="M 608 532.5 C 608 525.59644 613.59644 520 620.5 520 C 627.40356 520 633 525.59644 633 532.5 C 633 539.40356 627.40356 545 620.5 545 C 613.59644 545 608 539.40356 608 532.5 Z" stroke-miterlimit="10"/></g><g transform="translate(-166,-134) scale(1,1)"><path fill="#000000" stroke="none" d="M 613 532.5 C 613 528.357864 616.357864 525 620.5 525 C 624.642136 525 628 528.357864 628 532.5 C 628 536.642136 624.642136 540 620.5 540 C 616.357864 540 613 536.642136 613 532.5 Z"/></g><g transform="translate(-166,-134) scale(1,1)"><path fill="none" stroke="#000000" d="M 572 531 L 607 532" stroke-miterlimit="10"/></g><g transform="translate(-166,-134) scale(1,1)"><path fill="none" stroke="#000000" d="M 596.7212477597106 535.9175569405878 L 607 532 L 596.961693510381 527.5019556671291" stroke-miterlimit="10"/></g><g transform="translate(-166,-134) scale(1,1)"><path fill="none" stroke="#000000" d="M 472 464 L 472 440 L 232 440 L 232 528 L 288 528" stroke-miterlimit="10"/></g><g transform="translate(-166,-134) scale(1,1)"><path fill="none" stroke="#000000" d="M 277.83732514237585 532.209517756016 L 288 528 L 277.83732514237585 523.790482243984" stroke-miterlimit="10"/></g><g transform="translate(-166,-134) scale(1,1)"><g><path fill="none" stroke="none"/><text fill="#000000" stroke="none" font-family="Arial" font-size="13px" font-style="normal" font-weight="normal" text-decoration="none" x="202.5" y="424.5">dev, test, stage</text></g></g><g transform="translate(-166,-134) scale(1,1)"><path fill="none" stroke="#000000" d="M 486 463 Q 512 352 631 298" stroke-miterlimit="10"/></g><g transform="translate(-166,-134) scale(1,1)"><path fill="none" stroke="#000000" d="M 623.4850635590667 306.0327909401859 L 631 298 L 620.0060965367709 298.3661784280895" stroke-miterlimit="10"/></g><g transform="translate(-166,-134) scale(1,1)"><g><path fill="none" stroke="none"/><text fill="#000000" stroke="none" font-family="Arial" font-size="13px" font-style="normal" font-weight="normal" text-decoration="none" x="470.5" y="364.5">merge</text></g></g><g transform="translate(-166,-134) scale(1,1)"><path fill="none" stroke="#000000" d="M 500 281 L 631 283" stroke-miterlimit="10"/></g><g transform="translate(-166,-134) scale(1,1)"><path fill="none" stroke="#000000" d="M 620.7742493692613 287.0538899883873 L 631 283 L 620.9027692853091 278.63583548725495" stroke-miterlimit="10"/></g><g transform="translate(-166,-134) scale(1,1)"><g><path fill="none" stroke="none"/><text fill="#000000" stroke="none" font-family="Arial" font-size="13px" font-style="normal" font-weight="normal" text-decoration="none" x="546.5" y="273.5">create</text></g></g></g></svg>