<svg version="1.1" xmlns="http://www.w3.org/2000/svg" xmlns:xlink="http://www.w3.org/1999/xlink" width="772" height="676"><defs/><g><text fill="#eeeeee" stroke="none" font-family="Arial" font-size="24px" font-style="normal" font-weight="normal" text-decoration="none" x="0" y="0">UNREGISTERED</text><text fill="#eeeeee" stroke="none" font-family="Arial" font-size="24px" font-style="normal" font-weight="normal" text-decoration="none" x="0" y="30">UNREGISTERED</text><text fill="#eeeeee" stroke="none" font-family="Arial" font-size="24px" font-style="normal" font-weight="normal" text-decoration="none" x="0" y="60">UNREGISTERED</text><text fill="#eeeeee" stroke="none" font-family="Arial" font-size="24px" font-style="normal" font-weight="normal" text-decoration="none" x="0" y="90">UNREGISTERED</text><text fill="#eeeeee" stroke="none" font-family="Arial" font-size="24px" font-style="normal" font-weight="normal" text-decoration="none" x="0" y="120">UNREGISTERED</text><text fill="#eeeeee" stroke="none" font-family="Arial" font-size="24px" font-style="normal" font-weight="normal" text-decoration="none" x="0" y="150">UNREGISTERED</text><text fill="#eeeeee" stroke="none" font-family="Arial" font-size="24px" font-style="normal" font-weight="normal" text-decoration="none" x="0" y="180">UNREGISTERED</text><text fill="#eeeeee" stroke="none" font-family="Arial" font-size="24px" font-style="normal" font-weight="normal" text-decoration="none" x="0" y="210">UNREGISTERED</text><text fill="#eeeeee" stroke="none" font-family="Arial" font-size="24px" font-style="normal" font-weight="normal" text-decoration="none" x="0" y="240">UNREGISTERED</text><text fill="#eeeeee" stroke="none" font-family="Arial" font-size="24px" font-style="normal" font-weight="normal" text-decoration="none" x="0" y="270">UNREGISTERED</text><text fill="#eeeeee" stroke="none" font-family="Arial" font-size="24px" font-style="normal" font-weight="normal" text-decoration="none" x="0" y="300">UNREGISTERED</text><text fill="#eeeeee" stroke="none" font-family="Arial" font-size="24px" font-style="normal" font-weight="normal" text-decoration="none" x="0" y="330">UNREGISTERED</text><text fill="#eeeeee" stroke="none" font-family="Arial" font-size="24px" font-style="normal" font-weight="normal" text-decoration="none" x="0" y="360">UNREGISTERED</text><text fill="#eeeeee" stroke="none" font-family="Arial" font-size="24px" font-style="normal" font-weight="normal" text-decoration="none" x="0" y="390">UNREGISTERED</text><text fill="#eeeeee" stroke="none" font-family="Arial" font-size="24px" font-style="normal" font-weight="normal" text-decoration="none" x="0" y="420">UNREGISTERED</text><text fill="#eeeeee" stroke="none" font-family="Arial" font-size="24px" font-style="normal" font-weight="normal" text-decoration="none" x="0" y="450">UNREGISTERED</text><text fill="#eeeeee" stroke="none" font-family="Arial" font-size="24px" font-style="normal" font-weight="normal" text-decoration="none" x="0" y="480">UNREGISTERED</text><text fill="#eeeeee" stroke="none" font-family="Arial" font-size="24px" font-style="normal" font-weight="normal" text-decoration="none" x="0" y="510">UNREGISTERED</text><text fill="#eeeeee" stroke="none" font-family="Arial" font-size="24px" font-style="normal" font-weight="normal" text-decoration="none" x="0" y="540">UNREGISTERED</text><text fill="#eeeeee" stroke="none" font-family="Arial" font-size="24px" font-style="normal" font-weight="normal" text-decoration="none" x="0" y="570">UNREGISTERED</text><text fill="#eeeeee" stroke="none" font-family="Arial" font-size="24px" font-style="normal" font-weight="normal" text-decoration="none" x="0" y="600">UNREGISTERED</text><text fill="#eeeeee" stroke="none" font-family="Arial" font-size="24px" font-style="normal" font-weight="normal" text-decoration="none" x="0" y="630">UNREGISTERED</text><text fill="#eeeeee" stroke="none" font-family="Arial" font-size="24px" font-style="normal" font-weight="normal" text-decoration="none" x="0" y="660">UNREGISTERED</text><text fill="#eeeeee" stroke="none" font-family="Arial" font-size="24px" font-style="normal" font-weight="normal" text-decoration="none" x="200" y="0">UNREGISTERED</text><text fill="#eeeeee" stroke="none" font-family="Arial" font-size="24px" font-style="normal" font-weight="normal" text-decoration="none" x="200" y="30">UNREGISTERED</text><text fill="#eeeeee" stroke="none" font-family="Arial" font-size="24px" font-style="normal" font-weight="normal" text-decoration="none" x="200" y="60">UNREGISTERED</text><text fill="#eeeeee" stroke="none" font-family="Arial" font-size="24px" font-style="normal" font-weight="normal" text-decoration="none" x="200" y="90">UNREGISTERED</text><text fill="#eeeeee" stroke="none" font-family="Arial" font-size="24px" font-style="normal" font-weight="normal" text-decoration="none" x="200" y="120">UNREGISTERED</text><text fill="#eeeeee" stroke="none" font-family="Arial" font-size="24px" font-style="normal" font-weight="normal" text-decoration="none" x="200" y="150">UNREGISTERED</text><text fill="#eeeeee" stroke="none" font-family="Arial" font-size="24px" font-style="normal" font-weight="normal" text-decoration="none" x="200" y="180">UNREGISTERED</text><text fill="#eeeeee" stroke="none" font-family="Arial" font-size="24px" font-style="normal" font-weight="normal" text-decoration="none" x="200" y="210">UNREGISTERED</text><text fill="#eeeeee" stroke="none" font-family="Arial" font-size="24px" font-style="normal" font-weight="normal" text-decoration="none" x="200" y="240">UNREGISTERED</text><text fill="#eeeeee" stroke="none" font-family="Arial" font-size="24px" font-style="normal" font-weight="normal" text-decoration="none" x="200" y="270">UNREGISTERED</text><text fill="#eeeeee" stroke="none" font-family="Arial" font-size="24px" font-style="normal" font-weight="normal" text-decoration="none" x="200" y="300">UNREGISTERED</text><text fill="#eeeeee" stroke="none" font-family="Arial" font-size="24px" font-style="normal" font-weight="normal" text-decoration="none" x="200" y="330">UNREGISTERED</text><text fill="#eeeeee" stroke="none" font-family="Arial" font-size="24px" font-style="normal" font-weight="normal" text-decoration="none" x="200" y="360">UNREGISTERED</text><text fill="#eeeeee" stroke="none" font-family="Arial" font-size="24px" font-style="normal" font-weight="normal" text-decoration="none" x="200" y="390">UNREGISTERED</text><text fill="#eeeeee" stroke="none" font-family="Arial" font-size="24px" font-style="normal" font-weight="normal" text-decoration="none" x="200" y="420">UNREGISTERED</text><text fill="#eeeeee" stroke="none" font-family="Arial" font-size="24px" font-style="normal" font-weight="normal" text-decoration="none" x="200" y="450">UNREGISTERED</text><text fill="#eeeeee" stroke="none" font-family="Arial" font-size="24px" font-style="normal" font-weight="normal" text-decoration="none" x="200" y="480">UNREGISTERED</text><text fill="#eeeeee" stroke="none" font-family="Arial" font-size="24px" font-style="normal" font-weight="normal" text-decoration="none" x="200" y="510">UNREGISTERED</text><text fill="#eeeeee" stroke="none" font-family="Arial" font-size="24px" font-style="normal" font-weight="normal" text-decoration="none" x="200" y="540">UNREGISTERED</text><text fill="#eeeeee" stroke="none" font-family="Arial" font-size="24px" font-style="normal" font-weight="normal" text-decoration="none" x="200" y="570">UNREGISTERED</text><text fill="#eeeeee" stroke="none" font-family="Arial" font-size="24px" font-style="normal" font-weight="normal" text-decoration="none" x="200" y="600">UNREGISTERED</text><text fill="#eeeeee" stroke="none" font-family="Arial" font-size="24px" font-style="normal" font-weight="normal" text-decoration="none" x="200" y="630">UNREGISTERED</text><text fill="#eeeeee" stroke="none" font-family="Arial" font-size="24px" font-style="normal" font-weight="normal" text-decoration="none" x="200" y="660">UNREGISTERED</text><text fill="#eeeeee" stroke="none" font-family="Arial" font-size="24px" font-style="normal" font-weight="normal" text-decoration="none" x="400" y="0">UNREGISTERED</text><text fill="#eeeeee" stroke="none" font-family="Arial" font-size="24px" font-style="normal" font-weight="normal" text-decoration="none" x="400" y="30">UNREGISTERED</text><text fill="#eeeeee" stroke="none" font-family="Arial" font-size="24px" font-style="normal" font-weight="normal" text-decoration="none" x="400" y="60">UNREGISTERED</text><text fill="#eeeeee" stroke="none" font-family="Arial" font-size="24px" font-style="normal" font-weight="normal" text-decoration="none" x="400" y="90">UNREGISTERED</text><text fill="#eeeeee" stroke="none" font-family="Arial" font-size="24px" font-style="normal" font-weight="normal" text-decoration="none" x="400" y="120">UNREGISTERED</text><text fill="#eeeeee" stroke="none" font-family="Arial" font-size="24px" font-style="normal" font-weight="normal" text-decoration="none" x="400" y="150">UNREGISTERED</text><text fill="#eeeeee" stroke="none" font-family="Arial" font-size="24px" font-style="normal" font-weight="normal" text-decoration="none" x="400" y="180">UNREGISTERED</text><text fill="#eeeeee" stroke="none" font-family="Arial" font-size="24px" font-style="normal" font-weight="normal" text-decoration="none" x="400" y="210">UNREGISTERED</text><text fill="#eeeeee" stroke="none" font-family="Arial" font-size="24px" font-style="normal" font-weight="normal" text-decoration="none" x="400" y="240">UNREGISTERED</text><text fill="#eeeeee" stroke="none" font-family="Arial" font-size="24px" font-style="normal" font-weight="normal" text-decoration="none" x="400" y="270">UNREGISTERED</text><text fill="#eeeeee" stroke="none" font-family="Arial" font-size="24px" font-style="normal" font-weight="normal" text-decoration="none" x="400" y="300">UNREGISTERED</text><text fill="#eeeeee" stroke="none" font-family="Arial" font-size="24px" font-style="normal" font-weight="normal" text-decoration="none" x="400" y="330">UNREGISTERED</text><text fill="#eeeeee" stroke="none" font-family="Arial" font-size="24px" font-style="normal" font-weight="normal" text-decoration="none" x="400" y="360">UNREGISTERED</text><text fill="#eeeeee" stroke="none" font-family="Arial" font-size="24px" font-style="normal" font-weight="normal" text-decoration="none" x="400" y="390">UNREGISTERED</text><text fill="#eeeeee" stroke="none" font-family="Arial" font-size="24px" font-style="normal" font-weight="normal" text-decoration="none" x="400" y="420">UNREGISTERED</text><text fill="#eeeeee" stroke="none" font-family="Arial" font-size="24px" font-style="normal" font-weight="normal" text-decoration="none" x="400" y="450">UNREGISTERED</text><text fill="#eeeeee" stroke="none" font-family="Arial" font-size="24px" font-style="normal" font-weight="normal" text-decoration="none" x="400" y="480">UNREGISTERED</text><text fill="#eeeeee" stroke="none" font-family="Arial" font-size="24px" font-style="normal" font-weight="normal" text-decoration="none" x="400" y="510">UNREGISTERED</text><text fill="#eeeeee" stroke="none" font-family="Arial" font-size="24px" font-style="normal" font-weight="normal" text-decoration="none" x="400" y="540">UNREGISTERED</text><text fill="#eeeeee" stroke="none" font-family="Arial" font-size="24px" font-style="normal" font-weight="normal" text-decoration="none" x="400" y="570">UNREGISTERED</text><text fill="#eeeeee" stroke="none" font-family="Arial" font-size="24px" font-style="normal" font-weight="normal" text-decoration="none" x="400" y="600">UNREGISTERED</text><text fill="#eeeeee" stroke="none" font-family="Arial" font-size="24px" font-style="normal" font-weight="normal" text-decoration="none" x="400" y="630">UNREGISTERED</text><text fill="#eeeeee" stroke="none" font-family="Arial" font-size="24px" font-style="normal" font-weight="normal" text-decoration="none" x="400" y="660">UNREGISTERED</text><text fill="#eeeeee" stroke="none" font-family="Arial" font-size="24px" font-style="normal" font-weight="normal" text-decoration="none" x="600" y="0">UNREGISTERED</text><text fill="#eeeeee" stroke="none" font-family="Arial" font-size="24px" font-style="normal" font-weight="normal" text-decoration="none" x="600" y="30">UNREGISTERED</text><text fill="#eeeeee" stroke="none" font-family="Arial" font-size="24px" font-style="normal" font-weight="normal" text-decoration="none" x="600" y="60">UNREGISTERED</text><text fill="#eeeeee" stroke="none" font-family="Arial" font-size="24px" font-style="normal" font-weight="normal" text-decoration="none" x="600" y="90">UNREGISTERED</text><text fill="#eeeeee" stroke="none" font-family="Arial" font-size="24px" font-style="normal" font-weight="normal" text-decoration="none" x="600" y="120">UNREGISTERED</text><text fill="#eeeeee" stroke="none" font-family="Arial" font-size="24px" font-style="normal" font-weight="normal" text-decoration="none" x="600" y="150">UNREGISTERED</text><text fill="#eeeeee" stroke="none" font-family="Arial" font-size="24px" font-style="normal" font-weight="normal" text-decoration="none" x="600" y="180">UNREGISTERED</text><text fill="#eeeeee" stroke="none" font-family="Arial" font-size="24px" font-style="normal" font-weight="normal" text-decoration="none" x="600" y="210">UNREGISTERED</text><text fill="#eeeeee" stroke="none" font-family="Arial" font-size="24px" font-style="normal" font-weight="normal" text-decoration="none" x="600" y="240">UNREGISTERED</text><text fill="#eeeeee" stroke="none" font-family="Arial" font-size="24px" font-style="normal" font-weight="normal" text-decoration="none" x="600" y="270">UNREGISTERED</text><text fill="#eeeeee" stroke="none" font-family="Arial" font-size="24px" font-style="normal" font-weight="normal" text-decoration="none" x="600" y="300">UNREGISTERED</text><text fill="#eeeeee" stroke="none" font-family="Arial" font-size="24px" font-style="normal" font-weight="normal" text-decoration="none" x="600" y="330">UNREGISTERED</text><text fill="#eeeeee" stroke="none" font-family="Arial" font-size="24px" font-style="normal" font-weight="normal" text-decoration="none" x="600" y="360">UNREGISTERED</text><text fill="#eeeeee" stroke="none" font-family="Arial" font-size="24px" font-style="normal" font-weight="normal" text-decoration="none" x="600" y="390">UNREGISTERED</text><text fill="#eeeeee" stroke="none" font-family="Arial" font-size="24px" font-style="normal" font-weight="normal" text-decoration="none" x="600" y="420">UNREGISTERED</text><text fill="#eeeeee" stroke="none" font-family="Arial" font-size="24px" font-style="normal" font-weight="normal" text-decoration="none" x="600" y="450">UNREGISTERED</text><text fill="#eeeeee" stroke="none" font-family="Arial" font-size="24px" font-style="normal" font-weight="normal" text-decoration="none" x="600" y="480">UNREGISTERED</text><text fill="#eeeeee" stroke="none" font-family="Arial" font-size="24px" font-style="normal" font-weight="normal" text-decoration="none" x="600" y="510">UNREGISTERED</text><text fill="#eeeeee" stroke="none" font-family="Arial" font-size="24px" font-style="normal" font-weight="normal" text-decoration="none" x="600" y="540">UNREGISTERED</text><text fill="#eeeeee" stroke="none" font-family="Arial" font-size="24px" font-style="normal" font-weight="normal" text-decoration="none" x="600" y="570">UNREGISTERED</text><text fill="#eeeeee" stroke="none" font-family="Arial" font-size="24px" font-style="normal" font-weight="normal" text-decoration="none" x="600" y="600">UNREGISTERED</text><text fill="#eeeeee" stroke="none" font-family="Arial" font-size="24px" font-style="normal" font-weight="normal" text-decoration="none" x="600" y="630">UNREGISTERED</text><text fill="#eeeeee" stroke="none" font-family="Arial" font-size="24px" font-style="normal" font-weight="normal" text-decoration="none" x="600" y="660">UNREGISTERED</text><g transform="translate(-334,-246) scale(1,1)"><path fill="#C0C0C0" stroke="none" d="M 361 263 L 853 263 Q 863 263 863 273 L 863 717 Q 863 727 853 727 L 361 727 Q 351 727 351 717 L 351 273 Q 351 263 361 263 Z" opacity="0.2"/></g><g transform="translate(-334,-246) scale(1,1)"><path fill="#ffffff" stroke="none" d="M 354 256 L 846 256 Q 856 256 856 266 L 856 710 Q 856 720 846 720 L 354 720 Q 344 720 344 710 L 344 266 Q 344 256 354 256 Z"/></g><g transform="translate(-334,-246) scale(1,1)"><path fill="none" stroke="#000000" d="M 354 256 L 846 256 Q 856 256 856 266 L 856 710 Q 856 720 846 720 L 354 720 Q 344 720 344 710 L 344 266 Q 344 256 354 256 Z" stroke-miterlimit="10"/></g><g transform="translate(-334,-246) scale(1,1)"><path fill="none" stroke="#000000" d="M 344 281 L 856 281" stroke-miterlimit="10"/></g><g transform="translate(-334,-246) scale(1,1)"><path fill="none" stroke="#000000" d="M 344 304 L 856 304" stroke-miterlimit="10"/></g><g transform="translate(-334,-246) scale(1,1)"><g><path fill="none" stroke="none"/><text fill="#000000" stroke="none" font-family="Arial" font-size="13px" font-style="normal" font-weight="bold" text-decoration="none" x="516.906005859375" y="275.5">GitHub Repo Software Asset</text></g></g><g transform="translate(-334,-246) scale(1,1)"><g><path fill="none" stroke="none"/><text fill="#000000" stroke="none" font-family="Arial" font-size="13px" font-style="normal" font-weight="normal" text-decoration="none" x="349" y="298.5">entry/Issue</text></g></g><g transform="translate(-334,-246) scale(1,1)"><path fill="#C0C0C0" stroke="none" d="M 609 351 L 648 351 Q 658 351 658 361 L 658 381 Q 658 391 648 391 L 609 391 Q 599 391 599 381 L 599 361 Q 599 351 609 351 Z" opacity="0.2"/></g><g transform="translate(-334,-246) scale(1,1)"><path fill="#ffffff" stroke="none" d="M 602 344 L 641 344 Q 651 344 651 354 L 651 374 Q 651 384 641 384 L 602 384 Q 592 384 592 374 L 592 354 Q 592 344 602 344 Z"/></g><g transform="translate(-334,-246) scale(1,1)"><path fill="none" stroke="#000000" d="M 602 344 L 641 344 Q 651 344 651 354 L 651 374 Q 651 384 641 384 L 602 384 Q 592 384 592 374 L 592 354 Q 592 344 602 344 Z" stroke-miterlimit="10"/></g><g transform="translate(-334,-246) scale(1,1)"><g><path fill="none" stroke="none"/><text fill="#000000" stroke="none" font-family="Arial" font-size="13px" font-style="normal" font-weight="bold" text-decoration="none" x="607.411376953125" y="363.5">main</text></g></g><g transform="translate(-334,-246) scale(1,1)"><path fill="#C0C0C0" stroke="none" d="M 545 759 L 741 759 Q 751 759 751 769 L 751 909 Q 751 919 741 919 L 545 919 Q 535 919 535 909 L 535 769 Q 535 759 545 759 Z" opacity="0.2"/></g><g transform="translate(-334,-246) scale(1,1)"><path fill="#ffffff" stroke="none" d="M 538 752 L 734 752 Q 744 752 744 762 L 744 902 Q 744 912 734 912 L 538 912 Q 528 912 528 902 L 528 762 Q 528 752 538 752 Z"/></g><g transform="translate(-334,-246) scale(1,1)"><path fill="none" stroke="#000000" d="M 538 752 L 734 752 Q 744 752 744 762 L 744 902 Q 744 912 734 912 L 538 912 Q 528 912 528 902 L 528 762 Q 528 752 538 752 Z" stroke-miterlimit="10"/></g><g transform="translate(-334,-246) scale(1,1)"><path fill="none" stroke="#000000" d="M 528 777 L 744 777" stroke-miterlimit="10"/></g><g transform="translate(-334,-246) scale(1,1)"><path fill="none" stroke="#000000" d="M 528 815 L 744 815" stroke-miterlimit="10"/></g><g transform="translate(-334,-246) scale(1,1)"><g><path fill="none" stroke="none"/><text fill="#000000" stroke="none" font-family="Arial" font-size="13px" font-style="normal" font-weight="bold" text-decoration="none" x="574.94189453125" y="771.5">Local Software Asset</text></g></g><g transform="translate(-334,-246) scale(1,1)"><g><path fill="none" stroke="none"/><text fill="#000000" stroke="none" font-family="Arial" font-size="13px" font-style="normal" font-weight="normal" text-decoration="none" x="533" y="794.5">entry/clone</text></g></g><g transform="translate(-334,-246) scale(1,1)"><g><path fill="none" stroke="none"/><text fill="#000000" stroke="none" font-family="Arial" font-size="13px" font-style="normal" font-weight="normal" text-decoration="none" x="533" y="809.5">exit/commit</text></g></g><g transform="translate(-334,-246) scale(1,1)"><path fill="#C0C0C0" stroke="none" d="M 897 263 L 1093 263 Q 1103 263 1103 273 L 1103 717 Q 1103 727 1093 727 L 897 727 Q 887 727 887 717 L 887 273 Q 887 263 897 263 Z" opacity="0.2"/></g><g transform="translate(-334,-246) scale(1,1)"><path fill="#ffffff" stroke="none" d="M 890 256 L 1086 256 Q 1096 256 1096 266 L 1096 710 Q 1096 720 1086 720 L 890 720 Q 880 720 880 710 L 880 266 Q 880 256 890 256 Z"/></g><g transform="translate(-334,-246) scale(1,1)"><path fill="none" stroke="#000000" d="M 890 256 L 1086 256 Q 1096 256 1096 266 L 1096 710 Q 1096 720 1086 720 L 890 720 Q 880 720 880 710 L 880 266 Q 880 256 890 256 Z" stroke-miterlimit="10"/></g><g transform="translate(-334,-246) scale(1,1)"><path fill="none" stroke="#000000" d="M 880 281 L 1096 281" stroke-miterlimit="10"/></g><g transform="translate(-334,-246) scale(1,1)"><g><path fill="none" stroke="none"/><text fill="#000000" stroke="none" font-family="Arial" font-size="13px" font-style="normal" font-weight="bold" text-decoration="none" x="915.017822265625" y="275.5">Deployed Software Asset</text></g></g><g transform="translate(-334,-246) scale(1,1)"><path fill="#C0C0C0" stroke="none" d="M 785 511 L 824 511 Q 834 511 834 521 L 834 540 Q 834 550 824 550 L 785 550 Q 775 550 775 540 L 775 521 Q 775 511 785 511 Z" opacity="0.2"/></g><g transform="translate(-334,-246) scale(1,1)"><path fill="#ffffff" stroke="none" d="M 778 504 L 817 504 Q 827 504 827 514 L 827 533 Q 827 543 817 543 L 778 543 Q 768 543 768 533 L 768 514 Q 768 504 778 504 Z"/></g><g transform="translate(-334,-246) scale(1,1)"><path fill="none" stroke="#000000" d="M 778 504 L 817 504 Q 827 504 827 514 L 827 533 Q 827 543 817 543 L 778 543 Q 768 543 768 533 L 768 514 Q 768 504 778 504 Z" stroke-miterlimit="10"/></g><g transform="translate(-334,-246) scale(1,1)"><g><path fill="none" stroke="none"/><text fill="#000000" stroke="none" font-family="Arial" font-size="13px" font-style="normal" font-weight="bold" text-decoration="none" x="777.62548828125" y="523.5">branch</text></g></g><g transform="translate(-334,-246) scale(1,1)"><path fill="none" stroke="#000000" d="M 644 385 L 775 503" stroke-miterlimit="10"/></g><g transform="translate(-334,-246) scale(1,1)"><path fill="none" stroke="#000000" d="M 764.6316723061301 499.3260673886786 L 775 503 L 770.2663478411881 493.0706225150126" stroke-miterlimit="10"/></g><g transform="translate(-334,-246) scale(1,1)"><g><path fill="none" stroke="none"/><text fill="#000000" stroke="none" font-family="Arial" font-size="13px" font-style="normal" font-weight="normal" text-decoration="none" x="707.5" y="438.5">fork</text></g></g><g transform="translate(-334,-246) scale(1,1)"><path fill="#C0C0C0" stroke="none" d="M 617 839 L 672 839 Q 682 839 682 849 L 682 868 Q 682 878 672 878 L 617 878 Q 607 878 607 868 L 607 849 Q 607 839 617 839 Z" opacity="0.2"/></g><g transform="translate(-334,-246) scale(1,1)"><path fill="#ffffff" stroke="none" d="M 610 832 L 665 832 Q 675 832 675 842 L 675 861 Q 675 871 665 871 L 610 871 Q 600 871 600 861 L 600 842 Q 600 832 610 832 Z"/></g><g transform="translate(-334,-246) scale(1,1)"><path fill="none" stroke="#000000" d="M 610 832 L 665 832 Q 675 832 675 842 L 675 861 Q 675 871 665 871 L 610 871 Q 600 871 600 861 L 600 842 Q 600 832 610 832 Z" stroke-miterlimit="10"/></g><g transform="translate(-334,-246) scale(1,1)"><g><path fill="none" stroke="none"/><text fill="#000000" stroke="none" font-family="Arial" font-size="13px" font-style="normal" font-weight="bold" text-decoration="none" x="617.263671875" y="851.5">feature</text></g></g><g transform="translate(-334,-246) scale(1,1)"><path fill="#C0C0C0" stroke="none" d="M 385 471 L 733 471 Q 743 471 743 481 L 743 581 Q 743 591 733 591 L 385 591 Q 375 591 375 581 L 375 481 Q 375 471 385 471 Z" opacity="0.2"/></g><g transform="translate(-334,-246) scale(1,1)"><path fill="#ffffff" stroke="none" d="M 378 464 L 726 464 Q 736 464 736 474 L 736 574 Q 736 584 726 584 L 378 584 Q 368 584 368 574 L 368 474 Q 368 464 378 464 Z"/></g><g transform="translate(-334,-246) scale(1,1)"><path fill="none" stroke="#000000" d="M 378 464 L 726 464 Q 736 464 736 474 L 736 574 Q 736 584 726 584 L 378 584 Q 368 584 368 574 L 368 474 Q 368 464 378 464 Z" stroke-miterlimit="10"/></g><g transform="translate(-334,-246) scale(1,1)"><path fill="none" stroke="#000000" d="M 368 489 L 736 489" stroke-miterlimit="10"/></g><g transform="translate(-334,-246) scale(1,1)"><g><path fill="none" stroke="none"/><text fill="#000000" stroke="none" font-family="Arial" font-size="13px" font-style="normal" font-weight="bold" text-decoration="none" x="518.3955078125" y="483.5">pull request</text></g></g><g transform="translate(-334,-246) scale(1,1)"><path fill="#C0C0C0" stroke="none" d="M 481 519 L 525.6435546875 519 Q 535.6435546875 519 535.6435546875 529 L 535.6435546875 548 Q 535.6435546875 558 525.6435546875 558 L 481 558 Q 471 558 471 548 L 471 529 Q 471 519 481 519 Z" opacity="0.2"/></g><g transform="translate(-334,-246) scale(1,1)"><path fill="#ffffff" stroke="none" d="M 474 512 L 518.6435546875 512 Q 528.6435546875 512 528.6435546875 522 L 528.6435546875 541 Q 528.6435546875 551 518.6435546875 551 L 474 551 Q 464 551 464 541 L 464 522 Q 464 512 474 512 Z"/></g><g transform="translate(-334,-246) scale(1,1)"><path fill="none" stroke="#000000" d="M 474 512 L 518.6435546875 512 Q 528.6435546875 512 528.6435546875 522 L 528.6435546875 541 Q 528.6435546875 551 518.6435546875 551 L 474 551 Q 464 551 464 541 L 464 522 Q 464 512 474 512 Z" stroke-miterlimit="10"/></g><g transform="translate(-334,-246) scale(1,1)"><g><path fill="none" stroke="none"/><text fill="#000000" stroke="none" font-family="Arial" font-size="13px" font-style="normal" font-weight="bold" text-decoration="none" x="470.30908203125" y="531.5">reviewed</text></g></g><g transform="translate(-334,-246) scale(1,1)"><path fill="#C0C0C0" stroke="none" d="M 609 519 L 648 519 Q 658 519 658 529 L 658 548 Q 658 558 648 558 L 609 558 Q 599 558 599 548 L 599 529 Q 599 519 609 519 Z" opacity="0.2"/></g><g transform="translate(-334,-246) scale(1,1)"><path fill="#ffffff" stroke="none" d="M 602 512 L 641 512 Q 651 512 651 522 L 651 541 Q 651 551 641 551 L 602 551 Q 592 551 592 541 L 592 522 Q 592 512 602 512 Z"/></g><g transform="translate(-334,-246) scale(1,1)"><path fill="none" stroke="#000000" d="M 602 512 L 641 512 Q 651 512 651 522 L 651 541 Q 651 551 641 551 L 602 551 Q 592 551 592 541 L 592 522 Q 592 512 602 512 Z" stroke-miterlimit="10"/></g><g transform="translate(-334,-246) scale(1,1)"><g><path fill="none" stroke="none"/><text fill="#000000" stroke="none" font-family="Arial" font-size="13px" font-style="normal" font-weight="bold" text-decoration="none" x="603.793212890625" y="531.5">tested</text></g></g><g transform="translate(-334,-246) scale(1,1)"><path fill="#C0C0C0" stroke="none" d="M 913 511 L 962.68359375 511 Q 972.68359375 511 972.68359375 521 L 972.68359375 540 Q 972.68359375 550 962.68359375 550 L 913 550 Q 903 550 903 540 L 903 521 Q 903 511 913 511 Z" opacity="0.2"/></g><g transform="translate(-334,-246) scale(1,1)"><path fill="#ffffff" stroke="none" d="M 906 504 L 955.68359375 504 Q 965.68359375 504 965.68359375 514 L 965.68359375 533 Q 965.68359375 543 955.68359375 543 L 906 543 Q 896 543 896 533 L 896 514 Q 896 504 906 504 Z"/></g><g transform="translate(-334,-246) scale(1,1)"><path fill="none" stroke="#000000" d="M 906 504 L 955.68359375 504 Q 965.68359375 504 965.68359375 514 L 965.68359375 533 Q 965.68359375 543 955.68359375 543 L 906 543 Q 896 543 896 533 L 896 514 Q 896 504 906 504 Z" stroke-miterlimit="10"/></g><g transform="translate(-334,-246) scale(1,1)"><g><path fill="none" stroke="none"/><text fill="#000000" stroke="none" font-family="Arial" font-size="13px" font-style="normal" font-weight="bold" text-decoration="none" x="903.023193359375" y="523.5">simulated</text></g></g><g transform="translate(-334,-246) scale(1,1)"><path fill="#C0C0C0" stroke="none" d="M 1001 511 L 1040 511 Q 1050 511 1050 521 L 1050 540 Q 1050 550 1040 550 L 1001 550 Q 991 550 991 540 L 991 521 Q 991 511 1001 511 Z" opacity="0.2"/></g><g transform="translate(-334,-246) scale(1,1)"><path fill="#ffffff" stroke="none" d="M 994 504 L 1033 504 Q 1043 504 1043 514 L 1043 533 Q 1043 543 1033 543 L 994 543 Q 984 543 984 533 L 984 514 Q 984 504 994 504 Z"/></g><g transform="translate(-334,-246) scale(1,1)"><path fill="none" stroke="#000000" d="M 994 504 L 1033 504 Q 1043 504 1043 514 L 1043 533 Q 1043 543 1033 543 L 994 543 Q 984 543 984 533 L 984 514 Q 984 504 994 504 Z" stroke-miterlimit="10"/></g><g transform="translate(-334,-246) scale(1,1)"><g><path fill="none" stroke="none"/><text fill="#000000" stroke="none" font-family="Arial" font-size="13px" font-style="normal" font-weight="bold" text-decoration="none" x="1003.746826171875" y="523.5">live</text></g></g><g transform="translate(-334,-246) scale(1,1)"><path fill="none" stroke="#000000" d="M 787 544 L 647 831" stroke-miterlimit="10"/></g><g transform="translate(-334,-246) scale(1,1)"><path fill="none" stroke="#000000" d="M 647.6721750916474 820.0205564509777 L 647 831 L 655.2389385526171 823.71166057828" stroke-miterlimit="10"/></g><g transform="translate(-334,-246) scale(1,1)"><g><path fill="none" stroke="none"/><text fill="#000000" stroke="none" font-family="Arial" font-size="13px" font-style="normal" font-weight="normal" text-decoration="none" x="714.5" y="699.5">clone</text></g></g><g transform="translate(-334,-246) scale(1,1)"><path fill="none" stroke="#000000" d="M 632 831 L 568 585" stroke-miterlimit="10"/></g><g transform="translate(-334,-246) scale(1,1)"><path fill="none" stroke="#000000" d="M 574.6326756133093 593.7753982364684 L 568 585 L 566.4848663029624 595.895153504201" stroke-miterlimit="10"/></g><g transform="translate(-334,-246) scale(1,1)"><g><path fill="none" stroke="none"/><text fill="#000000" stroke="none" font-family="Arial" font-size="13px" font-style="normal" font-weight="normal" text-decoration="none" x="551.5" y="717.5">pull request</text></g></g><g transform="translate(-334,-246) scale(1,1)"><path fill="none" stroke="#000000" d="M 530 531 L 591 531" stroke-miterlimit="10"/></g><g transform="translate(-334,-246) scale(1,1)"><path fill="none" stroke="#000000" d="M 580.8373251423759 535.209517756016 L 591 531 L 580.8373251423758 526.790482243984" stroke-miterlimit="10"/></g><g transform="translate(-334,-246) scale(1,1)"><g><path fill="none" stroke="none"/><text fill="#000000" stroke="none" font-family="Arial" font-size="13px" font-style="normal" font-weight="normal" text-decoration="none" x="536.5" y="522.5">approve</text></g></g><g transform="translate(-334,-246) scale(1,1)"><path fill="none" stroke="#000000" d="M 578 463 L 612 385" stroke-miterlimit="10"/></g><g transform="translate(-334,-246) scale(1,1)"><path fill="none" stroke="#000000" d="M 611.7979912337782 395.9981449553263 L 612 385 L 604.0802953531617 392.63402110992934" stroke-miterlimit="10"/></g><g transform="translate(-334,-246) scale(1,1)"><g><path fill="none" stroke="none"/><text fill="#000000" stroke="none" font-family="Arial" font-size="13px" font-style="normal" font-weight="normal" text-decoration="none" x="562.5" y="424.5">merge</text></g></g><g transform="translate(-334,-246) scale(1,1)"><path fill="none" stroke="#000000" d="M 652 374 L 879 451" stroke-miterlimit="10"/></g><g transform="translate(-334,-246) scale(1,1)"><path fill="none" stroke="#000000" d="M 868.0237116015331 451.721867712038 L 879 451 L 870.7281544868832 443.74902959548655" stroke-miterlimit="10"/></g><g transform="translate(-334,-246) scale(1,1)"><g><path fill="none" stroke="none"/><text fill="#000000" stroke="none" font-family="Arial" font-size="13px" font-style="normal" font-weight="normal" text-decoration="none" x="749.5" y="403.5">deploy</text></g></g><g transform="translate(-334,-246) scale(1,1)"><path fill="none" stroke="#000000" d="M 412 361 L 591 364" stroke-miterlimit="10"/></g><g transform="translate(-334,-246) scale(1,1)"><path fill="none" stroke="#000000" d="M 580.7682114686642 368.0386264311057 L 591 364 L 580.9092928097117 359.6207730819398" stroke-miterlimit="10"/></g><g transform="translate(-334,-246) scale(1,1)"><g><path fill="none" stroke="none"/><text fill="#000000" stroke="none" font-family="Arial" font-size="13px" font-style="normal" font-weight="normal" text-decoration="none" x="482.5" y="353.5">assign</text></g></g><g transform="translate(-334,-246) scale(1,1)"><path fill="#C0C0C0" stroke="none" d="M 399 368.5 C 399 363.2532944 403.2532944 359 408.5 359 C 413.7467056 359 418 363.2532944 418 368.5 C 418 373.7467056 413.7467056 378 408.5 378 C 403.2532944 378 399 373.7467056 399 368.5 Z" opacity="0.2"/></g><g transform="translate(-334,-246) scale(1,1)"><path fill="#000000" stroke="none" d="M 392 361.5 C 392 356.2532944 396.2532944 352 401.5 352 C 406.7467056 352 411 356.2532944 411 361.5 C 411 366.7467056 406.7467056 371 401.5 371 C 396.2532944 371 392 366.7467056 392 361.5 Z"/></g><g transform="translate(-334,-246) scale(1,1)"><path fill="none" stroke="#000000" d="M 969 364 L 970 423" stroke-miterlimit="10"/></g><g transform="translate(-334,-246) scale(1,1)"><path fill="none" stroke="#000000" d="M 965.6188627653046 412.9101220755271 L 970 423 L 974.0366892537772 412.76744705029876" stroke-miterlimit="10"/></g><g transform="translate(-334,-246) scale(1,1)"><path fill="none" stroke="#000000" d="M 968 430 L 938 503" stroke-miterlimit="10"/></g><g transform="translate(-334,-246) scale(1,1)"><path fill="none" stroke="#000000" d="M 937.9694066439943 492.0000425434201 L 938 503 L 945.7565117408203 495.20022272019787" stroke-miterlimit="10"/></g><g transform="translate(-334,-246) scale(1,1)"><path fill="none" stroke="#000000" d="M 972 430 L 1004 503" stroke-miterlimit="10"/></g><g transform="translate(-334,-246) scale(1,1)"><path fill="none" stroke="#000000" d="M 996.06455344394 495.3823436703987 L 1004 503 L 1003.7752883758762 492.0022954810568" stroke-miterlimit="10"/></g><g transform="translate(-334,-246) scale(1,1)"><path fill="none" stroke="#000000" d="M 943 544 L 968 583" stroke-miterlimit="10"/></g><g transform="translate(-334,-246) scale(1,1)"><path fill="none" stroke="#000000" d="M 958.9716435605311 576.7159901335294 L 968 583 L 966.0594539283069 572.1725219490578" stroke-miterlimit="10"/></g><g transform="translate(-334,-246) scale(1,1)"><path fill="none" stroke="#000000" d="M 999 544 L 972 583" stroke-miterlimit="10"/></g><g transform="translate(-334,-246) scale(1,1)"><path fill="none" stroke="#000000" d="M 974.3236633109854 572.2482285730592 L 972 583 L 981.2457285701497 577.0404275986346" stroke-miterlimit="10"/></g><g transform="translate(-334,-246) scale(1,1)"><path fill="none" stroke="#000000" d="M 970 590 L 972 631" stroke-miterlimit="10"/></g><g transform="translate(-334,-246) scale(1,1)"><path fill="none" stroke="#000000" d="M 967.3003302013892 621.0544932867136 L 972 631 L 975.7093668553658 620.6442963767635" stroke-miterlimit="10"/></g><g transform="translate(-334,-246) scale(1,1)"><path fill="#C0C0C0" stroke="none" d="M 967 360.5 C 967 355.2532944 971.2532944 351 976.5 351 C 981.7467056 351 986 355.2532944 986 360.5 C 986 365.7467056 981.7467056 370 976.5 370 C 971.2532944 370 967 365.7467056 967 360.5 Z" opacity="0.2"/></g><g transform="translate(-334,-246) scale(1,1)"><path fill="#000000" stroke="none" d="M 960 353.5 C 960 348.2532944 964.2532944 344 969.5 344 C 974.7467056 344 979 348.2532944 979 353.5 C 979 358.7467056 974.7467056 363 969.5 363 C 964.2532944 363 960 358.7467056 960 353.5 Z"/></g><g transform="translate(-334,-246) scale(1,1)"><path fill="#C0C0C0" stroke="none" d="M 946 431 L 1009 431 Q 1012 431 1012 434 L 1012 433 Q 1012 436 1009 436 L 946 436 Q 943 436 943 433 L 943 434 Q 943 431 946 431 Z" opacity="0.2"/></g><g transform="translate(-334,-246) scale(1,1)"><path fill="#000000" stroke="none" d="M 939 424 L 1002 424 Q 1005 424 1005 427 L 1005 427 Q 1005 430 1002 430 L 939 430 Q 936 430 936 427 L 936 427 Q 936 424 939 424 Z"/></g><g transform="translate(-334,-246) scale(1,1)"><path fill="#C0C0C0" stroke="none" d="M 946 591 L 1009 591 Q 1012 591 1012 594 L 1012 593 Q 1012 596 1009 596 L 946 596 Q 943 596 943 593 L 943 594 Q 943 591 946 591 Z" opacity="0.2"/></g><g transform="translate(-334,-246) scale(1,1)"><path fill="#000000" stroke="none" d="M 939 584 L 1002 584 Q 1005 584 1005 587 L 1005 587 Q 1005 590 1002 590 L 939 590 Q 936 590 936 587 L 936 587 Q 936 584 939 584 Z"/></g><g transform="translate(-334,-246) scale(1,1)"><path fill="#C0C0C0" stroke="none" d="M 967 651.5 C 967 644.59644 972.59644 639 979.5 639 C 986.40356 639 992 644.59644 992 651.5 C 992 658.40356 986.40356 664 979.5 664 C 972.59644 664 967 658.40356 967 651.5 Z" opacity="0.2"/></g><g transform="translate(-334,-246) scale(1,1)"><path fill="none" stroke="#000000" d="M 960 644.5 C 960 637.59644 965.59644 632 972.5 632 C 979.40356 632 985 637.59644 985 644.5 C 985 651.40356 979.40356 657 972.5 657 C 965.59644 657 960 651.40356 960 644.5 Z" stroke-miterlimit="10"/></g><g transform="translate(-334,-246) scale(1,1)"><path fill="#000000" stroke="none" d="M 965 644.5 C 965 640.357864 968.357864 637 972.5 637 C 976.642136 637 980 640.357864 980 644.5 C 980 648.642136 976.642136 652 972.5 652 C 968.357864 652 965 648.642136 965 644.5 Z"/></g><g transform="translate(-334,-246) scale(1,1)"><path fill="#C0C0C0" stroke="none" d="M 407 536.5 C 407 531.2532944 411.2532944 527 416.5 527 C 421.7467056 527 426 531.2532944 426 536.5 C 426 541.7467056 421.7467056 546 416.5 546 C 411.2532944 546 407 541.7467056 407 536.5 Z" opacity="0.2"/></g><g transform="translate(-334,-246) scale(1,1)"><path fill="#000000" stroke="none" d="M 400 529.5 C 400 524.2532944 404.2532944 520 409.5 520 C 414.7467056 520 419 524.2532944 419 529.5 C 419 534.7467056 414.7467056 539 409.5 539 C 404.2532944 539 400 534.7467056 400 529.5 Z"/></g><g transform="translate(-334,-246) scale(1,1)"><path fill="none" stroke="#000000" d="M 420 529 L 463 530" stroke-miterlimit="10"/></g><g transform="translate(-334,-246) scale(1,1)"><path fill="none" stroke="#000000" d="M 452.7422028826507 533.9721025036246 L 463 530 L 452.9379414824055 525.5553427141674" stroke-miterlimit="10"/></g><g transform="translate(-334,-246) scale(1,1)"><path fill="#C0C0C0" stroke="none" d="M 695 539.5 C 695 532.59644 700.59644 527 707.5 527 C 714.40356 527 720 532.59644 720 539.5 C 720 546.40356 714.40356 552 707.5 552 C 700.59644 552 695 546.40356 695 539.5 Z" opacity="0.2"/></g><g transform="translate(-334,-246) scale(1,1)"><path fill="none" stroke="#000000" d="M 688 532.5 C 688 525.59644 693.59644 520 700.5 520 C 707.40356 520 713 525.59644 713 532.5 C 713 539.40356 707.40356 545 700.5 545 C 693.59644 545 688 539.40356 688 532.5 Z" stroke-miterlimit="10"/></g><g transform="translate(-334,-246) scale(1,1)"><path fill="#000000" stroke="none" d="M 693 532.5 C 693 528.357864 696.357864 525 700.5 525 C 704.642136 525 708 528.357864 708 532.5 C 708 536.642136 704.642136 540 700.5 540 C 696.357864 540 693 536.642136 693 532.5 Z"/></g><g transform="translate(-334,-246) scale(1,1)"><path fill="none" stroke="#000000" d="M 652 531 L 687 532" stroke-miterlimit="10"/></g><g transform="translate(-334,-246) scale(1,1)"><path fill="none" stroke="#000000" d="M 676.7212477597106 535.9175569405878 L 687 532 L 676.961693510381 527.5019556671291" stroke-miterlimit="10"/></g></g></svg>