<svg version="1.1" xmlns="http://www.w3.org/2000/svg" xmlns:xlink="http://www.w3.org/1999/xlink" width="442.96630859375" height="364"><defs/><g><text fill="#eeeeee" stroke="none" font-family="Arial" font-size="24px" font-style="normal" font-weight="normal" text-decoration="none" x="0" y="0">UNREGISTERED</text><text fill="#eeeeee" stroke="none" font-family="Arial" font-size="24px" font-style="normal" font-weight="normal" text-decoration="none" x="0" y="30">UNREGISTERED</text><text fill="#eeeeee" stroke="none" font-family="Arial" font-size="24px" font-style="normal" font-weight="normal" text-decoration="none" x="0" y="60">UNREGISTERED</text><text fill="#eeeeee" stroke="none" font-family="Arial" font-size="24px" font-style="normal" font-weight="normal" text-decoration="none" x="0" y="90">UNREGISTERED</text><text fill="#eeeeee" stroke="none" font-family="Arial" font-size="24px" font-style="normal" font-weight="normal" text-decoration="none" x="0" y="120">UNREGISTERED</text><text fill="#eeeeee" stroke="none" font-family="Arial" font-size="24px" font-style="normal" font-weight="normal" text-decoration="none" x="0" y="150">UNREGISTERED</text><text fill="#eeeeee" stroke="none" font-family="Arial" font-size="24px" font-style="normal" font-weight="normal" text-decoration="none" x="0" y="180">UNREGISTERED</text><text fill="#eeeeee" stroke="none" font-family="Arial" font-size="24px" font-style="normal" font-weight="normal" text-decoration="none" x="0" y="210">UNREGISTERED</text><text fill="#eeeeee" stroke="none" font-family="Arial" font-size="24px" font-style="normal" font-weight="normal" text-decoration="none" x="0" y="240">UNREGISTERED</text><text fill="#eeeeee" stroke="none" font-family="Arial" font-size="24px" font-style="normal" font-weight="normal" text-decoration="none" x="0" y="270">UNREGISTERED</text><text fill="#eeeeee" stroke="none" font-family="Arial" font-size="24px" font-style="normal" font-weight="normal" text-decoration="none" x="0" y="300">UNREGISTERED</text><text fill="#eeeeee" stroke="none" font-family="Arial" font-size="24px" font-style="normal" font-weight="normal" text-decoration="none" x="0" y="330">UNREGISTERED</text><text fill="#eeeeee" stroke="none" font-family="Arial" font-size="24px" font-style="normal" font-weight="normal" text-decoration="none" x="0" y="360">UNREGISTERED</text><text fill="#eeeeee" stroke="none" font-family="Arial" font-size="24px" font-style="normal" font-weight="normal" text-decoration="none" x="200" y="0">UNREGISTERED</text><text fill="#eeeeee" stroke="none" font-family="Arial" font-size="24px" font-style="normal" font-weight="normal" text-decoration="none" x="200" y="30">UNREGISTERED</text><text fill="#eeeeee" stroke="none" font-family="Arial" font-size="24px" font-style="normal" font-weight="normal" text-decoration="none" x="200" y="60">UNREGISTERED</text><text fill="#eeeeee" stroke="none" font-family="Arial" font-size="24px" font-style="normal" font-weight="normal" text-decoration="none" x="200" y="90">UNREGISTERED</text><text fill="#eeeeee" stroke="none" font-family="Arial" font-size="24px" font-style="normal" font-weight="normal" text-decoration="none" x="200" y="120">UNREGISTERED</text><text fill="#eeeeee" stroke="none" font-family="Arial" font-size="24px" font-style="normal" font-weight="normal" text-decoration="none" x="200" y="150">UNREGISTERED</text><text fill="#eeeeee" stroke="none" font-family="Arial" font-size="24px" font-style="normal" font-weight="normal" text-decoration="none" x="200" y="180">UNREGISTERED</text><text fill="#eeeeee" stroke="none" font-family="Arial" font-size="24px" font-style="normal" font-weight="normal" text-decoration="none" x="200" y="210">UNREGISTERED</text><text fill="#eeeeee" stroke="none" font-family="Arial" font-size="24px" font-style="normal" font-weight="normal" text-decoration="none" x="200" y="240">UNREGISTERED</text><text fill="#eeeeee" stroke="none" font-family="Arial" font-size="24px" font-style="normal" font-weight="normal" text-decoration="none" x="200" y="270">UNREGISTERED</text><text fill="#eeeeee" stroke="none" font-family="Arial" font-size="24px" font-style="normal" font-weight="normal" text-decoration="none" x="200" y="300">UNREGISTERED</text><text fill="#eeeeee" stroke="none" font-family="Arial" font-size="24px" font-style="normal" font-weight="normal" text-decoration="none" x="200" y="330">UNREGISTERED</text><text fill="#eeeeee" stroke="none" font-family="Arial" font-size="24px" font-style="normal" font-weight="normal" text-decoration="none" x="200" y="360">UNREGISTERED</text><text fill="#eeeeee" stroke="none" font-family="Arial" font-size="24px" font-style="normal" font-weight="normal" text-decoration="none" x="400" y="0">UNREGISTERED</text><text fill="#eeeeee" stroke="none" font-family="Arial" font-size="24px" font-style="normal" font-weight="normal" text-decoration="none" x="400" y="30">UNREGISTERED</text><text fill="#eeeeee" stroke="none" font-family="Arial" font-size="24px" font-style="normal" font-weight="normal" text-decoration="none" x="400" y="60">UNREGISTERED</text><text fill="#eeeeee" stroke="none" font-family="Arial" font-size="24px" font-style="normal" font-weight="normal" text-decoration="none" x="400" y="90">UNREGISTERED</text><text fill="#eeeeee" stroke="none" font-family="Arial" font-size="24px" font-style="normal" font-weight="normal" text-decoration="none" x="400" y="120">UNREGISTERED</text><text fill="#eeeeee" stroke="none" font-family="Arial" font-size="24px" font-style="normal" font-weight="normal" text-decoration="none" x="400" y="150">UNREGISTERED</text><text fill="#eeeeee" stroke="none" font-family="Arial" font-size="24px" font-style="normal" font-weight="normal" text-decoration="none" x="400" y="180">UNREGISTERED</text><text fill="#eeeeee" stroke="none" font-family="Arial" font-size="24px" font-style="normal" font-weight="normal" text-decoration="none" x="400" y="210">UNREGISTERED</text><text fill="#eeeeee" stroke="none" font-family="Arial" font-size="24px" font-style="normal" font-weight="normal" text-decoration="none" x="400" y="240">UNREGISTERED</text><text fill="#eeeeee" stroke="none" font-family="Arial" font-size="24px" font-style="normal" font-weight="normal" text-decoration="none" x="400" y="270">UNREGISTERED</text><text fill="#eeeeee" stroke="none" font-family="Arial" font-size="24px" font-style="normal" font-weight="normal" text-decoration="none" x="400" y="300">UNREGISTERED</text><text fill="#eeeeee" stroke="none" font-family="Arial" font-size="24px" font-style="normal" font-weight="normal" text-decoration="none" x="400" y="330">UNREGISTERED</text><text fill="#eeeeee" stroke="none" font-family="Arial" font-size="24px" font-style="normal" font-weight="normal" text-decoration="none" x="400" y="360">UNREGISTERED</text><g transform="translate(-442,-290) scale(1,1)"><path fill="#C0C0C0" stroke="none" d="M 661.46630859375 354 C 661.46630859375 338.812168 696.61195179375 326.5 739.96630859375 326.5 C 783.32066539375 326.5 818.46630859375 338.812168 818.46630859375 354 C 818.46630859375 369.187832 783.32066539375 381.5 739.96630859375 381.5 C 696.61195179375 381.5 661.46630859375 369.187832 661.46630859375 354 Z" opacity="0.2"/></g><g transform="translate(-442,-290) scale(1,1)"><path fill="#ffffff" stroke="none" d="M 654.46630859375 347 C 654.46630859375 331.812168 689.61195179375 319.5 732.96630859375 319.5 C 776.32066539375 319.5 811.46630859375 331.812168 811.46630859375 347 C 811.46630859375 362.187832 776.32066539375 374.5 732.96630859375 374.5 C 689.61195179375 374.5 654.46630859375 362.187832 654.46630859375 347 Z"/></g><g transform="translate(-442,-290) scale(1,1)"><path fill="none" stroke="#000000" d="M 654.46630859375 347 C 654.46630859375 331.812168 689.61195179375 319.5 732.96630859375 319.5 C 776.32066539375 319.5 811.46630859375 331.812168 811.46630859375 347 C 811.46630859375 362.187832 776.32066539375 374.5 732.96630859375 374.5 C 689.61195179375 374.5 654.46630859375 362.187832 654.46630859375 347 Z" stroke-miterlimit="10"/></g><g transform="translate(-442,-290) scale(1,1)"><g><path fill="none" stroke="none"/><text fill="#000000" stroke="none" font-family="Arial" font-size="13px" font-style="normal" font-weight="bold" text-decoration="none" x="693.591796875" y="346.5">UI UX Design</text></g></g><g transform="translate(-442,-290) scale(1,1)"><g><path fill="none" stroke="none"/><text fill="#000000" stroke="none" font-family="Arial" font-size="13px" font-style="normal" font-weight="normal" text-decoration="none" x="682.042236328125" y="361.5">(from Use Cases)</text></g></g><g transform="translate(-442,-290) scale(1,1)"><path fill="#C0C0C0" stroke="none" d="M 597.96630859375 494 C 597.96630859375 478.812168 661.54186699375 466.5 739.96630859375 466.5 C 818.39075019375 466.5 881.96630859375 478.812168 881.96630859375 494 C 881.96630859375 509.187832 818.39075019375 521.5 739.96630859375 521.5 C 661.54186699375 521.5 597.96630859375 509.187832 597.96630859375 494 Z" opacity="0.2"/></g><g transform="translate(-442,-290) scale(1,1)"><path fill="#ffffff" stroke="none" d="M 590.96630859375 487 C 590.96630859375 471.812168 654.54186699375 459.5 732.96630859375 459.5 C 811.39075019375 459.5 874.96630859375 471.812168 874.96630859375 487 C 874.96630859375 502.187832 811.39075019375 514.5 732.96630859375 514.5 C 654.54186699375 514.5 590.96630859375 502.187832 590.96630859375 487 Z"/></g><g transform="translate(-442,-290) scale(1,1)"><path fill="none" stroke="#000000" d="M 590.96630859375 487 C 590.96630859375 471.812168 654.54186699375 459.5 732.96630859375 459.5 C 811.39075019375 459.5 874.96630859375 471.812168 874.96630859375 487 C 874.96630859375 502.187832 811.39075019375 514.5 732.96630859375 514.5 C 654.54186699375 514.5 590.96630859375 502.187832 590.96630859375 487 Z" stroke-miterlimit="10"/></g><g transform="translate(-442,-290) scale(1,1)"><g><path fill="none" stroke="none"/><text fill="#000000" stroke="none" font-family="Arial" font-size="13px" font-style="normal" font-weight="bold" text-decoration="none" x="643.369140625" y="486.5">Fault-Tolerant Event Streaming</text></g></g><g transform="translate(-442,-290) scale(1,1)"><g><path fill="none" stroke="none"/><text fill="#000000" stroke="none" font-family="Arial" font-size="13px" font-style="normal" font-weight="normal" text-decoration="none" x="682.042236328125" y="501.5">(from Use Cases)</text></g></g><g transform="translate(-442,-290) scale(1,1)"><path fill="#C0C0C0" stroke="none" d="M 622.46630859375 612.5 C 622.46630859375 597.312168 675.07284459375 585 739.96630859375 585 C 804.85977259375 585 857.46630859375 597.312168 857.46630859375 612.5 C 857.46630859375 627.687832 804.85977259375 640 739.96630859375 640 C 675.07284459375 640 622.46630859375 627.687832 622.46630859375 612.5 Z" opacity="0.2"/></g><g transform="translate(-442,-290) scale(1,1)"><path fill="#ffffff" stroke="none" d="M 615.46630859375 605.5 C 615.46630859375 590.312168 668.07284459375 578 732.96630859375 578 C 797.85977259375 578 850.46630859375 590.312168 850.46630859375 605.5 C 850.46630859375 620.687832 797.85977259375 633 732.96630859375 633 C 668.07284459375 633 615.46630859375 620.687832 615.46630859375 605.5 Z"/></g><g transform="translate(-442,-290) scale(1,1)"><path fill="none" stroke="#000000" d="M 615.46630859375 605.5 C 615.46630859375 590.312168 668.07284459375 578 732.96630859375 578 C 797.85977259375 578 850.46630859375 590.312168 850.46630859375 605.5 C 850.46630859375 620.687832 797.85977259375 633 732.96630859375 633 C 668.07284459375 633 615.46630859375 620.687832 615.46630859375 605.5 Z" stroke-miterlimit="10"/></g><g transform="translate(-442,-290) scale(1,1)"><g><path fill="none" stroke="none"/><text fill="#000000" stroke="none" font-family="Arial" font-size="13px" font-style="normal" font-weight="bold" text-decoration="none" x="658.78125" y="605">Standardize Eye Tracking</text></g></g><g transform="translate(-442,-290) scale(1,1)"><g><path fill="none" stroke="none"/><text fill="#000000" stroke="none" font-family="Arial" font-size="13px" font-style="normal" font-weight="normal" text-decoration="none" x="682.042236328125" y="620">(from Use Cases)</text></g></g><g transform="translate(-442,-290) scale(1,1)"><path fill="#ffffff" stroke="none" d="M 497.30388156960225 434.68 C 497.30388156960225 429.886167936 501.18972389454774 426 505.983154296875 426 C 510.77658469920226 426 514.6624270241477 429.886167936 514.6624270241477 434.68 C 514.6624270241477 439.473832064 510.77658469920226 443.36 505.983154296875 443.36 C 501.18972389454774 443.36 497.30388156960225 439.473832064 497.30388156960225 434.68 Z"/></g><g transform="translate(-442,-290) scale(1,1)"><path fill="none" stroke="#000000" d="M 497.30388156960225 434.68 C 497.30388156960225 429.886167936 501.18972389454774 426 505.983154296875 426 C 510.77658469920226 426 514.6624270241477 429.886167936 514.6624270241477 434.68 C 514.6624270241477 439.473832064 510.77658469920226 443.36 505.983154296875 443.36 C 501.18972389454774 443.36 497.30388156960225 439.473832064 497.30388156960225 434.68 Z" stroke-miterlimit="10"/></g><g transform="translate(-442,-290) scale(1,1)"><path fill="none" stroke="#000000" d="M 505.983154296875 443.36 L 505.983154296875 460.64" stroke-miterlimit="10"/></g><g transform="translate(-442,-290) scale(1,1)"><path fill="none" stroke="#000000" d="M 496.79333611505683 449.84 L 515.1729724786932 449.84" stroke-miterlimit="10"/></g><g transform="translate(-442,-290) scale(1,1)"><path fill="none" stroke="#000000" d="M 505.983154296875 460.64 L 493.21951793323865 478" stroke-miterlimit="10"/></g><g transform="translate(-442,-290) scale(1,1)"><path fill="none" stroke="#000000" d="M 505.983154296875 460.64 L 518.7467906605114 478" stroke-miterlimit="10"/></g><g transform="translate(-442,-290) scale(1,1)"><g><path fill="none" stroke="none"/><text fill="#000000" stroke="none" font-family="Arial" font-size="13px" font-style="normal" font-weight="bold" text-decoration="none" x="474.1845703125" y="498.5">Application</text></g></g><g transform="translate(-442,-290) scale(1,1)"><g><path fill="none" stroke="none"/><text fill="#000000" stroke="none" font-family="Arial" font-size="13px" font-style="normal" font-weight="normal" text-decoration="none" x="468.42724609375" y="513.5">(from Actors)</text></g></g><g transform="translate(-442,-290) scale(1,1)"><path fill="none" stroke="#000000" d="M 527 424 Q 576 318 653 332" stroke-miterlimit="10"/></g><g transform="translate(-442,-290) scale(1,1)"><path fill="none" stroke="#000000" d="M 505 472 Q 549 473 562.5 473 Q 576 473 590 474" stroke-miterlimit="10"/></g><g transform="translate(-442,-290) scale(1,1)"><path fill="none" stroke="#000000" d="M 539 520 Q 539 520 557.5 547 Q 576 574 614 582" stroke-miterlimit="10"/></g><g transform="translate(-442,-290) scale(1,1)"><path fill="#ffffff" stroke="none" d="M 497.30388156960225 559.6800000000001 C 497.30388156960225 554.8861679360001 501.18972389454774 551 505.983154296875 551 C 510.77658469920226 551 514.6624270241477 554.8861679360001 514.6624270241477 559.6800000000001 C 514.6624270241477 564.473832064 510.77658469920226 568.36 505.983154296875 568.36 C 501.18972389454774 568.36 497.30388156960225 564.473832064 497.30388156960225 559.6800000000001 Z"/></g><g transform="translate(-442,-290) scale(1,1)"><path fill="none" stroke="#000000" d="M 497.30388156960225 559.6800000000001 C 497.30388156960225 554.8861679360001 501.18972389454774 551 505.983154296875 551 C 510.77658469920226 551 514.6624270241477 554.8861679360001 514.6624270241477 559.6800000000001 C 514.6624270241477 564.473832064 510.77658469920226 568.36 505.983154296875 568.36 C 501.18972389454774 568.36 497.30388156960225 564.473832064 497.30388156960225 559.6800000000001 Z" stroke-miterlimit="10"/></g><g transform="translate(-442,-290) scale(1,1)"><path fill="none" stroke="#000000" d="M 505.983154296875 568.36 L 505.983154296875 585.64" stroke-miterlimit="10"/></g><g transform="translate(-442,-290) scale(1,1)"><path fill="none" stroke="#000000" d="M 496.79333611505683 574.84 L 515.1729724786932 574.84" stroke-miterlimit="10"/></g><g transform="translate(-442,-290) scale(1,1)"><path fill="none" stroke="#000000" d="M 505.983154296875 585.64 L 493.21951793323865 603" stroke-miterlimit="10"/></g><g transform="translate(-442,-290) scale(1,1)"><path fill="none" stroke="#000000" d="M 505.983154296875 585.64 L 518.7467906605114 603" stroke-miterlimit="10"/></g><g transform="translate(-442,-290) scale(1,1)"><g><path fill="none" stroke="none"/><text fill="#000000" stroke="none" font-family="Arial" font-size="13px" font-style="normal" font-weight="bold" text-decoration="none" x="482.135009765625" y="623.5">Supplier</text></g></g><g transform="translate(-442,-290) scale(1,1)"><g><path fill="none" stroke="none"/><text fill="#000000" stroke="none" font-family="Arial" font-size="13px" font-style="normal" font-weight="normal" text-decoration="none" x="468.42724609375" y="638.5">(from Actors)</text></g></g><g transform="translate(-442,-290) scale(1,1)"><path fill="#ffffff" stroke="none" d="M 497.30388156960225 309.68 C 497.30388156960225 304.886167936 501.18972389454774 301 505.983154296875 301 C 510.77658469920226 301 514.6624270241477 304.886167936 514.6624270241477 309.68 C 514.6624270241477 314.473832064 510.77658469920226 318.36 505.983154296875 318.36 C 501.18972389454774 318.36 497.30388156960225 314.473832064 497.30388156960225 309.68 Z"/></g><g transform="translate(-442,-290) scale(1,1)"><path fill="none" stroke="#000000" d="M 497.30388156960225 309.68 C 497.30388156960225 304.886167936 501.18972389454774 301 505.983154296875 301 C 510.77658469920226 301 514.6624270241477 304.886167936 514.6624270241477 309.68 C 514.6624270241477 314.473832064 510.77658469920226 318.36 505.983154296875 318.36 C 501.18972389454774 318.36 497.30388156960225 314.473832064 497.30388156960225 309.68 Z" stroke-miterlimit="10"/></g><g transform="translate(-442,-290) scale(1,1)"><path fill="none" stroke="#000000" d="M 505.983154296875 318.36 L 505.983154296875 335.64" stroke-miterlimit="10"/></g><g transform="translate(-442,-290) scale(1,1)"><path fill="none" stroke="#000000" d="M 496.79333611505683 324.84 L 515.1729724786932 324.84" stroke-miterlimit="10"/></g><g transform="translate(-442,-290) scale(1,1)"><path fill="none" stroke="#000000" d="M 505.983154296875 335.64 L 493.21951793323865 353" stroke-miterlimit="10"/></g><g transform="translate(-442,-290) scale(1,1)"><path fill="none" stroke="#000000" d="M 505.983154296875 335.64 L 518.7467906605114 353" stroke-miterlimit="10"/></g><g transform="translate(-442,-290) scale(1,1)"><g><path fill="none" stroke="none"/><text fill="#000000" stroke="none" font-family="Arial" font-size="13px" font-style="normal" font-weight="bold" text-decoration="none" x="460.70849609375" y="373.5">Trusted Advisor</text></g></g><g transform="translate(-442,-290) scale(1,1)"><g><path fill="none" stroke="none"/><text fill="#000000" stroke="none" font-family="Arial" font-size="13px" font-style="normal" font-weight="normal" text-decoration="none" x="468.42724609375" y="388.5">(from Actors)</text></g></g><g transform="translate(-442,-290) scale(1,1)"><path fill="none" stroke="#000000" d="M 561 348 Q 561 348 568.5 348 Q 576 348 653 348" stroke-miterlimit="10"/></g><g transform="translate(-442,-290) scale(1,1)"><path fill="none" stroke="#000000" d="M 505 597 Q 549 612 562.5 616.5 Q 576 621 614 617" stroke-miterlimit="10"/></g><g transform="translate(-442,-290) scale(1,1)"><path fill="none" stroke="#000000" d="M 505 597 Q 549 564 562.5 554 Q 576 544 654 516" stroke-miterlimit="10"/></g></g></svg>