<svg version="1.1" xmlns="http://www.w3.org/2000/svg" xmlns:xlink="http://www.w3.org/1999/xlink" width="1324" height="611"><defs/><g><text fill="#eeeeee" stroke="none" font-family="Arial" font-size="24px" font-style="normal" font-weight="normal" text-decoration="none" x="0" y="0">UNREGISTERED</text><text fill="#eeeeee" stroke="none" font-family="Arial" font-size="24px" font-style="normal" font-weight="normal" text-decoration="none" x="0" y="30">UNREGISTERED</text><text fill="#eeeeee" stroke="none" font-family="Arial" font-size="24px" font-style="normal" font-weight="normal" text-decoration="none" x="0" y="60">UNREGISTERED</text><text fill="#eeeeee" stroke="none" font-family="Arial" font-size="24px" font-style="normal" font-weight="normal" text-decoration="none" x="0" y="90">UNREGISTERED</text><text fill="#eeeeee" stroke="none" font-family="Arial" font-size="24px" font-style="normal" font-weight="normal" text-decoration="none" x="0" y="120">UNREGISTERED</text><text fill="#eeeeee" stroke="none" font-family="Arial" font-size="24px" font-style="normal" font-weight="normal" text-decoration="none" x="0" y="150">UNREGISTERED</text><text fill="#eeeeee" stroke="none" font-family="Arial" font-size="24px" font-style="normal" font-weight="normal" text-decoration="none" x="0" y="180">UNREGISTERED</text><text fill="#eeeeee" stroke="none" font-family="Arial" font-size="24px" font-style="normal" font-weight="normal" text-decoration="none" x="0" y="210">UNREGISTERED</text><text fill="#eeeeee" stroke="none" font-family="Arial" font-size="24px" font-style="normal" font-weight="normal" text-decoration="none" x="0" y="240">UNREGISTERED</text><text fill="#eeeeee" stroke="none" font-family="Arial" font-size="24px" font-style="normal" font-weight="normal" text-decoration="none" x="0" y="270">UNREGISTERED</text><text fill="#eeeeee" stroke="none" font-family="Arial" font-size="24px" font-style="normal" font-weight="normal" text-decoration="none" x="0" y="300">UNREGISTERED</text><text fill="#eeeeee" stroke="none" font-family="Arial" font-size="24px" font-style="normal" font-weight="normal" text-decoration="none" x="0" y="330">UNREGISTERED</text><text fill="#eeeeee" stroke="none" font-family="Arial" font-size="24px" font-style="normal" font-weight="normal" text-decoration="none" x="0" y="360">UNREGISTERED</text><text fill="#eeeeee" stroke="none" font-family="Arial" font-size="24px" font-style="normal" font-weight="normal" text-decoration="none" x="0" y="390">UNREGISTERED</text><text fill="#eeeeee" stroke="none" font-family="Arial" font-size="24px" font-style="normal" font-weight="normal" text-decoration="none" x="0" y="420">UNREGISTERED</text><text fill="#eeeeee" stroke="none" font-family="Arial" font-size="24px" font-style="normal" font-weight="normal" text-decoration="none" x="0" y="450">UNREGISTERED</text><text fill="#eeeeee" stroke="none" font-family="Arial" font-size="24px" font-style="normal" font-weight="normal" text-decoration="none" x="0" y="480">UNREGISTERED</text><text fill="#eeeeee" stroke="none" font-family="Arial" font-size="24px" font-style="normal" font-weight="normal" text-decoration="none" x="0" y="510">UNREGISTERED</text><text fill="#eeeeee" stroke="none" font-family="Arial" font-size="24px" font-style="normal" font-weight="normal" text-decoration="none" x="0" y="540">UNREGISTERED</text><text fill="#eeeeee" stroke="none" font-family="Arial" font-size="24px" font-style="normal" font-weight="normal" text-decoration="none" x="0" y="570">UNREGISTERED</text><text fill="#eeeeee" stroke="none" font-family="Arial" font-size="24px" font-style="normal" font-weight="normal" text-decoration="none" x="0" y="600">UNREGISTERED</text><text fill="#eeeeee" stroke="none" font-family="Arial" font-size="24px" font-style="normal" font-weight="normal" text-decoration="none" x="200" y="0">UNREGISTERED</text><text fill="#eeeeee" stroke="none" font-family="Arial" font-size="24px" font-style="normal" font-weight="normal" text-decoration="none" x="200" y="30">UNREGISTERED</text><text fill="#eeeeee" stroke="none" font-family="Arial" font-size="24px" font-style="normal" font-weight="normal" text-decoration="none" x="200" y="60">UNREGISTERED</text><text fill="#eeeeee" stroke="none" font-family="Arial" font-size="24px" font-style="normal" font-weight="normal" text-decoration="none" x="200" y="90">UNREGISTERED</text><text fill="#eeeeee" stroke="none" font-family="Arial" font-size="24px" font-style="normal" font-weight="normal" text-decoration="none" x="200" y="120">UNREGISTERED</text><text fill="#eeeeee" stroke="none" font-family="Arial" font-size="24px" font-style="normal" font-weight="normal" text-decoration="none" x="200" y="150">UNREGISTERED</text><text fill="#eeeeee" stroke="none" font-family="Arial" font-size="24px" font-style="normal" font-weight="normal" text-decoration="none" x="200" y="180">UNREGISTERED</text><text fill="#eeeeee" stroke="none" font-family="Arial" font-size="24px" font-style="normal" font-weight="normal" text-decoration="none" x="200" y="210">UNREGISTERED</text><text fill="#eeeeee" stroke="none" font-family="Arial" font-size="24px" font-style="normal" font-weight="normal" text-decoration="none" x="200" y="240">UNREGISTERED</text><text fill="#eeeeee" stroke="none" font-family="Arial" font-size="24px" font-style="normal" font-weight="normal" text-decoration="none" x="200" y="270">UNREGISTERED</text><text fill="#eeeeee" stroke="none" font-family="Arial" font-size="24px" font-style="normal" font-weight="normal" text-decoration="none" x="200" y="300">UNREGISTERED</text><text fill="#eeeeee" stroke="none" font-family="Arial" font-size="24px" font-style="normal" font-weight="normal" text-decoration="none" x="200" y="330">UNREGISTERED</text><text fill="#eeeeee" stroke="none" font-family="Arial" font-size="24px" font-style="normal" font-weight="normal" text-decoration="none" x="200" y="360">UNREGISTERED</text><text fill="#eeeeee" stroke="none" font-family="Arial" font-size="24px" font-style="normal" font-weight="normal" text-decoration="none" x="200" y="390">UNREGISTERED</text><text fill="#eeeeee" stroke="none" font-family="Arial" font-size="24px" font-style="normal" font-weight="normal" text-decoration="none" x="200" y="420">UNREGISTERED</text><text fill="#eeeeee" stroke="none" font-family="Arial" font-size="24px" font-style="normal" font-weight="normal" text-decoration="none" x="200" y="450">UNREGISTERED</text><text fill="#eeeeee" stroke="none" font-family="Arial" font-size="24px" font-style="normal" font-weight="normal" text-decoration="none" x="200" y="480">UNREGISTERED</text><text fill="#eeeeee" stroke="none" font-family="Arial" font-size="24px" font-style="normal" font-weight="normal" text-decoration="none" x="200" y="510">UNREGISTERED</text><text fill="#eeeeee" stroke="none" font-family="Arial" font-size="24px" font-style="normal" font-weight="normal" text-decoration="none" x="200" y="540">UNREGISTERED</text><text fill="#eeeeee" stroke="none" font-family="Arial" font-size="24px" font-style="normal" font-weight="normal" text-decoration="none" x="200" y="570">UNREGISTERED</text><text fill="#eeeeee" stroke="none" font-family="Arial" font-size="24px" font-style="normal" font-weight="normal" text-decoration="none" x="200" y="600">UNREGISTERED</text><text fill="#eeeeee" stroke="none" font-family="Arial" font-size="24px" font-style="normal" font-weight="normal" text-decoration="none" x="400" y="0">UNREGISTERED</text><text fill="#eeeeee" stroke="none" font-family="Arial" font-size="24px" font-style="normal" font-weight="normal" text-decoration="none" x="400" y="30">UNREGISTERED</text><text fill="#eeeeee" stroke="none" font-family="Arial" font-size="24px" font-style="normal" font-weight="normal" text-decoration="none" x="400" y="60">UNREGISTERED</text><text fill="#eeeeee" stroke="none" font-family="Arial" font-size="24px" font-style="normal" font-weight="normal" text-decoration="none" x="400" y="90">UNREGISTERED</text><text fill="#eeeeee" stroke="none" font-family="Arial" font-size="24px" font-style="normal" font-weight="normal" text-decoration="none" x="400" y="120">UNREGISTERED</text><text fill="#eeeeee" stroke="none" font-family="Arial" font-size="24px" font-style="normal" font-weight="normal" text-decoration="none" x="400" y="150">UNREGISTERED</text><text fill="#eeeeee" stroke="none" font-family="Arial" font-size="24px" font-style="normal" font-weight="normal" text-decoration="none" x="400" y="180">UNREGISTERED</text><text fill="#eeeeee" stroke="none" font-family="Arial" font-size="24px" font-style="normal" font-weight="normal" text-decoration="none" x="400" y="210">UNREGISTERED</text><text fill="#eeeeee" stroke="none" font-family="Arial" font-size="24px" font-style="normal" font-weight="normal" text-decoration="none" x="400" y="240">UNREGISTERED</text><text fill="#eeeeee" stroke="none" font-family="Arial" font-size="24px" font-style="normal" font-weight="normal" text-decoration="none" x="400" y="270">UNREGISTERED</text><text fill="#eeeeee" stroke="none" font-family="Arial" font-size="24px" font-style="normal" font-weight="normal" text-decoration="none" x="400" y="300">UNREGISTERED</text><text fill="#eeeeee" stroke="none" font-family="Arial" font-size="24px" font-style="normal" font-weight="normal" text-decoration="none" x="400" y="330">UNREGISTERED</text><text fill="#eeeeee" stroke="none" font-family="Arial" font-size="24px" font-style="normal" font-weight="normal" text-decoration="none" x="400" y="360">UNREGISTERED</text><text fill="#eeeeee" stroke="none" font-family="Arial" font-size="24px" font-style="normal" font-weight="normal" text-decoration="none" x="400" y="390">UNREGISTERED</text><text fill="#eeeeee" stroke="none" font-family="Arial" font-size="24px" font-style="normal" font-weight="normal" text-decoration="none" x="400" y="420">UNREGISTERED</text><text fill="#eeeeee" stroke="none" font-family="Arial" font-size="24px" font-style="normal" font-weight="normal" text-decoration="none" x="400" y="450">UNREGISTERED</text><text fill="#eeeeee" stroke="none" font-family="Arial" font-size="24px" font-style="normal" font-weight="normal" text-decoration="none" x="400" y="480">UNREGISTERED</text><text fill="#eeeeee" stroke="none" font-family="Arial" font-size="24px" font-style="normal" font-weight="normal" text-decoration="none" x="400" y="510">UNREGISTERED</text><text fill="#eeeeee" stroke="none" font-family="Arial" font-size="24px" font-style="normal" font-weight="normal" text-decoration="none" x="400" y="540">UNREGISTERED</text><text fill="#eeeeee" stroke="none" font-family="Arial" font-size="24px" font-style="normal" font-weight="normal" text-decoration="none" x="400" y="570">UNREGISTERED</text><text fill="#eeeeee" stroke="none" font-family="Arial" font-size="24px" font-style="normal" font-weight="normal" text-decoration="none" x="400" y="600">UNREGISTERED</text><text fill="#eeeeee" stroke="none" font-family="Arial" font-size="24px" font-style="normal" font-weight="normal" text-decoration="none" x="600" y="0">UNREGISTERED</text><text fill="#eeeeee" stroke="none" font-family="Arial" font-size="24px" font-style="normal" font-weight="normal" text-decoration="none" x="600" y="30">UNREGISTERED</text><text fill="#eeeeee" stroke="none" font-family="Arial" font-size="24px" font-style="normal" font-weight="normal" text-decoration="none" x="600" y="60">UNREGISTERED</text><text fill="#eeeeee" stroke="none" font-family="Arial" font-size="24px" font-style="normal" font-weight="normal" text-decoration="none" x="600" y="90">UNREGISTERED</text><text fill="#eeeeee" stroke="none" font-family="Arial" font-size="24px" font-style="normal" font-weight="normal" text-decoration="none" x="600" y="120">UNREGISTERED</text><text fill="#eeeeee" stroke="none" font-family="Arial" font-size="24px" font-style="normal" font-weight="normal" text-decoration="none" x="600" y="150">UNREGISTERED</text><text fill="#eeeeee" stroke="none" font-family="Arial" font-size="24px" font-style="normal" font-weight="normal" text-decoration="none" x="600" y="180">UNREGISTERED</text><text fill="#eeeeee" stroke="none" font-family="Arial" font-size="24px" font-style="normal" font-weight="normal" text-decoration="none" x="600" y="210">UNREGISTERED</text><text fill="#eeeeee" stroke="none" font-family="Arial" font-size="24px" font-style="normal" font-weight="normal" text-decoration="none" x="600" y="240">UNREGISTERED</text><text fill="#eeeeee" stroke="none" font-family="Arial" font-size="24px" font-style="normal" font-weight="normal" text-decoration="none" x="600" y="270">UNREGISTERED</text><text fill="#eeeeee" stroke="none" font-family="Arial" font-size="24px" font-style="normal" font-weight="normal" text-decoration="none" x="600" y="300">UNREGISTERED</text><text fill="#eeeeee" stroke="none" font-family="Arial" font-size="24px" font-style="normal" font-weight="normal" text-decoration="none" x="600" y="330">UNREGISTERED</text><text fill="#eeeeee" stroke="none" font-family="Arial" font-size="24px" font-style="normal" font-weight="normal" text-decoration="none" x="600" y="360">UNREGISTERED</text><text fill="#eeeeee" stroke="none" font-family="Arial" font-size="24px" font-style="normal" font-weight="normal" text-decoration="none" x="600" y="390">UNREGISTERED</text><text fill="#eeeeee" stroke="none" font-family="Arial" font-size="24px" font-style="normal" font-weight="normal" text-decoration="none" x="600" y="420">UNREGISTERED</text><text fill="#eeeeee" stroke="none" font-family="Arial" font-size="24px" font-style="normal" font-weight="normal" text-decoration="none" x="600" y="450">UNREGISTERED</text><text fill="#eeeeee" stroke="none" font-family="Arial" font-size="24px" font-style="normal" font-weight="normal" text-decoration="none" x="600" y="480">UNREGISTERED</text><text fill="#eeeeee" stroke="none" font-family="Arial" font-size="24px" font-style="normal" font-weight="normal" text-decoration="none" x="600" y="510">UNREGISTERED</text><text fill="#eeeeee" stroke="none" font-family="Arial" font-size="24px" font-style="normal" font-weight="normal" text-decoration="none" x="600" y="540">UNREGISTERED</text><text fill="#eeeeee" stroke="none" font-family="Arial" font-size="24px" font-style="normal" font-weight="normal" text-decoration="none" x="600" y="570">UNREGISTERED</text><text fill="#eeeeee" stroke="none" font-family="Arial" font-size="24px" font-style="normal" font-weight="normal" text-decoration="none" x="600" y="600">UNREGISTERED</text><text fill="#eeeeee" stroke="none" font-family="Arial" font-size="24px" font-style="normal" font-weight="normal" text-decoration="none" x="800" y="0">UNREGISTERED</text><text fill="#eeeeee" stroke="none" font-family="Arial" font-size="24px" font-style="normal" font-weight="normal" text-decoration="none" x="800" y="30">UNREGISTERED</text><text fill="#eeeeee" stroke="none" font-family="Arial" font-size="24px" font-style="normal" font-weight="normal" text-decoration="none" x="800" y="60">UNREGISTERED</text><text fill="#eeeeee" stroke="none" font-family="Arial" font-size="24px" font-style="normal" font-weight="normal" text-decoration="none" x="800" y="90">UNREGISTERED</text><text fill="#eeeeee" stroke="none" font-family="Arial" font-size="24px" font-style="normal" font-weight="normal" text-decoration="none" x="800" y="120">UNREGISTERED</text><text fill="#eeeeee" stroke="none" font-family="Arial" font-size="24px" font-style="normal" font-weight="normal" text-decoration="none" x="800" y="150">UNREGISTERED</text><text fill="#eeeeee" stroke="none" font-family="Arial" font-size="24px" font-style="normal" font-weight="normal" text-decoration="none" x="800" y="180">UNREGISTERED</text><text fill="#eeeeee" stroke="none" font-family="Arial" font-size="24px" font-style="normal" font-weight="normal" text-decoration="none" x="800" y="210">UNREGISTERED</text><text fill="#eeeeee" stroke="none" font-family="Arial" font-size="24px" font-style="normal" font-weight="normal" text-decoration="none" x="800" y="240">UNREGISTERED</text><text fill="#eeeeee" stroke="none" font-family="Arial" font-size="24px" font-style="normal" font-weight="normal" text-decoration="none" x="800" y="270">UNREGISTERED</text><text fill="#eeeeee" stroke="none" font-family="Arial" font-size="24px" font-style="normal" font-weight="normal" text-decoration="none" x="800" y="300">UNREGISTERED</text><text fill="#eeeeee" stroke="none" font-family="Arial" font-size="24px" font-style="normal" font-weight="normal" text-decoration="none" x="800" y="330">UNREGISTERED</text><text fill="#eeeeee" stroke="none" font-family="Arial" font-size="24px" font-style="normal" font-weight="normal" text-decoration="none" x="800" y="360">UNREGISTERED</text><text fill="#eeeeee" stroke="none" font-family="Arial" font-size="24px" font-style="normal" font-weight="normal" text-decoration="none" x="800" y="390">UNREGISTERED</text><text fill="#eeeeee" stroke="none" font-family="Arial" font-size="24px" font-style="normal" font-weight="normal" text-decoration="none" x="800" y="420">UNREGISTERED</text><text fill="#eeeeee" stroke="none" font-family="Arial" font-size="24px" font-style="normal" font-weight="normal" text-decoration="none" x="800" y="450">UNREGISTERED</text><text fill="#eeeeee" stroke="none" font-family="Arial" font-size="24px" font-style="normal" font-weight="normal" text-decoration="none" x="800" y="480">UNREGISTERED</text><text fill="#eeeeee" stroke="none" font-family="Arial" font-size="24px" font-style="normal" font-weight="normal" text-decoration="none" x="800" y="510">UNREGISTERED</text><text fill="#eeeeee" stroke="none" font-family="Arial" font-size="24px" font-style="normal" font-weight="normal" text-decoration="none" x="800" y="540">UNREGISTERED</text><text fill="#eeeeee" stroke="none" font-family="Arial" font-size="24px" font-style="normal" font-weight="normal" text-decoration="none" x="800" y="570">UNREGISTERED</text><text fill="#eeeeee" stroke="none" font-family="Arial" font-size="24px" font-style="normal" font-weight="normal" text-decoration="none" x="800" y="600">UNREGISTERED</text><text fill="#eeeeee" stroke="none" font-family="Arial" font-size="24px" font-style="normal" font-weight="normal" text-decoration="none" x="1000" y="0">UNREGISTERED</text><text fill="#eeeeee" stroke="none" font-family="Arial" font-size="24px" font-style="normal" font-weight="normal" text-decoration="none" x="1000" y="30">UNREGISTERED</text><text fill="#eeeeee" stroke="none" font-family="Arial" font-size="24px" font-style="normal" font-weight="normal" text-decoration="none" x="1000" y="60">UNREGISTERED</text><text fill="#eeeeee" stroke="none" font-family="Arial" font-size="24px" font-style="normal" font-weight="normal" text-decoration="none" x="1000" y="90">UNREGISTERED</text><text fill="#eeeeee" stroke="none" font-family="Arial" font-size="24px" font-style="normal" font-weight="normal" text-decoration="none" x="1000" y="120">UNREGISTERED</text><text fill="#eeeeee" stroke="none" font-family="Arial" font-size="24px" font-style="normal" font-weight="normal" text-decoration="none" x="1000" y="150">UNREGISTERED</text><text fill="#eeeeee" stroke="none" font-family="Arial" font-size="24px" font-style="normal" font-weight="normal" text-decoration="none" x="1000" y="180">UNREGISTERED</text><text fill="#eeeeee" stroke="none" font-family="Arial" font-size="24px" font-style="normal" font-weight="normal" text-decoration="none" x="1000" y="210">UNREGISTERED</text><text fill="#eeeeee" stroke="none" font-family="Arial" font-size="24px" font-style="normal" font-weight="normal" text-decoration="none" x="1000" y="240">UNREGISTERED</text><text fill="#eeeeee" stroke="none" font-family="Arial" font-size="24px" font-style="normal" font-weight="normal" text-decoration="none" x="1000" y="270">UNREGISTERED</text><text fill="#eeeeee" stroke="none" font-family="Arial" font-size="24px" font-style="normal" font-weight="normal" text-decoration="none" x="1000" y="300">UNREGISTERED</text><text fill="#eeeeee" stroke="none" font-family="Arial" font-size="24px" font-style="normal" font-weight="normal" text-decoration="none" x="1000" y="330">UNREGISTERED</text><text fill="#eeeeee" stroke="none" font-family="Arial" font-size="24px" font-style="normal" font-weight="normal" text-decoration="none" x="1000" y="360">UNREGISTERED</text><text fill="#eeeeee" stroke="none" font-family="Arial" font-size="24px" font-style="normal" font-weight="normal" text-decoration="none" x="1000" y="390">UNREGISTERED</text><text fill="#eeeeee" stroke="none" font-family="Arial" font-size="24px" font-style="normal" font-weight="normal" text-decoration="none" x="1000" y="420">UNREGISTERED</text><text fill="#eeeeee" stroke="none" font-family="Arial" font-size="24px" font-style="normal" font-weight="normal" text-decoration="none" x="1000" y="450">UNREGISTERED</text><text fill="#eeeeee" stroke="none" font-family="Arial" font-size="24px" font-style="normal" font-weight="normal" text-decoration="none" x="1000" y="480">UNREGISTERED</text><text fill="#eeeeee" stroke="none" font-family="Arial" font-size="24px" font-style="normal" font-weight="normal" text-decoration="none" x="1000" y="510">UNREGISTERED</text><text fill="#eeeeee" stroke="none" font-family="Arial" font-size="24px" font-style="normal" font-weight="normal" text-decoration="none" x="1000" y="540">UNREGISTERED</text><text fill="#eeeeee" stroke="none" font-family="Arial" font-size="24px" font-style="normal" font-weight="normal" text-decoration="none" x="1000" y="570">UNREGISTERED</text><text fill="#eeeeee" stroke="none" font-family="Arial" font-size="24px" font-style="normal" font-weight="normal" text-decoration="none" x="1000" y="600">UNREGISTERED</text><text fill="#eeeeee" stroke="none" font-family="Arial" font-size="24px" font-style="normal" font-weight="normal" text-decoration="none" x="1200" y="0">UNREGISTERED</text><text fill="#eeeeee" stroke="none" font-family="Arial" font-size="24px" font-style="normal" font-weight="normal" text-decoration="none" x="1200" y="30">UNREGISTERED</text><text fill="#eeeeee" stroke="none" font-family="Arial" font-size="24px" font-style="normal" font-weight="normal" text-decoration="none" x="1200" y="60">UNREGISTERED</text><text fill="#eeeeee" stroke="none" font-family="Arial" font-size="24px" font-style="normal" font-weight="normal" text-decoration="none" x="1200" y="90">UNREGISTERED</text><text fill="#eeeeee" stroke="none" font-family="Arial" font-size="24px" font-style="normal" font-weight="normal" text-decoration="none" x="1200" y="120">UNREGISTERED</text><text fill="#eeeeee" stroke="none" font-family="Arial" font-size="24px" font-style="normal" font-weight="normal" text-decoration="none" x="1200" y="150">UNREGISTERED</text><text fill="#eeeeee" stroke="none" font-family="Arial" font-size="24px" font-style="normal" font-weight="normal" text-decoration="none" x="1200" y="180">UNREGISTERED</text><text fill="#eeeeee" stroke="none" font-family="Arial" font-size="24px" font-style="normal" font-weight="normal" text-decoration="none" x="1200" y="210">UNREGISTERED</text><text fill="#eeeeee" stroke="none" font-family="Arial" font-size="24px" font-style="normal" font-weight="normal" text-decoration="none" x="1200" y="240">UNREGISTERED</text><text fill="#eeeeee" stroke="none" font-family="Arial" font-size="24px" font-style="normal" font-weight="normal" text-decoration="none" x="1200" y="270">UNREGISTERED</text><text fill="#eeeeee" stroke="none" font-family="Arial" font-size="24px" font-style="normal" font-weight="normal" text-decoration="none" x="1200" y="300">UNREGISTERED</text><text fill="#eeeeee" stroke="none" font-family="Arial" font-size="24px" font-style="normal" font-weight="normal" text-decoration="none" x="1200" y="330">UNREGISTERED</text><text fill="#eeeeee" stroke="none" font-family="Arial" font-size="24px" font-style="normal" font-weight="normal" text-decoration="none" x="1200" y="360">UNREGISTERED</text><text fill="#eeeeee" stroke="none" font-family="Arial" font-size="24px" font-style="normal" font-weight="normal" text-decoration="none" x="1200" y="390">UNREGISTERED</text><text fill="#eeeeee" stroke="none" font-family="Arial" font-size="24px" font-style="normal" font-weight="normal" text-decoration="none" x="1200" y="420">UNREGISTERED</text><text fill="#eeeeee" stroke="none" font-family="Arial" font-size="24px" font-style="normal" font-weight="normal" text-decoration="none" x="1200" y="450">UNREGISTERED</text><text fill="#eeeeee" stroke="none" font-family="Arial" font-size="24px" font-style="normal" font-weight="normal" text-decoration="none" x="1200" y="480">UNREGISTERED</text><text fill="#eeeeee" stroke="none" font-family="Arial" font-size="24px" font-style="normal" font-weight="normal" text-decoration="none" x="1200" y="510">UNREGISTERED</text><text fill="#eeeeee" stroke="none" font-family="Arial" font-size="24px" font-style="normal" font-weight="normal" text-decoration="none" x="1200" y="540">UNREGISTERED</text><text fill="#eeeeee" stroke="none" font-family="Arial" font-size="24px" font-style="normal" font-weight="normal" text-decoration="none" x="1200" y="570">UNREGISTERED</text><text fill="#eeeeee" stroke="none" font-family="Arial" font-size="24px" font-style="normal" font-weight="normal" text-decoration="none" x="1200" y="600">UNREGISTERED</text><g transform="translate(-6,2) scale(1,1)"><path fill="none" stroke="#000000" d="M 16 8 L 1320 8 L 1320 599 L 16 599 L 16 8" stroke-miterlimit="10"/></g><g transform="translate(-6,2) scale(1,1)"><path fill="#ffffff" stroke="none" d="M 16 8 L 16 30 L 107.87353515625 30 L 118.87353515625 19 L 118.87353515625 8 L 16 8"/></g><g transform="translate(-6,2) scale(1,1)"><path fill="none" stroke="#000000" d="M 16 8 L 16 30 L 107.87353515625 30 L 118.87353515625 19 L 118.87353515625 8 L 16 8 L 16 8" stroke-miterlimit="10"/></g><g transform="translate(-6,2) scale(1,1)"><g><path fill="none" stroke="none"/><text fill="#000000" stroke="none" font-family="Arial" font-size="13px" font-style="normal" font-weight="normal" text-decoration="none" x="40.72998046875" y="25.5">AutoNavAI</text></g></g><g transform="translate(-6,2) scale(1,1)"><g><path fill="none" stroke="none"/><text fill="#000000" stroke="none" font-family="Arial" font-size="13px" font-style="normal" font-weight="bold" text-decoration="none" x="21" y="25.5">sd</text></g></g><g transform="translate(-6,2) scale(1,1)"><rect fill="#C0C0C0" stroke="none" x="343" y="47" width="320.72314453125" height="39" opacity="0.2"/></g><g transform="translate(-6,2) scale(1,1)"><rect fill="#ffffff" stroke="none" x="336" y="40" width="320.72314453125" height="39"/></g><g transform="translate(-6,2) scale(1,1)"><path fill="none" stroke="#000000" d="M 336 40 L 656.72314453125 40 L 656.72314453125 79 L 336 79 L 336 40 Z Z" stroke-miterlimit="10"/></g><g transform="translate(-6,2) scale(1,1)"><g><path fill="none" stroke="none"/><text fill="#000000" stroke="none" font-family="Arial" font-size="13px" font-style="normal" font-weight="bold" text-decoration="none" x="353.18701171875" y="59.5">Chair MQ: Distributed Real Time Message Queue</text></g></g><g transform="translate(-6,2) scale(1,1)"><path fill="none" stroke="#000000" d="M 497.5 80 L 497.5 504" stroke-miterlimit="10" stroke-dasharray="3"/></g><g transform="translate(-6,2) scale(1,1)"><path fill="#ffffff" stroke="none" d="M 246.6817489346591 47.3 C 246.6817489346591 43.82060576 249.56015065684096 41 253.11083984375006 41 C 256.66152903065915 41 259.539930752841 43.82060576 259.539930752841 47.3 C 259.539930752841 50.779394239999995 256.66152903065915 53.6 253.11083984375006 53.6 C 249.56015065684096 53.6 246.6817489346591 50.779394239999995 246.6817489346591 47.3 Z"/></g><g transform="translate(-6,2) scale(1,1)"><path fill="none" stroke="#000000" d="M 246.6817489346591 47.3 C 246.6817489346591 43.82060576 249.56015065684096 41 253.11083984375006 41 C 256.66152903065915 41 259.539930752841 43.82060576 259.539930752841 47.3 C 259.539930752841 50.779394239999995 256.66152903065915 53.6 253.11083984375006 53.6 C 249.56015065684096 53.6 246.6817489346591 50.779394239999995 246.6817489346591 47.3 Z" stroke-miterlimit="10"/></g><g transform="translate(-6,2) scale(1,1)"><path fill="none" stroke="#000000" d="M 253.11083984375003 53.6 L 253.11083984375003 66.4" stroke-miterlimit="10"/></g><g transform="translate(-6,2) scale(1,1)"><path fill="none" stroke="#000000" d="M 246.3035671164773 58.4 L 259.9181125710228 58.4" stroke-miterlimit="10"/></g><g transform="translate(-6,2) scale(1,1)"><path fill="none" stroke="#000000" d="M 253.11083984375003 66.4 L 243.65629438920456 79" stroke-miterlimit="10"/></g><g transform="translate(-6,2) scale(1,1)"><path fill="none" stroke="#000000" d="M 253.11083984375003 66.4 L 262.5653852982955 79" stroke-miterlimit="10"/></g><g transform="translate(-6,2) scale(1,1)"><g><path fill="none" stroke="none"/><text fill="#000000" stroke="none" font-family="Arial" font-size="13px" font-style="normal" font-weight="bold" text-decoration="none" x="185.200439453125" y="99.5">Nav App: Micro Service</text></g></g><g transform="translate(-6,2) scale(1,1)"><path fill="none" stroke="#000000" d="M 254.5 105 L 254.5 504" stroke-miterlimit="10" stroke-dasharray="3"/></g><g transform="translate(-6,2) scale(1,1)"><path fill="#ffffff" stroke="none" d="M 76.6690536221591 47.3 C 76.6690536221591 43.82060576 79.54745534434092 41 83.09814453125 41 C 86.64883371815908 41 89.5272354403409 43.82060576 89.5272354403409 47.3 C 89.5272354403409 50.779394239999995 86.64883371815908 53.6 83.09814453125 53.6 C 79.54745534434092 53.6 76.6690536221591 50.779394239999995 76.6690536221591 47.3 Z"/></g><g transform="translate(-6,2) scale(1,1)"><path fill="none" stroke="#000000" d="M 76.6690536221591 47.3 C 76.6690536221591 43.82060576 79.54745534434092 41 83.09814453125 41 C 86.64883371815908 41 89.5272354403409 43.82060576 89.5272354403409 47.3 C 89.5272354403409 50.779394239999995 86.64883371815908 53.6 83.09814453125 53.6 C 79.54745534434092 53.6 76.6690536221591 50.779394239999995 76.6690536221591 47.3 Z" stroke-miterlimit="10"/></g><g transform="translate(-6,2) scale(1,1)"><path fill="none" stroke="#000000" d="M 83.09814453125 53.6 L 83.09814453125 66.4" stroke-miterlimit="10"/></g><g transform="translate(-6,2) scale(1,1)"><path fill="none" stroke="#000000" d="M 76.29087180397727 58.4 L 89.90541725852273 58.4" stroke-miterlimit="10"/></g><g transform="translate(-6,2) scale(1,1)"><path fill="none" stroke="#000000" d="M 83.09814453125 66.4 L 73.64359907670455 79" stroke-miterlimit="10"/></g><g transform="translate(-6,2) scale(1,1)"><path fill="none" stroke="#000000" d="M 83.09814453125 66.4 L 92.55268998579545 79" stroke-miterlimit="10"/></g><g transform="translate(-6,2) scale(1,1)"><g><path fill="none" stroke="none"/><text fill="#000000" stroke="none" font-family="Arial" font-size="13px" font-style="normal" font-weight="bold" text-decoration="none" x="48.41455078125" y="99.5">Peter: Peter</text></g></g><g transform="translate(-6,2) scale(1,1)"><path fill="none" stroke="#000000" d="M 84.5 105 L 84.5 504" stroke-miterlimit="10" stroke-dasharray="3"/></g><g transform="translate(-6,2) scale(1,1)"><rect fill="#C0C0C0" stroke="none" x="815" y="47" width="157.70263671875" height="39" opacity="0.2"/></g><g transform="translate(-6,2) scale(1,1)"><rect fill="#ffffff" stroke="none" x="808" y="40" width="157.70263671875" height="39"/></g><g transform="translate(-6,2) scale(1,1)"><path fill="none" stroke="#000000" d="M 808 40 L 965.70263671875 40 L 965.70263671875 79 L 808 79 L 808 40 Z Z" stroke-miterlimit="10"/></g><g transform="translate(-6,2) scale(1,1)"><g><path fill="none" stroke="none"/><text fill="#000000" stroke="none" font-family="Arial" font-size="13px" font-style="normal" font-weight="bold" text-decoration="none" x="822.17822265625" y="59.5">Actuator: Edge Device</text></g></g><g transform="translate(-6,2) scale(1,1)"><path fill="none" stroke="#000000" d="M 887.5 80 L 887.5 504" stroke-miterlimit="10" stroke-dasharray="3"/></g><g transform="translate(-6,2) scale(1,1)"><path fill="#ffffff" stroke="none" d="M 734.681748934659 47.3 C 734.681748934659 43.82060576 737.560150656841 41 741.11083984375 41 C 744.661529030659 41 747.5399307528409 43.82060576 747.5399307528409 47.3 C 747.5399307528409 50.779394239999995 744.661529030659 53.6 741.11083984375 53.6 C 737.560150656841 53.6 734.681748934659 50.779394239999995 734.681748934659 47.3 Z"/></g><g transform="translate(-6,2) scale(1,1)"><path fill="none" stroke="#000000" d="M 734.681748934659 47.3 C 734.681748934659 43.82060576 737.560150656841 41 741.11083984375 41 C 744.661529030659 41 747.5399307528409 43.82060576 747.5399307528409 47.3 C 747.5399307528409 50.779394239999995 744.661529030659 53.6 741.11083984375 53.6 C 737.560150656841 53.6 734.681748934659 50.779394239999995 734.681748934659 47.3 Z" stroke-miterlimit="10"/></g><g transform="translate(-6,2) scale(1,1)"><path fill="none" stroke="#000000" d="M 741.11083984375 53.6 L 741.11083984375 66.4" stroke-miterlimit="10"/></g><g transform="translate(-6,2) scale(1,1)"><path fill="none" stroke="#000000" d="M 734.3035671164772 58.4 L 747.9181125710227 58.4" stroke-miterlimit="10"/></g><g transform="translate(-6,2) scale(1,1)"><path fill="none" stroke="#000000" d="M 741.11083984375 66.4 L 731.6562943892045 79" stroke-miterlimit="10"/></g><g transform="translate(-6,2) scale(1,1)"><path fill="none" stroke="#000000" d="M 741.11083984375 66.4 L 750.5653852982954 79" stroke-miterlimit="10"/></g><g transform="translate(-6,2) scale(1,1)"><g><path fill="none" stroke="none"/><text fill="#000000" stroke="none" font-family="Arial" font-size="13px" font-style="normal" font-weight="bold" text-decoration="none" x="678.62451171875" y="99.5">Nav AI: Micro Service</text></g></g><g transform="translate(-6,2) scale(1,1)"><path fill="none" stroke="#000000" d="M 742.5 105 L 742.5 504" stroke-miterlimit="10" stroke-dasharray="3"/></g><g transform="translate(-6,2) scale(1,1)"><rect fill="#C0C0C0" stroke="none" x="999" y="47" width="156.99169921875" height="39" opacity="0.2"/></g><g transform="translate(-6,2) scale(1,1)"><rect fill="#ffffff" stroke="none" x="992" y="40" width="156.99169921875" height="39"/></g><g transform="translate(-6,2) scale(1,1)"><path fill="none" stroke="#000000" d="M 992 40 L 1148.99169921875 40 L 1148.99169921875 79 L 992 79 L 992 40 Z Z" stroke-miterlimit="10"/></g><g transform="translate(-6,2) scale(1,1)"><g><path fill="none" stroke="none"/><text fill="#000000" stroke="none" font-family="Arial" font-size="13px" font-style="normal" font-weight="bold" text-decoration="none" x="1009.4345703125" y="59.5">Sensor: Edge Device</text></g></g><g transform="translate(-6,2) scale(1,1)"><path fill="none" stroke="#000000" d="M 1071.5 80 L 1071.5 496" stroke-miterlimit="10" stroke-dasharray="3"/></g><g transform="translate(-6,2) scale(1,1)"><path fill="#ffffff" stroke="none" d="M 1220.136338778409 47.3 C 1220.136338778409 43.82060576 1223.014740500591 41 1226.5654296875 41 C 1230.116118874409 41 1232.994520596591 43.82060576 1232.994520596591 47.3 C 1232.994520596591 50.779394239999995 1230.116118874409 53.6 1226.5654296875 53.6 C 1223.014740500591 53.6 1220.136338778409 50.779394239999995 1220.136338778409 47.3 Z"/></g><g transform="translate(-6,2) scale(1,1)"><path fill="none" stroke="#000000" d="M 1220.136338778409 47.3 C 1220.136338778409 43.82060576 1223.014740500591 41 1226.5654296875 41 C 1230.116118874409 41 1232.994520596591 43.82060576 1232.994520596591 47.3 C 1232.994520596591 50.779394239999995 1230.116118874409 53.6 1226.5654296875 53.6 C 1223.014740500591 53.6 1220.136338778409 50.779394239999995 1220.136338778409 47.3 Z" stroke-miterlimit="10"/></g><g transform="translate(-6,2) scale(1,1)"><path fill="none" stroke="#000000" d="M 1226.5654296875 53.6 L 1226.5654296875 66.4" stroke-miterlimit="10"/></g><g transform="translate(-6,2) scale(1,1)"><path fill="none" stroke="#000000" d="M 1219.7581569602273 58.4 L 1233.3727024147727 58.4" stroke-miterlimit="10"/></g><g transform="translate(-6,2) scale(1,1)"><path fill="none" stroke="#000000" d="M 1226.5654296875 66.4 L 1217.1108842329545 79" stroke-miterlimit="10"/></g><g transform="translate(-6,2) scale(1,1)"><path fill="none" stroke="#000000" d="M 1226.5654296875 66.4 L 1236.0199751420455 79" stroke-miterlimit="10"/></g><g transform="translate(-6,2) scale(1,1)"><g><path fill="none" stroke="none"/><text fill="#000000" stroke="none" font-family="Arial" font-size="13px" font-style="normal" font-weight="bold" text-decoration="none" x="1169.12548828125" y="99.5">Room: Environment</text></g></g><g transform="translate(-6,2) scale(1,1)"><path fill="none" stroke="#000000" d="M 1227.5 105 L 1227.5 504" stroke-miterlimit="10" stroke-dasharray="3"/></g><g transform="translate(-6,2) scale(1,1)"><path fill="none" stroke="#000000" d="M 1071 120 L 1220 120" stroke-miterlimit="10"/></g><g transform="translate(-6,2) scale(1,1)"><path fill="#000000" stroke="none" d="M 1209.837325142376 124.20951775601598 L 1220 120 L 1209.837325142376 115.79048224398402"/></g><g transform="translate(-6,2) scale(1,1)"><path fill="none" stroke="#000000" d="M 1209.837325142376 124.20951775601598 L 1220 120 L 1209.837325142376 115.79048224398402 L 1209.837325142376 124.20951775601598" stroke-miterlimit="10"/></g><g transform="translate(-6,2) scale(1,1)"><g><path fill="none" stroke="none"/><text fill="#000000" stroke="none" font-family="Arial" font-size="13px" font-style="normal" font-weight="normal" text-decoration="none" x="1118.14453125" y="116.5">1 : sense</text></g></g><g transform="translate(-6,2) scale(1,1)"><rect fill="#ffffff" stroke="none" x="1220" y="120" width="13" height="28"/></g><g transform="translate(-6,2) scale(1,1)"><path fill="none" stroke="#000000" d="M 1220 120 L 1233 120 L 1233 148 L 1220 148 L 1220 120 Z Z" stroke-miterlimit="10"/></g><g transform="translate(-6,2) scale(1,1)"><path fill="none" stroke="#000000" d="M 1220 138 L 1071 138" stroke-miterlimit="10" stroke-dasharray="3"/></g><g transform="translate(-6,2) scale(1,1)"><path fill="none" stroke="#000000" d="M 1081.162674857624 133.790482243984 L 1071 138 L 1081.162674857624 142.209517756016" stroke-miterlimit="10"/></g><g transform="translate(-6,2) scale(1,1)"><g><path fill="none" stroke="none"/><text fill="#000000" stroke="none" font-family="Arial" font-size="13px" font-style="normal" font-weight="normal" text-decoration="none" x="1111.5" y="154.5">2 : respond</text></g></g><g transform="translate(-6,2) scale(1,1)"><path fill="none" stroke="#000000" d="M 1071 155 L 503 155" stroke-miterlimit="10"/></g><g transform="translate(-6,2) scale(1,1)"><path fill="#000000" stroke="none" d="M 513.1626748576241 150.790482243984 L 503 155 L 513.1626748576241 159.209517756016"/></g><g transform="translate(-6,2) scale(1,1)"><path fill="none" stroke="#000000" d="M 513.1626748576241 150.790482243984 L 503 155 L 513.1626748576241 159.209517756016 L 513.1626748576241 150.790482243984" stroke-miterlimit="10"/></g><g transform="translate(-6,2) scale(1,1)"><g><path fill="none" stroke="none"/><text fill="#000000" stroke="none" font-family="Arial" font-size="13px" font-style="normal" font-weight="normal" text-decoration="none" x="739.5" y="171.5">3 : pub(location)</text></g></g><g transform="translate(-6,2) scale(1,1)"><rect fill="#ffffff" stroke="none" x="490" y="155" width="13" height="28"/></g><g transform="translate(-6,2) scale(1,1)"><path fill="none" stroke="#000000" d="M 490 155 L 503 155 L 503 183 L 490 183 L 490 155 Z Z" stroke-miterlimit="10"/></g><g transform="translate(-6,2) scale(1,1)"><path fill="none" stroke="#000000" d="M 84 168 L 247 168" stroke-miterlimit="10"/></g><g transform="translate(-6,2) scale(1,1)"><path fill="#000000" stroke="none" d="M 236.83732514237585 172.209517756016 L 247 168 L 236.83732514237585 163.790482243984"/></g><g transform="translate(-6,2) scale(1,1)"><path fill="none" stroke="#000000" d="M 236.83732514237585 172.209517756016 L 247 168 L 236.83732514237585 163.790482243984 L 236.83732514237585 172.209517756016" stroke-miterlimit="10"/></g><g transform="translate(-6,2) scale(1,1)"><g><path fill="none" stroke="none"/><text fill="#000000" stroke="none" font-family="Arial" font-size="13px" font-style="normal" font-weight="normal" text-decoration="none" x="106.5" y="164.5">4 : selectDestination</text></g></g><g transform="translate(-6,2) scale(1,1)"><rect fill="#ffffff" stroke="none" x="247" y="168" width="13" height="54"/></g><g transform="translate(-6,2) scale(1,1)"><path fill="none" stroke="#000000" d="M 247 168 L 260 168 L 260 222 L 247 222 L 247 168 Z Z" stroke-miterlimit="10"/></g><g transform="translate(-6,2) scale(1,1)"><path fill="none" stroke="#000000" d="M 260 216 L 490 216" stroke-miterlimit="10"/></g><g transform="translate(-6,2) scale(1,1)"><path fill="none" stroke="#000000" d="M 479.83732514237585 220.209517756016 L 490 216 L 479.83732514237585 211.790482243984" stroke-miterlimit="10"/></g><g transform="translate(-6,2) scale(1,1)"><g><path fill="none" stroke="none"/><text fill="#000000" stroke="none" font-family="Arial" font-size="13px" font-style="normal" font-weight="normal" text-decoration="none" x="319.5" y="212.5">5 : pub(destination)</text></g></g><g transform="translate(-6,2) scale(1,1)"><rect fill="#ffffff" stroke="none" x="490" y="216" width="13" height="28"/></g><g transform="translate(-6,2) scale(1,1)"><path fill="none" stroke="#000000" d="M 490 216 L 503 216 L 503 244 L 490 244 L 490 216 Z Z" stroke-miterlimit="10"/></g><g transform="translate(-6,2) scale(1,1)"><path fill="none" stroke="#000000" d="M 742 274 L 503 274" stroke-miterlimit="10"/></g><g transform="translate(-6,2) scale(1,1)"><path fill="none" stroke="#000000" d="M 513.1626748576241 269.790482243984 L 503 274 L 513.1626748576241 278.209517756016" stroke-miterlimit="10"/></g><g transform="translate(-6,2) scale(1,1)"><g><path fill="none" stroke="none"/><text fill="#000000" stroke="none" font-family="Arial" font-size="13px" font-style="normal" font-weight="normal" text-decoration="none" x="565.5" y="290.5">6 : sub(destination)</text></g></g><g transform="translate(-6,2) scale(1,1)"><rect fill="#ffffff" stroke="none" x="490" y="274" width="13" height="30"/></g><g transform="translate(-6,2) scale(1,1)"><path fill="none" stroke="#000000" d="M 490 274 L 503 274 L 503 304 L 490 304 L 490 274 Z Z" stroke-miterlimit="10"/></g><g transform="translate(-6,2) scale(1,1)"><path fill="none" stroke="#000000" d="M 742 343 L 503 343" stroke-miterlimit="10"/></g><g transform="translate(-6,2) scale(1,1)"><path fill="none" stroke="#000000" d="M 513.1626748576241 338.790482243984 L 503 343 L 513.1626748576241 347.209517756016" stroke-miterlimit="10"/></g><g transform="translate(-6,2) scale(1,1)"><g><path fill="none" stroke="none"/><text fill="#000000" stroke="none" font-family="Arial" font-size="13px" font-style="normal" font-weight="normal" text-decoration="none" x="574.5" y="359.5">7 : sub(location)</text></g></g><g transform="translate(-6,2) scale(1,1)"><rect fill="#ffffff" stroke="none" x="490" y="343" width="13" height="28"/></g><g transform="translate(-6,2) scale(1,1)"><path fill="none" stroke="#000000" d="M 490 343 L 503 343 L 503 371 L 490 371 L 490 343 Z Z" stroke-miterlimit="10"/></g><g transform="translate(-6,2) scale(1,1)"><path fill="none" stroke="#000000" d="M 742 368 L 772 368 L 772 388 L 748 388" stroke-miterlimit="10"/></g><g transform="translate(-6,2) scale(1,1)"><path fill="#000000" stroke="none" d="M 758.1626748576241 383.790482243984 L 748 388 L 758.1626748576241 392.209517756016"/></g><g transform="translate(-6,2) scale(1,1)"><path fill="none" stroke="#000000" d="M 758.1626748576241 383.790482243984 L 748 388 L 758.1626748576241 392.209517756016 L 758.1626748576241 383.790482243984" stroke-miterlimit="10"/></g><g transform="translate(-6,2) scale(1,1)"><g><path fill="none" stroke="none"/><text fill="#000000" stroke="none" font-family="Arial" font-size="13px" font-style="normal" font-weight="normal" text-decoration="none" x="782.5" y="383.5">8 : determinePath</text></g></g><g transform="translate(-6,2) scale(1,1)"><rect fill="#ffffff" stroke="none" x="735" y="388" width="13" height="28"/></g><g transform="translate(-6,2) scale(1,1)"><path fill="none" stroke="#000000" d="M 735 388 L 748 388 L 748 416 L 735 416 L 735 388 Z Z" stroke-miterlimit="10"/></g><g transform="translate(-6,2) scale(1,1)"><path fill="none" stroke="#000000" d="M 742 440 L 880 440" stroke-miterlimit="10"/></g><g transform="translate(-6,2) scale(1,1)"><path fill="#000000" stroke="none" d="M 869.8373251423759 444.209517756016 L 880 440 L 869.8373251423758 435.790482243984"/></g><g transform="translate(-6,2) scale(1,1)"><path fill="none" stroke="#000000" d="M 869.8373251423759 444.209517756016 L 880 440 L 869.8373251423758 435.790482243984 L 869.8373251423759 444.209517756016" stroke-miterlimit="10"/></g><g transform="translate(-6,2) scale(1,1)"><g><path fill="none" stroke="none"/><text fill="#000000" stroke="none" font-family="Arial" font-size="13px" font-style="normal" font-weight="normal" text-decoration="none" x="785.594970703125" y="436.5">9 : move</text></g></g><g transform="translate(-6,2) scale(1,1)"><rect fill="#ffffff" stroke="none" x="880" y="440" width="13" height="28"/></g><g transform="translate(-6,2) scale(1,1)"><path fill="none" stroke="#000000" d="M 880 440 L 893 440 L 893 468 L 880 468 L 880 440 Z Z" stroke-miterlimit="10"/></g></g></svg>