<svg version="1.1" xmlns="http://www.w3.org/2000/svg" xmlns:xlink="http://www.w3.org/1999/xlink" width="799.50634765625" height="1000"><defs/><g><text fill="#eeeeee" stroke="none" font-family="Arial" font-size="24px" font-style="normal" font-weight="normal" text-decoration="none" x="0" y="0">UNREGISTERED</text><text fill="#eeeeee" stroke="none" font-family="Arial" font-size="24px" font-style="normal" font-weight="normal" text-decoration="none" x="0" y="30">UNREGISTERED</text><text fill="#eeeeee" stroke="none" font-family="Arial" font-size="24px" font-style="normal" font-weight="normal" text-decoration="none" x="0" y="60">UNREGISTERED</text><text fill="#eeeeee" stroke="none" font-family="Arial" font-size="24px" font-style="normal" font-weight="normal" text-decoration="none" x="0" y="90">UNREGISTERED</text><text fill="#eeeeee" stroke="none" font-family="Arial" font-size="24px" font-style="normal" font-weight="normal" text-decoration="none" x="0" y="120">UNREGISTERED</text><text fill="#eeeeee" stroke="none" font-family="Arial" font-size="24px" font-style="normal" font-weight="normal" text-decoration="none" x="0" y="150">UNREGISTERED</text><text fill="#eeeeee" stroke="none" font-family="Arial" font-size="24px" font-style="normal" font-weight="normal" text-decoration="none" x="0" y="180">UNREGISTERED</text><text fill="#eeeeee" stroke="none" font-family="Arial" font-size="24px" font-style="normal" font-weight="normal" text-decoration="none" x="0" y="210">UNREGISTERED</text><text fill="#eeeeee" stroke="none" font-family="Arial" font-size="24px" font-style="normal" font-weight="normal" text-decoration="none" x="0" y="240">UNREGISTERED</text><text fill="#eeeeee" stroke="none" font-family="Arial" font-size="24px" font-style="normal" font-weight="normal" text-decoration="none" x="0" y="270">UNREGISTERED</text><text fill="#eeeeee" stroke="none" font-family="Arial" font-size="24px" font-style="normal" font-weight="normal" text-decoration="none" x="0" y="300">UNREGISTERED</text><text fill="#eeeeee" stroke="none" font-family="Arial" font-size="24px" font-style="normal" font-weight="normal" text-decoration="none" x="0" y="330">UNREGISTERED</text><text fill="#eeeeee" stroke="none" font-family="Arial" font-size="24px" font-style="normal" font-weight="normal" text-decoration="none" x="0" y="360">UNREGISTERED</text><text fill="#eeeeee" stroke="none" font-family="Arial" font-size="24px" font-style="normal" font-weight="normal" text-decoration="none" x="0" y="390">UNREGISTERED</text><text fill="#eeeeee" stroke="none" font-family="Arial" font-size="24px" font-style="normal" font-weight="normal" text-decoration="none" x="0" y="420">UNREGISTERED</text><text fill="#eeeeee" stroke="none" font-family="Arial" font-size="24px" font-style="normal" font-weight="normal" text-decoration="none" x="0" y="450">UNREGISTERED</text><text fill="#eeeeee" stroke="none" font-family="Arial" font-size="24px" font-style="normal" font-weight="normal" text-decoration="none" x="0" y="480">UNREGISTERED</text><text fill="#eeeeee" stroke="none" font-family="Arial" font-size="24px" font-style="normal" font-weight="normal" text-decoration="none" x="0" y="510">UNREGISTERED</text><text fill="#eeeeee" stroke="none" font-family="Arial" font-size="24px" font-style="normal" font-weight="normal" text-decoration="none" x="0" y="540">UNREGISTERED</text><text fill="#eeeeee" stroke="none" font-family="Arial" font-size="24px" font-style="normal" font-weight="normal" text-decoration="none" x="0" y="570">UNREGISTERED</text><text fill="#eeeeee" stroke="none" font-family="Arial" font-size="24px" font-style="normal" font-weight="normal" text-decoration="none" x="0" y="600">UNREGISTERED</text><text fill="#eeeeee" stroke="none" font-family="Arial" font-size="24px" font-style="normal" font-weight="normal" text-decoration="none" x="0" y="630">UNREGISTERED</text><text fill="#eeeeee" stroke="none" font-family="Arial" font-size="24px" font-style="normal" font-weight="normal" text-decoration="none" x="0" y="660">UNREGISTERED</text><text fill="#eeeeee" stroke="none" font-family="Arial" font-size="24px" font-style="normal" font-weight="normal" text-decoration="none" x="0" y="690">UNREGISTERED</text><text fill="#eeeeee" stroke="none" font-family="Arial" font-size="24px" font-style="normal" font-weight="normal" text-decoration="none" x="0" y="720">UNREGISTERED</text><text fill="#eeeeee" stroke="none" font-family="Arial" font-size="24px" font-style="normal" font-weight="normal" text-decoration="none" x="0" y="750">UNREGISTERED</text><text fill="#eeeeee" stroke="none" font-family="Arial" font-size="24px" font-style="normal" font-weight="normal" text-decoration="none" x="0" y="780">UNREGISTERED</text><text fill="#eeeeee" stroke="none" font-family="Arial" font-size="24px" font-style="normal" font-weight="normal" text-decoration="none" x="0" y="810">UNREGISTERED</text><text fill="#eeeeee" stroke="none" font-family="Arial" font-size="24px" font-style="normal" font-weight="normal" text-decoration="none" x="0" y="840">UNREGISTERED</text><text fill="#eeeeee" stroke="none" font-family="Arial" font-size="24px" font-style="normal" font-weight="normal" text-decoration="none" x="0" y="870">UNREGISTERED</text><text fill="#eeeeee" stroke="none" font-family="Arial" font-size="24px" font-style="normal" font-weight="normal" text-decoration="none" x="0" y="900">UNREGISTERED</text><text fill="#eeeeee" stroke="none" font-family="Arial" font-size="24px" font-style="normal" font-weight="normal" text-decoration="none" x="0" y="930">UNREGISTERED</text><text fill="#eeeeee" stroke="none" font-family="Arial" font-size="24px" font-style="normal" font-weight="normal" text-decoration="none" x="0" y="960">UNREGISTERED</text><text fill="#eeeeee" stroke="none" font-family="Arial" font-size="24px" font-style="normal" font-weight="normal" text-decoration="none" x="0" y="990">UNREGISTERED</text><text fill="#eeeeee" stroke="none" font-family="Arial" font-size="24px" font-style="normal" font-weight="normal" text-decoration="none" x="200" y="0">UNREGISTERED</text><text fill="#eeeeee" stroke="none" font-family="Arial" font-size="24px" font-style="normal" font-weight="normal" text-decoration="none" x="200" y="30">UNREGISTERED</text><text fill="#eeeeee" stroke="none" font-family="Arial" font-size="24px" font-style="normal" font-weight="normal" text-decoration="none" x="200" y="60">UNREGISTERED</text><text fill="#eeeeee" stroke="none" font-family="Arial" font-size="24px" font-style="normal" font-weight="normal" text-decoration="none" x="200" y="90">UNREGISTERED</text><text fill="#eeeeee" stroke="none" font-family="Arial" font-size="24px" font-style="normal" font-weight="normal" text-decoration="none" x="200" y="120">UNREGISTERED</text><text fill="#eeeeee" stroke="none" font-family="Arial" font-size="24px" font-style="normal" font-weight="normal" text-decoration="none" x="200" y="150">UNREGISTERED</text><text fill="#eeeeee" stroke="none" font-family="Arial" font-size="24px" font-style="normal" font-weight="normal" text-decoration="none" x="200" y="180">UNREGISTERED</text><text fill="#eeeeee" stroke="none" font-family="Arial" font-size="24px" font-style="normal" font-weight="normal" text-decoration="none" x="200" y="210">UNREGISTERED</text><text fill="#eeeeee" stroke="none" font-family="Arial" font-size="24px" font-style="normal" font-weight="normal" text-decoration="none" x="200" y="240">UNREGISTERED</text><text fill="#eeeeee" stroke="none" font-family="Arial" font-size="24px" font-style="normal" font-weight="normal" text-decoration="none" x="200" y="270">UNREGISTERED</text><text fill="#eeeeee" stroke="none" font-family="Arial" font-size="24px" font-style="normal" font-weight="normal" text-decoration="none" x="200" y="300">UNREGISTERED</text><text fill="#eeeeee" stroke="none" font-family="Arial" font-size="24px" font-style="normal" font-weight="normal" text-decoration="none" x="200" y="330">UNREGISTERED</text><text fill="#eeeeee" stroke="none" font-family="Arial" font-size="24px" font-style="normal" font-weight="normal" text-decoration="none" x="200" y="360">UNREGISTERED</text><text fill="#eeeeee" stroke="none" font-family="Arial" font-size="24px" font-style="normal" font-weight="normal" text-decoration="none" x="200" y="390">UNREGISTERED</text><text fill="#eeeeee" stroke="none" font-family="Arial" font-size="24px" font-style="normal" font-weight="normal" text-decoration="none" x="200" y="420">UNREGISTERED</text><text fill="#eeeeee" stroke="none" font-family="Arial" font-size="24px" font-style="normal" font-weight="normal" text-decoration="none" x="200" y="450">UNREGISTERED</text><text fill="#eeeeee" stroke="none" font-family="Arial" font-size="24px" font-style="normal" font-weight="normal" text-decoration="none" x="200" y="480">UNREGISTERED</text><text fill="#eeeeee" stroke="none" font-family="Arial" font-size="24px" font-style="normal" font-weight="normal" text-decoration="none" x="200" y="510">UNREGISTERED</text><text fill="#eeeeee" stroke="none" font-family="Arial" font-size="24px" font-style="normal" font-weight="normal" text-decoration="none" x="200" y="540">UNREGISTERED</text><text fill="#eeeeee" stroke="none" font-family="Arial" font-size="24px" font-style="normal" font-weight="normal" text-decoration="none" x="200" y="570">UNREGISTERED</text><text fill="#eeeeee" stroke="none" font-family="Arial" font-size="24px" font-style="normal" font-weight="normal" text-decoration="none" x="200" y="600">UNREGISTERED</text><text fill="#eeeeee" stroke="none" font-family="Arial" font-size="24px" font-style="normal" font-weight="normal" text-decoration="none" x="200" y="630">UNREGISTERED</text><text fill="#eeeeee" stroke="none" font-family="Arial" font-size="24px" font-style="normal" font-weight="normal" text-decoration="none" x="200" y="660">UNREGISTERED</text><text fill="#eeeeee" stroke="none" font-family="Arial" font-size="24px" font-style="normal" font-weight="normal" text-decoration="none" x="200" y="690">UNREGISTERED</text><text fill="#eeeeee" stroke="none" font-family="Arial" font-size="24px" font-style="normal" font-weight="normal" text-decoration="none" x="200" y="720">UNREGISTERED</text><text fill="#eeeeee" stroke="none" font-family="Arial" font-size="24px" font-style="normal" font-weight="normal" text-decoration="none" x="200" y="750">UNREGISTERED</text><text fill="#eeeeee" stroke="none" font-family="Arial" font-size="24px" font-style="normal" font-weight="normal" text-decoration="none" x="200" y="780">UNREGISTERED</text><text fill="#eeeeee" stroke="none" font-family="Arial" font-size="24px" font-style="normal" font-weight="normal" text-decoration="none" x="200" y="810">UNREGISTERED</text><text fill="#eeeeee" stroke="none" font-family="Arial" font-size="24px" font-style="normal" font-weight="normal" text-decoration="none" x="200" y="840">UNREGISTERED</text><text fill="#eeeeee" stroke="none" font-family="Arial" font-size="24px" font-style="normal" font-weight="normal" text-decoration="none" x="200" y="870">UNREGISTERED</text><text fill="#eeeeee" stroke="none" font-family="Arial" font-size="24px" font-style="normal" font-weight="normal" text-decoration="none" x="200" y="900">UNREGISTERED</text><text fill="#eeeeee" stroke="none" font-family="Arial" font-size="24px" font-style="normal" font-weight="normal" text-decoration="none" x="200" y="930">UNREGISTERED</text><text fill="#eeeeee" stroke="none" font-family="Arial" font-size="24px" font-style="normal" font-weight="normal" text-decoration="none" x="200" y="960">UNREGISTERED</text><text fill="#eeeeee" stroke="none" font-family="Arial" font-size="24px" font-style="normal" font-weight="normal" text-decoration="none" x="200" y="990">UNREGISTERED</text><text fill="#eeeeee" stroke="none" font-family="Arial" font-size="24px" font-style="normal" font-weight="normal" text-decoration="none" x="400" y="0">UNREGISTERED</text><text fill="#eeeeee" stroke="none" font-family="Arial" font-size="24px" font-style="normal" font-weight="normal" text-decoration="none" x="400" y="30">UNREGISTERED</text><text fill="#eeeeee" stroke="none" font-family="Arial" font-size="24px" font-style="normal" font-weight="normal" text-decoration="none" x="400" y="60">UNREGISTERED</text><text fill="#eeeeee" stroke="none" font-family="Arial" font-size="24px" font-style="normal" font-weight="normal" text-decoration="none" x="400" y="90">UNREGISTERED</text><text fill="#eeeeee" stroke="none" font-family="Arial" font-size="24px" font-style="normal" font-weight="normal" text-decoration="none" x="400" y="120">UNREGISTERED</text><text fill="#eeeeee" stroke="none" font-family="Arial" font-size="24px" font-style="normal" font-weight="normal" text-decoration="none" x="400" y="150">UNREGISTERED</text><text fill="#eeeeee" stroke="none" font-family="Arial" font-size="24px" font-style="normal" font-weight="normal" text-decoration="none" x="400" y="180">UNREGISTERED</text><text fill="#eeeeee" stroke="none" font-family="Arial" font-size="24px" font-style="normal" font-weight="normal" text-decoration="none" x="400" y="210">UNREGISTERED</text><text fill="#eeeeee" stroke="none" font-family="Arial" font-size="24px" font-style="normal" font-weight="normal" text-decoration="none" x="400" y="240">UNREGISTERED</text><text fill="#eeeeee" stroke="none" font-family="Arial" font-size="24px" font-style="normal" font-weight="normal" text-decoration="none" x="400" y="270">UNREGISTERED</text><text fill="#eeeeee" stroke="none" font-family="Arial" font-size="24px" font-style="normal" font-weight="normal" text-decoration="none" x="400" y="300">UNREGISTERED</text><text fill="#eeeeee" stroke="none" font-family="Arial" font-size="24px" font-style="normal" font-weight="normal" text-decoration="none" x="400" y="330">UNREGISTERED</text><text fill="#eeeeee" stroke="none" font-family="Arial" font-size="24px" font-style="normal" font-weight="normal" text-decoration="none" x="400" y="360">UNREGISTERED</text><text fill="#eeeeee" stroke="none" font-family="Arial" font-size="24px" font-style="normal" font-weight="normal" text-decoration="none" x="400" y="390">UNREGISTERED</text><text fill="#eeeeee" stroke="none" font-family="Arial" font-size="24px" font-style="normal" font-weight="normal" text-decoration="none" x="400" y="420">UNREGISTERED</text><text fill="#eeeeee" stroke="none" font-family="Arial" font-size="24px" font-style="normal" font-weight="normal" text-decoration="none" x="400" y="450">UNREGISTERED</text><text fill="#eeeeee" stroke="none" font-family="Arial" font-size="24px" font-style="normal" font-weight="normal" text-decoration="none" x="400" y="480">UNREGISTERED</text><text fill="#eeeeee" stroke="none" font-family="Arial" font-size="24px" font-style="normal" font-weight="normal" text-decoration="none" x="400" y="510">UNREGISTERED</text><text fill="#eeeeee" stroke="none" font-family="Arial" font-size="24px" font-style="normal" font-weight="normal" text-decoration="none" x="400" y="540">UNREGISTERED</text><text fill="#eeeeee" stroke="none" font-family="Arial" font-size="24px" font-style="normal" font-weight="normal" text-decoration="none" x="400" y="570">UNREGISTERED</text><text fill="#eeeeee" stroke="none" font-family="Arial" font-size="24px" font-style="normal" font-weight="normal" text-decoration="none" x="400" y="600">UNREGISTERED</text><text fill="#eeeeee" stroke="none" font-family="Arial" font-size="24px" font-style="normal" font-weight="normal" text-decoration="none" x="400" y="630">UNREGISTERED</text><text fill="#eeeeee" stroke="none" font-family="Arial" font-size="24px" font-style="normal" font-weight="normal" text-decoration="none" x="400" y="660">UNREGISTERED</text><text fill="#eeeeee" stroke="none" font-family="Arial" font-size="24px" font-style="normal" font-weight="normal" text-decoration="none" x="400" y="690">UNREGISTERED</text><text fill="#eeeeee" stroke="none" font-family="Arial" font-size="24px" font-style="normal" font-weight="normal" text-decoration="none" x="400" y="720">UNREGISTERED</text><text fill="#eeeeee" stroke="none" font-family="Arial" font-size="24px" font-style="normal" font-weight="normal" text-decoration="none" x="400" y="750">UNREGISTERED</text><text fill="#eeeeee" stroke="none" font-family="Arial" font-size="24px" font-style="normal" font-weight="normal" text-decoration="none" x="400" y="780">UNREGISTERED</text><text fill="#eeeeee" stroke="none" font-family="Arial" font-size="24px" font-style="normal" font-weight="normal" text-decoration="none" x="400" y="810">UNREGISTERED</text><text fill="#eeeeee" stroke="none" font-family="Arial" font-size="24px" font-style="normal" font-weight="normal" text-decoration="none" x="400" y="840">UNREGISTERED</text><text fill="#eeeeee" stroke="none" font-family="Arial" font-size="24px" font-style="normal" font-weight="normal" text-decoration="none" x="400" y="870">UNREGISTERED</text><text fill="#eeeeee" stroke="none" font-family="Arial" font-size="24px" font-style="normal" font-weight="normal" text-decoration="none" x="400" y="900">UNREGISTERED</text><text fill="#eeeeee" stroke="none" font-family="Arial" font-size="24px" font-style="normal" font-weight="normal" text-decoration="none" x="400" y="930">UNREGISTERED</text><text fill="#eeeeee" stroke="none" font-family="Arial" font-size="24px" font-style="normal" font-weight="normal" text-decoration="none" x="400" y="960">UNREGISTERED</text><text fill="#eeeeee" stroke="none" font-family="Arial" font-size="24px" font-style="normal" font-weight="normal" text-decoration="none" x="400" y="990">UNREGISTERED</text><text fill="#eeeeee" stroke="none" font-family="Arial" font-size="24px" font-style="normal" font-weight="normal" text-decoration="none" x="600" y="0">UNREGISTERED</text><text fill="#eeeeee" stroke="none" font-family="Arial" font-size="24px" font-style="normal" font-weight="normal" text-decoration="none" x="600" y="30">UNREGISTERED</text><text fill="#eeeeee" stroke="none" font-family="Arial" font-size="24px" font-style="normal" font-weight="normal" text-decoration="none" x="600" y="60">UNREGISTERED</text><text fill="#eeeeee" stroke="none" font-family="Arial" font-size="24px" font-style="normal" font-weight="normal" text-decoration="none" x="600" y="90">UNREGISTERED</text><text fill="#eeeeee" stroke="none" font-family="Arial" font-size="24px" font-style="normal" font-weight="normal" text-decoration="none" x="600" y="120">UNREGISTERED</text><text fill="#eeeeee" stroke="none" font-family="Arial" font-size="24px" font-style="normal" font-weight="normal" text-decoration="none" x="600" y="150">UNREGISTERED</text><text fill="#eeeeee" stroke="none" font-family="Arial" font-size="24px" font-style="normal" font-weight="normal" text-decoration="none" x="600" y="180">UNREGISTERED</text><text fill="#eeeeee" stroke="none" font-family="Arial" font-size="24px" font-style="normal" font-weight="normal" text-decoration="none" x="600" y="210">UNREGISTERED</text><text fill="#eeeeee" stroke="none" font-family="Arial" font-size="24px" font-style="normal" font-weight="normal" text-decoration="none" x="600" y="240">UNREGISTERED</text><text fill="#eeeeee" stroke="none" font-family="Arial" font-size="24px" font-style="normal" font-weight="normal" text-decoration="none" x="600" y="270">UNREGISTERED</text><text fill="#eeeeee" stroke="none" font-family="Arial" font-size="24px" font-style="normal" font-weight="normal" text-decoration="none" x="600" y="300">UNREGISTERED</text><text fill="#eeeeee" stroke="none" font-family="Arial" font-size="24px" font-style="normal" font-weight="normal" text-decoration="none" x="600" y="330">UNREGISTERED</text><text fill="#eeeeee" stroke="none" font-family="Arial" font-size="24px" font-style="normal" font-weight="normal" text-decoration="none" x="600" y="360">UNREGISTERED</text><text fill="#eeeeee" stroke="none" font-family="Arial" font-size="24px" font-style="normal" font-weight="normal" text-decoration="none" x="600" y="390">UNREGISTERED</text><text fill="#eeeeee" stroke="none" font-family="Arial" font-size="24px" font-style="normal" font-weight="normal" text-decoration="none" x="600" y="420">UNREGISTERED</text><text fill="#eeeeee" stroke="none" font-family="Arial" font-size="24px" font-style="normal" font-weight="normal" text-decoration="none" x="600" y="450">UNREGISTERED</text><text fill="#eeeeee" stroke="none" font-family="Arial" font-size="24px" font-style="normal" font-weight="normal" text-decoration="none" x="600" y="480">UNREGISTERED</text><text fill="#eeeeee" stroke="none" font-family="Arial" font-size="24px" font-style="normal" font-weight="normal" text-decoration="none" x="600" y="510">UNREGISTERED</text><text fill="#eeeeee" stroke="none" font-family="Arial" font-size="24px" font-style="normal" font-weight="normal" text-decoration="none" x="600" y="540">UNREGISTERED</text><text fill="#eeeeee" stroke="none" font-family="Arial" font-size="24px" font-style="normal" font-weight="normal" text-decoration="none" x="600" y="570">UNREGISTERED</text><text fill="#eeeeee" stroke="none" font-family="Arial" font-size="24px" font-style="normal" font-weight="normal" text-decoration="none" x="600" y="600">UNREGISTERED</text><text fill="#eeeeee" stroke="none" font-family="Arial" font-size="24px" font-style="normal" font-weight="normal" text-decoration="none" x="600" y="630">UNREGISTERED</text><text fill="#eeeeee" stroke="none" font-family="Arial" font-size="24px" font-style="normal" font-weight="normal" text-decoration="none" x="600" y="660">UNREGISTERED</text><text fill="#eeeeee" stroke="none" font-family="Arial" font-size="24px" font-style="normal" font-weight="normal" text-decoration="none" x="600" y="690">UNREGISTERED</text><text fill="#eeeeee" stroke="none" font-family="Arial" font-size="24px" font-style="normal" font-weight="normal" text-decoration="none" x="600" y="720">UNREGISTERED</text><text fill="#eeeeee" stroke="none" font-family="Arial" font-size="24px" font-style="normal" font-weight="normal" text-decoration="none" x="600" y="750">UNREGISTERED</text><text fill="#eeeeee" stroke="none" font-family="Arial" font-size="24px" font-style="normal" font-weight="normal" text-decoration="none" x="600" y="780">UNREGISTERED</text><text fill="#eeeeee" stroke="none" font-family="Arial" font-size="24px" font-style="normal" font-weight="normal" text-decoration="none" x="600" y="810">UNREGISTERED</text><text fill="#eeeeee" stroke="none" font-family="Arial" font-size="24px" font-style="normal" font-weight="normal" text-decoration="none" x="600" y="840">UNREGISTERED</text><text fill="#eeeeee" stroke="none" font-family="Arial" font-size="24px" font-style="normal" font-weight="normal" text-decoration="none" x="600" y="870">UNREGISTERED</text><text fill="#eeeeee" stroke="none" font-family="Arial" font-size="24px" font-style="normal" font-weight="normal" text-decoration="none" x="600" y="900">UNREGISTERED</text><text fill="#eeeeee" stroke="none" font-family="Arial" font-size="24px" font-style="normal" font-weight="normal" text-decoration="none" x="600" y="930">UNREGISTERED</text><text fill="#eeeeee" stroke="none" font-family="Arial" font-size="24px" font-style="normal" font-weight="normal" text-decoration="none" x="600" y="960">UNREGISTERED</text><text fill="#eeeeee" stroke="none" font-family="Arial" font-size="24px" font-style="normal" font-weight="normal" text-decoration="none" x="600" y="990">UNREGISTERED</text><g transform="translate(-10,20) scale(1,1)"><path fill="#C0C0C0" stroke="none" d="M 520.39453125 353.5 C 520.39453125 338.312168 558.67418085 326 605.89453125 326 C 653.11488165 326 691.39453125 338.312168 691.39453125 353.5 C 691.39453125 368.687832 653.11488165 381 605.89453125 381 C 558.67418085 381 520.39453125 368.687832 520.39453125 353.5 Z" opacity="0.2"/></g><g transform="translate(-10,20) scale(1,1)"><path fill="#ffffff" stroke="none" d="M 513.39453125 346.5 C 513.39453125 331.312168 551.67418085 319 598.89453125 319 C 646.11488165 319 684.39453125 331.312168 684.39453125 346.5 C 684.39453125 361.687832 646.11488165 374 598.89453125 374 C 551.67418085 374 513.39453125 361.687832 513.39453125 346.5 Z"/></g><g transform="translate(-10,20) scale(1,1)"><path fill="none" stroke="#000000" d="M 513.39453125 346.5 C 513.39453125 331.312168 551.67418085 319 598.89453125 319 C 646.11488165 319 684.39453125 331.312168 684.39453125 346.5 C 684.39453125 361.687832 646.11488165 374 598.89453125 374 C 551.67418085 374 513.39453125 361.687832 513.39453125 346.5 Z" stroke-miterlimit="10"/></g><g transform="translate(-10,20) scale(1,1)"><g><path fill="none" stroke="none"/><text fill="#000000" stroke="none" font-family="Arial" font-size="13px" font-style="normal" font-weight="bold" text-decoration="none" x="546.869140625" y="346">Home Automation</text></g></g><g transform="translate(-10,20) scale(1,1)"><g><path fill="none" stroke="none"/><text fill="#000000" stroke="none" font-family="Arial" font-size="13px" font-style="normal" font-weight="normal" text-decoration="none" x="547.970458984375" y="361">(from Use Cases)</text></g></g><g transform="translate(-10,20) scale(1,1)"><path fill="#C0C0C0" stroke="none" d="M 178.61181640625 375.25 C 178.61181640625 360.062168 213.75745960625 347.75 257.11181640625 347.75 C 300.46617320625 347.75 335.61181640625 360.062168 335.61181640625 375.25 C 335.61181640625 390.437832 300.46617320625 402.75 257.11181640625 402.75 C 213.75745960625 402.75 178.61181640625 390.437832 178.61181640625 375.25 Z" opacity="0.2"/></g><g transform="translate(-10,20) scale(1,1)"><path fill="#ffffff" stroke="none" d="M 171.61181640625 368.25 C 171.61181640625 353.062168 206.75745960625 340.75 250.11181640625 340.75 C 293.46617320625 340.75 328.61181640625 353.062168 328.61181640625 368.25 C 328.61181640625 383.437832 293.46617320625 395.75 250.11181640625 395.75 C 206.75745960625 395.75 171.61181640625 383.437832 171.61181640625 368.25 Z"/></g><g transform="translate(-10,20) scale(1,1)"><path fill="none" stroke="#000000" d="M 171.61181640625 368.25 C 171.61181640625 353.062168 206.75745960625 340.75 250.11181640625 340.75 C 293.46617320625 340.75 328.61181640625 353.062168 328.61181640625 368.25 C 328.61181640625 383.437832 293.46617320625 395.75 250.11181640625 395.75 C 206.75745960625 395.75 171.61181640625 383.437832 171.61181640625 368.25 Z" stroke-miterlimit="10"/></g><g transform="translate(-10,20) scale(1,1)"><g><path fill="none" stroke="none"/><text fill="#000000" stroke="none" font-family="Arial" font-size="13px" font-style="normal" font-weight="bold" text-decoration="none" x="208.563232421875" y="367.75">Bio Monitoring</text></g></g><g transform="translate(-10,20) scale(1,1)"><g><path fill="none" stroke="none"/><text fill="#000000" stroke="none" font-family="Arial" font-size="13px" font-style="normal" font-weight="normal" text-decoration="none" x="199.187744140625" y="382.75">(from Use Cases)</text></g></g><g transform="translate(-10,20) scale(1,1)"><path fill="#C0C0C0" stroke="none" d="M 527.39453125 683.25 C 527.39453125 668.062168 562.54017445 655.75 605.89453125 655.75 C 649.24888805 655.75 684.39453125 668.062168 684.39453125 683.25 C 684.39453125 698.437832 649.24888805 710.75 605.89453125 710.75 C 562.54017445 710.75 527.39453125 698.437832 527.39453125 683.25 Z" opacity="0.2"/></g><g transform="translate(-10,20) scale(1,1)"><path fill="#ffffff" stroke="none" d="M 520.39453125 676.25 C 520.39453125 661.062168 555.54017445 648.75 598.89453125 648.75 C 642.24888805 648.75 677.39453125 661.062168 677.39453125 676.25 C 677.39453125 691.437832 642.24888805 703.75 598.89453125 703.75 C 555.54017445 703.75 520.39453125 691.437832 520.39453125 676.25 Z"/></g><g transform="translate(-10,20) scale(1,1)"><path fill="none" stroke="#000000" d="M 520.39453125 676.25 C 520.39453125 661.062168 555.54017445 648.75 598.89453125 648.75 C 642.24888805 648.75 677.39453125 661.062168 677.39453125 676.25 C 677.39453125 691.437832 642.24888805 703.75 598.89453125 703.75 C 555.54017445 703.75 520.39453125 691.437832 520.39453125 676.25 Z" stroke-miterlimit="10"/></g><g transform="translate(-10,20) scale(1,1)"><g><path fill="none" stroke="none"/><text fill="#000000" stroke="none" font-family="Arial" font-size="13px" font-style="normal" font-weight="bold" text-decoration="none" x="551.569580078125" y="675.75">Emotion Markup</text></g></g><g transform="translate(-10,20) scale(1,1)"><g><path fill="none" stroke="none"/><text fill="#000000" stroke="none" font-family="Arial" font-size="13px" font-style="normal" font-weight="normal" text-decoration="none" x="547.970458984375" y="690.75">(from Use Cases)</text></g></g><g transform="translate(-10,20) scale(1,1)"><path fill="#C0C0C0" stroke="none" d="M 178.61181640625 54.5 C 178.61181640625 39.312168 213.75745960625 27 257.11181640625 27 C 300.46617320625 27 335.61181640625 39.312168 335.61181640625 54.5 C 335.61181640625 69.687832 300.46617320625 82 257.11181640625 82 C 213.75745960625 82 178.61181640625 69.687832 178.61181640625 54.5 Z" opacity="0.2"/></g><g transform="translate(-10,20) scale(1,1)"><path fill="#ffffff" stroke="none" d="M 171.61181640625 47.5 C 171.61181640625 32.312168 206.75745960625 20 250.11181640625 20 C 293.46617320625 20 328.61181640625 32.312168 328.61181640625 47.5 C 328.61181640625 62.687832 293.46617320625 75 250.11181640625 75 C 206.75745960625 75 171.61181640625 62.687832 171.61181640625 47.5 Z"/></g><g transform="translate(-10,20) scale(1,1)"><path fill="none" stroke="#000000" d="M 171.61181640625 47.5 C 171.61181640625 32.312168 206.75745960625 20 250.11181640625 20 C 293.46617320625 20 328.61181640625 32.312168 328.61181640625 47.5 C 328.61181640625 62.687832 293.46617320625 75 250.11181640625 75 C 206.75745960625 75 171.61181640625 62.687832 171.61181640625 47.5 Z" stroke-miterlimit="10"/></g><g transform="translate(-10,20) scale(1,1)"><g><path fill="none" stroke="none"/><text fill="#000000" stroke="none" font-family="Arial" font-size="13px" font-style="normal" font-weight="bold" text-decoration="none" x="202.183837890625" y="47">Real time Avatar</text></g></g><g transform="translate(-10,20) scale(1,1)"><g><path fill="none" stroke="none"/><text fill="#000000" stroke="none" font-family="Arial" font-size="13px" font-style="normal" font-weight="normal" text-decoration="none" x="199.187744140625" y="62">(from Use Cases)</text></g></g><g transform="translate(-10,20) scale(1,1)"><path fill="#C0C0C0" stroke="none" d="M 176.11181640625 164.25 C 176.11181640625 149.06216799999999 212.37674760625 136.75 257.11181640625 136.75 C 301.84688520625 136.75 338.11181640625 149.06216799999999 338.11181640625 164.25 C 338.11181640625 179.43783200000001 301.84688520625 191.75 257.11181640625 191.75 C 212.37674760625 191.75 176.11181640625 179.43783200000001 176.11181640625 164.25 Z" opacity="0.2"/></g><g transform="translate(-10,20) scale(1,1)"><path fill="#ffffff" stroke="none" d="M 169.11181640625 157.25 C 169.11181640625 142.06216799999999 205.37674760625 129.75 250.11181640625 129.75 C 294.84688520625 129.75 331.11181640625 142.06216799999999 331.11181640625 157.25 C 331.11181640625 172.43783200000001 294.84688520625 184.75 250.11181640625 184.75 C 205.37674760625 184.75 169.11181640625 172.43783200000001 169.11181640625 157.25 Z"/></g><g transform="translate(-10,20) scale(1,1)"><path fill="none" stroke="#000000" d="M 169.11181640625 157.25 C 169.11181640625 142.06216799999999 205.37674760625 129.75 250.11181640625 129.75 C 294.84688520625 129.75 331.11181640625 142.06216799999999 331.11181640625 157.25 C 331.11181640625 172.43783200000001 294.84688520625 184.75 250.11181640625 184.75 C 205.37674760625 184.75 169.11181640625 172.43783200000001 169.11181640625 157.25 Z" stroke-miterlimit="10"/></g><g transform="translate(-10,20) scale(1,1)"><g><path fill="none" stroke="none"/><text fill="#000000" stroke="none" font-family="Arial" font-size="13px" font-style="normal" font-weight="bold" text-decoration="none" x="200.971435546875" y="156.75">Content Creation</text></g></g><g transform="translate(-10,20) scale(1,1)"><g><path fill="none" stroke="none"/><text fill="#000000" stroke="none" font-family="Arial" font-size="13px" font-style="normal" font-weight="normal" text-decoration="none" x="199.187744140625" y="171.75">(from Use Cases)</text></g></g><g transform="translate(-10,20) scale(1,1)"><path fill="#C0C0C0" stroke="none" d="M 168.11181640625 819.75 C 168.11181640625 804.562168 207.95846920625002 792.25 257.11181640625 792.25 C 306.26516360625 792.25 346.11181640625 804.562168 346.11181640625 819.75 C 346.11181640625 834.937832 306.26516360625 847.25 257.11181640625 847.25 C 207.95846920625002 847.25 168.11181640625 834.937832 168.11181640625 819.75 Z" opacity="0.2"/></g><g transform="translate(-10,20) scale(1,1)"><path fill="#ffffff" stroke="none" d="M 161.11181640625 812.75 C 161.11181640625 797.562168 200.95846920625002 785.25 250.11181640625 785.25 C 299.26516360625 785.25 339.11181640625 797.562168 339.11181640625 812.75 C 339.11181640625 827.937832 299.26516360625 840.25 250.11181640625 840.25 C 200.95846920625002 840.25 161.11181640625 827.937832 161.11181640625 812.75 Z"/></g><g transform="translate(-10,20) scale(1,1)"><path fill="none" stroke="#000000" d="M 161.11181640625 812.75 C 161.11181640625 797.562168 200.95846920625002 785.25 250.11181640625 785.25 C 299.26516360625 785.25 339.11181640625 797.562168 339.11181640625 812.75 C 339.11181640625 827.937832 299.26516360625 840.25 250.11181640625 840.25 C 200.95846920625002 840.25 161.11181640625 827.937832 161.11181640625 812.75 Z" stroke-miterlimit="10"/></g><g transform="translate(-10,20) scale(1,1)"><g><path fill="none" stroke="none"/><text fill="#000000" stroke="none" font-family="Arial" font-size="13px" font-style="normal" font-weight="bold" text-decoration="none" x="194.83642578125" y="812.25">Execute Command</text></g></g><g transform="translate(-10,20) scale(1,1)"><g><path fill="none" stroke="none"/><text fill="#000000" stroke="none" font-family="Arial" font-size="13px" font-style="normal" font-weight="normal" text-decoration="none" x="199.187744140625" y="827.25">(from Use Cases)</text></g></g><g transform="translate(-10,20) scale(1,1)"><path fill="#C0C0C0" stroke="none" d="M 178.61181640625 608.75 C 178.61181640625 593.562168 213.75745960625 581.25 257.11181640625 581.25 C 300.46617320625 581.25 335.61181640625 593.562168 335.61181640625 608.75 C 335.61181640625 623.937832 300.46617320625 636.25 257.11181640625 636.25 C 213.75745960625 636.25 178.61181640625 623.937832 178.61181640625 608.75 Z" opacity="0.2"/></g><g transform="translate(-10,20) scale(1,1)"><path fill="#ffffff" stroke="none" d="M 171.61181640625 601.75 C 171.61181640625 586.562168 206.75745960625 574.25 250.11181640625 574.25 C 293.46617320625 574.25 328.61181640625 586.562168 328.61181640625 601.75 C 328.61181640625 616.937832 293.46617320625 629.25 250.11181640625 629.25 C 206.75745960625 629.25 171.61181640625 616.937832 171.61181640625 601.75 Z"/></g><g transform="translate(-10,20) scale(1,1)"><path fill="none" stroke="#000000" d="M 171.61181640625 601.75 C 171.61181640625 586.562168 206.75745960625 574.25 250.11181640625 574.25 C 293.46617320625 574.25 328.61181640625 586.562168 328.61181640625 601.75 C 328.61181640625 616.937832 293.46617320625 629.25 250.11181640625 629.25 C 206.75745960625 629.25 171.61181640625 616.937832 171.61181640625 601.75 Z" stroke-miterlimit="10"/></g><g transform="translate(-10,20) scale(1,1)"><g><path fill="none" stroke="none"/><text fill="#000000" stroke="none" font-family="Arial" font-size="13px" font-style="normal" font-weight="bold" text-decoration="none" x="208.937744140625" y="601.25">VR Immersion</text></g></g><g transform="translate(-10,20) scale(1,1)"><g><path fill="none" stroke="none"/><text fill="#000000" stroke="none" font-family="Arial" font-size="13px" font-style="normal" font-weight="normal" text-decoration="none" x="199.187744140625" y="616.25">(from Use Cases)</text></g></g><g transform="translate(-10,20) scale(1,1)"><path fill="#C0C0C0" stroke="none" d="M 142.11181640625 729.25 C 142.11181640625 714.062168 193.59906440625 701.75 257.11181640625 701.75 C 320.62456840625 701.75 372.11181640625 714.062168 372.11181640625 729.25 C 372.11181640625 744.437832 320.62456840625 756.75 257.11181640625 756.75 C 193.59906440625 756.75 142.11181640625 744.437832 142.11181640625 729.25 Z" opacity="0.2"/></g><g transform="translate(-10,20) scale(1,1)"><path fill="#ffffff" stroke="none" d="M 135.11181640625 722.25 C 135.11181640625 707.062168 186.59906440625 694.75 250.11181640625 694.75 C 313.62456840625 694.75 365.11181640625 707.062168 365.11181640625 722.25 C 365.11181640625 737.437832 313.62456840625 749.75 250.11181640625 749.75 C 186.59906440625 749.75 135.11181640625 737.437832 135.11181640625 722.25 Z"/></g><g transform="translate(-10,20) scale(1,1)"><path fill="none" stroke="#000000" d="M 135.11181640625 722.25 C 135.11181640625 707.062168 186.59906440625 694.75 250.11181640625 694.75 C 313.62456840625 694.75 365.11181640625 707.062168 365.11181640625 722.25 C 365.11181640625 737.437832 313.62456840625 749.75 250.11181640625 749.75 C 186.59906440625 749.75 135.11181640625 737.437832 135.11181640625 722.25 Z" stroke-miterlimit="10"/></g><g transform="translate(-10,20) scale(1,1)"><g><path fill="none" stroke="none"/><text fill="#000000" stroke="none" font-family="Arial" font-size="13px" font-style="normal" font-weight="bold" text-decoration="none" x="178.92919921875" y="721.75">Modeling and Simulation</text></g></g><g transform="translate(-10,20) scale(1,1)"><g><path fill="none" stroke="none"/><text fill="#000000" stroke="none" font-family="Arial" font-size="13px" font-style="normal" font-weight="normal" text-decoration="none" x="199.187744140625" y="736.75">(from Use Cases)</text></g></g><g transform="translate(-10,20) scale(1,1)"><path fill="#C0C0C0" stroke="none" d="M 178.61181640625 931.5 C 178.61181640625 916.312168 213.75745960625 904 257.11181640625 904 C 300.46617320625 904 335.61181640625 916.312168 335.61181640625 931.5 C 335.61181640625 946.687832 300.46617320625 959 257.11181640625 959 C 213.75745960625 959 178.61181640625 946.687832 178.61181640625 931.5 Z" opacity="0.2"/></g><g transform="translate(-10,20) scale(1,1)"><path fill="#ffffff" stroke="none" d="M 171.61181640625 924.5 C 171.61181640625 909.312168 206.75745960625 897 250.11181640625 897 C 293.46617320625 897 328.61181640625 909.312168 328.61181640625 924.5 C 328.61181640625 939.687832 293.46617320625 952 250.11181640625 952 C 206.75745960625 952 171.61181640625 939.687832 171.61181640625 924.5 Z"/></g><g transform="translate(-10,20) scale(1,1)"><path fill="none" stroke="#000000" d="M 171.61181640625 924.5 C 171.61181640625 909.312168 206.75745960625 897 250.11181640625 897 C 293.46617320625 897 328.61181640625 909.312168 328.61181640625 924.5 C 328.61181640625 939.687832 293.46617320625 952 250.11181640625 952 C 206.75745960625 952 171.61181640625 939.687832 171.61181640625 924.5 Z" stroke-miterlimit="10"/></g><g transform="translate(-10,20) scale(1,1)"><g><path fill="none" stroke="none"/><text fill="#000000" stroke="none" font-family="Arial" font-size="13px" font-style="normal" font-weight="bold" text-decoration="none" x="210.734130859375" y="924">Robotic Chair</text></g></g><g transform="translate(-10,20) scale(1,1)"><g><path fill="none" stroke="none"/><text fill="#000000" stroke="none" font-family="Arial" font-size="13px" font-style="normal" font-weight="normal" text-decoration="none" x="199.187744140625" y="939">(from Use Cases)</text></g></g><g transform="translate(-10,20) scale(1,1)"><path fill="#ffffff" stroke="none" d="M 53.37663547585227 312.43 C 53.37663547585227 307.636167936 57.262477800797726 303.75 62.055908203125 303.75 C 66.84933860545227 303.75 70.73518093039773 307.636167936 70.73518093039773 312.43 C 70.73518093039773 317.223832064 66.84933860545227 321.11 62.055908203125 321.11 C 57.262477800797726 321.11 53.37663547585227 317.223832064 53.37663547585227 312.43 Z"/></g><g transform="translate(-10,20) scale(1,1)"><path fill="none" stroke="#000000" d="M 53.37663547585227 312.43 C 53.37663547585227 307.636167936 57.262477800797726 303.75 62.055908203125 303.75 C 66.84933860545227 303.75 70.73518093039773 307.636167936 70.73518093039773 312.43 C 70.73518093039773 317.223832064 66.84933860545227 321.11 62.055908203125 321.11 C 57.262477800797726 321.11 53.37663547585227 317.223832064 53.37663547585227 312.43 Z" stroke-miterlimit="10"/></g><g transform="translate(-10,20) scale(1,1)"><path fill="none" stroke="#000000" d="M 62.055908203125 321.11 L 62.055908203125 338.39" stroke-miterlimit="10"/></g><g transform="translate(-10,20) scale(1,1)"><path fill="none" stroke="#000000" d="M 52.86609002130682 327.59 L 71.24572638494318 327.59" stroke-miterlimit="10"/></g><g transform="translate(-10,20) scale(1,1)"><path fill="none" stroke="#000000" d="M 62.055908203125 338.39 L 49.292271839488635 355.75" stroke-miterlimit="10"/></g><g transform="translate(-10,20) scale(1,1)"><path fill="none" stroke="#000000" d="M 62.055908203125 338.39 L 74.81954456676137 355.75" stroke-miterlimit="10"/></g><g transform="translate(-10,20) scale(1,1)"><g><path fill="none" stroke="none"/><text fill="#000000" stroke="none" font-family="Arial" font-size="13px" font-style="normal" font-weight="bold" text-decoration="none" x="46.52001953125" y="376.25">Peter</text></g></g><g transform="translate(-10,20) scale(1,1)"><g><path fill="none" stroke="none"/><text fill="#000000" stroke="none" font-family="Arial" font-size="13px" font-style="normal" font-weight="normal" text-decoration="none" x="24.5" y="391.25">(from Actors)</text></g></g><g transform="translate(-10,20) scale(1,1)"><path fill="none" stroke="#000000" d="M 62 349 Q 105 364 112.5 366.5 Q 120 369 171 369" stroke-miterlimit="10"/></g><g transform="translate(-10,20) scale(1,1)"><path fill="none" stroke="#000000" d="M 71 302 Q 120 48 171 48" stroke-miterlimit="10"/></g><g transform="translate(-10,20) scale(1,1)"><path fill="none" stroke="#000000" d="M 76 302 Q 120 158 168 158" stroke-miterlimit="10"/></g><g transform="translate(-10,20) scale(1,1)"><path fill="none" stroke="#000000" d="M 68 398 Q 68 398 94 605.5 Q 120 813 160 813" stroke-miterlimit="10"/></g><g transform="translate(-10,20) scale(1,1)"><path fill="none" stroke="#000000" d="M 73 398 Q 73 398 96.5 500 Q 120 602 171 602" stroke-miterlimit="10"/></g><g transform="translate(-10,20) scale(1,1)"><path fill="#ffffff" stroke="none" d="M 590.2152585227273 862.6800000000001 C 590.2152585227273 857.8861679360001 594.1011008476727 854 598.89453125 854 C 603.6879616523273 854 607.5738039772727 857.8861679360001 607.5738039772727 862.6800000000001 C 607.5738039772727 867.473832064 603.6879616523273 871.36 598.89453125 871.36 C 594.1011008476727 871.36 590.2152585227273 867.473832064 590.2152585227273 862.6800000000001 Z"/></g><g transform="translate(-10,20) scale(1,1)"><path fill="none" stroke="#000000" d="M 590.2152585227273 862.6800000000001 C 590.2152585227273 857.8861679360001 594.1011008476727 854 598.89453125 854 C 603.6879616523273 854 607.5738039772727 857.8861679360001 607.5738039772727 862.6800000000001 C 607.5738039772727 867.473832064 603.6879616523273 871.36 598.89453125 871.36 C 594.1011008476727 871.36 590.2152585227273 867.473832064 590.2152585227273 862.6800000000001 Z" stroke-miterlimit="10"/></g><g transform="translate(-10,20) scale(1,1)"><path fill="none" stroke="#000000" d="M 598.89453125 871.36 L 598.89453125 888.64" stroke-miterlimit="10"/></g><g transform="translate(-10,20) scale(1,1)"><path fill="none" stroke="#000000" d="M 589.7047130681818 877.84 L 608.0843494318182 877.84" stroke-miterlimit="10"/></g><g transform="translate(-10,20) scale(1,1)"><path fill="none" stroke="#000000" d="M 598.89453125 888.64 L 586.1308948863636 906" stroke-miterlimit="10"/></g><g transform="translate(-10,20) scale(1,1)"><path fill="none" stroke="#000000" d="M 598.89453125 888.64 L 611.6581676136364 906" stroke-miterlimit="10"/></g><g transform="translate(-10,20) scale(1,1)"><g><path fill="none" stroke="none"/><text fill="#000000" stroke="none" font-family="Arial" font-size="13px" font-style="normal" font-weight="bold" text-decoration="none" x="580.587890625" y="926.5">Virtual</text></g></g><g transform="translate(-10,20) scale(1,1)"><g><path fill="none" stroke="none"/><text fill="#000000" stroke="none" font-family="Arial" font-size="13px" font-style="normal" font-weight="normal" text-decoration="none" x="561.338623046875" y="941.5">(from Actors)</text></g></g><g transform="translate(-10,20) scale(1,1)"><path fill="#ffffff" stroke="none" d="M 748.7711667258523 722.6800000000001 C 748.7711667258523 717.8861679360001 752.6570090507977 714 757.450439453125 714 C 762.2438698554523 714 766.1297121803977 717.8861679360001 766.1297121803977 722.6800000000001 C 766.1297121803977 727.473832064 762.2438698554523 731.36 757.450439453125 731.36 C 752.6570090507977 731.36 748.7711667258523 727.473832064 748.7711667258523 722.6800000000001 Z"/></g><g transform="translate(-10,20) scale(1,1)"><path fill="none" stroke="#000000" d="M 748.7711667258523 722.6800000000001 C 748.7711667258523 717.8861679360001 752.6570090507977 714 757.450439453125 714 C 762.2438698554523 714 766.1297121803977 717.8861679360001 766.1297121803977 722.6800000000001 C 766.1297121803977 727.473832064 762.2438698554523 731.36 757.450439453125 731.36 C 752.6570090507977 731.36 748.7711667258523 727.473832064 748.7711667258523 722.6800000000001 Z" stroke-miterlimit="10"/></g><g transform="translate(-10,20) scale(1,1)"><path fill="none" stroke="#000000" d="M 757.450439453125 731.36 L 757.450439453125 748.64" stroke-miterlimit="10"/></g><g transform="translate(-10,20) scale(1,1)"><path fill="none" stroke="#000000" d="M 748.2606212713068 737.84 L 766.6402576349432 737.84" stroke-miterlimit="10"/></g><g transform="translate(-10,20) scale(1,1)"><path fill="none" stroke="#000000" d="M 757.450439453125 748.64 L 744.6868030894886 766" stroke-miterlimit="10"/></g><g transform="translate(-10,20) scale(1,1)"><path fill="none" stroke="#000000" d="M 757.450439453125 748.64 L 770.2140758167614 766" stroke-miterlimit="10"/></g><g transform="translate(-10,20) scale(1,1)"><g><path fill="none" stroke="none"/><text fill="#000000" stroke="none" font-family="Arial" font-size="13px" font-style="normal" font-weight="bold" text-decoration="none" x="733.246826171875" y="786.5">Physical</text></g></g><g transform="translate(-10,20) scale(1,1)"><g><path fill="none" stroke="none"/><text fill="#000000" stroke="none" font-family="Arial" font-size="13px" font-style="normal" font-weight="normal" text-decoration="none" x="719.89453125" y="801.5">(from Actors)</text></g></g><g transform="translate(-10,20) scale(1,1)"><path fill="none" stroke="#000000" d="M 617 852 Q 700 645 733 712" stroke-miterlimit="10"/></g><g transform="translate(-10,20) scale(1,1)"><path fill="#FFFFFF" stroke="none" d="M 716.4666234032305 697.4863010121679 L 733 712 L 731.5718722669097 690.046402318117"/></g><g transform="translate(-10,20) scale(1,1)"><path fill="none" stroke="#000000" d="M 716.4666234032305 697.4863010121679 L 733 712 L 731.5718722669097 690.046402318117 L 716.4666234032305 697.4863010121679" stroke-miterlimit="10"/></g><g transform="translate(-10,20) scale(1,1)"><path fill="#ffffff" stroke="none" d="M 748.7711667258523 862.6800000000001 C 748.7711667258523 857.8861679360001 752.6570090507977 854 757.450439453125 854 C 762.2438698554523 854 766.1297121803977 857.8861679360001 766.1297121803977 862.6800000000001 C 766.1297121803977 867.473832064 762.2438698554523 871.36 757.450439453125 871.36 C 752.6570090507977 871.36 748.7711667258523 867.473832064 748.7711667258523 862.6800000000001 Z"/></g><g transform="translate(-10,20) scale(1,1)"><path fill="none" stroke="#000000" d="M 748.7711667258523 862.6800000000001 C 748.7711667258523 857.8861679360001 752.6570090507977 854 757.450439453125 854 C 762.2438698554523 854 766.1297121803977 857.8861679360001 766.1297121803977 862.6800000000001 C 766.1297121803977 867.473832064 762.2438698554523 871.36 757.450439453125 871.36 C 752.6570090507977 871.36 748.7711667258523 867.473832064 748.7711667258523 862.6800000000001 Z" stroke-miterlimit="10"/></g><g transform="translate(-10,20) scale(1,1)"><path fill="none" stroke="#000000" d="M 757.450439453125 871.36 L 757.450439453125 888.64" stroke-miterlimit="10"/></g><g transform="translate(-10,20) scale(1,1)"><path fill="none" stroke="#000000" d="M 748.2606212713068 877.84 L 766.6402576349432 877.84" stroke-miterlimit="10"/></g><g transform="translate(-10,20) scale(1,1)"><path fill="none" stroke="#000000" d="M 757.450439453125 888.64 L 744.6868030894886 906" stroke-miterlimit="10"/></g><g transform="translate(-10,20) scale(1,1)"><path fill="none" stroke="#000000" d="M 757.450439453125 888.64 L 770.2140758167614 906" stroke-miterlimit="10"/></g><g transform="translate(-10,20) scale(1,1)"><g><path fill="none" stroke="none"/><text fill="#000000" stroke="none" font-family="Arial" font-size="13px" font-style="normal" font-weight="bold" text-decoration="none" x="739.38818359375" y="926.5">Digital</text></g></g><g transform="translate(-10,20) scale(1,1)"><g><path fill="none" stroke="none"/><text fill="#000000" stroke="none" font-family="Arial" font-size="13px" font-style="normal" font-weight="normal" text-decoration="none" x="719.89453125" y="941.5">(from Actors)</text></g></g><g transform="translate(-10,20) scale(1,1)"><path fill="none" stroke="#000000" d="M 642 901 Q 642 901 671 901 Q 700 901 714 901" stroke-miterlimit="10"/></g><g transform="translate(-10,20) scale(1,1)"><path fill="#FFFFFF" stroke="none" d="M 693.6746502847517 909.419035512032 L 714 901 L 693.6746502847517 892.580964487968"/></g><g transform="translate(-10,20) scale(1,1)"><path fill="none" stroke="#000000" d="M 693.6746502847517 909.419035512032 L 714 901 L 693.6746502847517 892.580964487968 L 693.6746502847517 909.419035512032" stroke-miterlimit="10"/></g><g transform="translate(-10,20) scale(1,1)"><path fill="none" stroke="#000000" d="M 67 398 Q 67 398 93.5 661.5 Q 120 925 171 925" stroke-miterlimit="10"/></g><g transform="translate(-10,20) scale(1,1)"><path fill="#ffffff" stroke="none" d="M 430.57390110085225 374.93 C 430.57390110085225 370.136167936 434.45974342579774 366.25 439.253173828125 366.25 C 444.04660423045226 366.25 447.93244655539775 370.136167936 447.93244655539775 374.93 C 447.93244655539775 379.723832064 444.04660423045226 383.61 439.253173828125 383.61 C 434.45974342579774 383.61 430.57390110085225 379.723832064 430.57390110085225 374.93 Z"/></g><g transform="translate(-10,20) scale(1,1)"><path fill="none" stroke="#000000" d="M 430.57390110085225 374.93 C 430.57390110085225 370.136167936 434.45974342579774 366.25 439.253173828125 366.25 C 444.04660423045226 366.25 447.93244655539775 370.136167936 447.93244655539775 374.93 C 447.93244655539775 379.723832064 444.04660423045226 383.61 439.253173828125 383.61 C 434.45974342579774 383.61 430.57390110085225 379.723832064 430.57390110085225 374.93 Z" stroke-miterlimit="10"/></g><g transform="translate(-10,20) scale(1,1)"><path fill="none" stroke="#000000" d="M 439.253173828125 383.61 L 439.253173828125 400.89" stroke-miterlimit="10"/></g><g transform="translate(-10,20) scale(1,1)"><path fill="none" stroke="#000000" d="M 430.06335564630683 390.09 L 448.44299200994317 390.09" stroke-miterlimit="10"/></g><g transform="translate(-10,20) scale(1,1)"><path fill="none" stroke="#000000" d="M 439.253173828125 400.89 L 426.48953746448865 418.25" stroke-miterlimit="10"/></g><g transform="translate(-10,20) scale(1,1)"><path fill="none" stroke="#000000" d="M 439.253173828125 400.89 L 452.01681019176135 418.25" stroke-miterlimit="10"/></g><g transform="translate(-10,20) scale(1,1)"><g><path fill="none" stroke="none"/><text fill="#000000" stroke="none" font-family="Arial" font-size="13px" font-style="normal" font-weight="bold" text-decoration="none" x="411.075927734375" y="438.75">Caregiver</text></g></g><g transform="translate(-10,20) scale(1,1)"><g><path fill="none" stroke="none"/><text fill="#000000" stroke="none" font-family="Arial" font-size="13px" font-style="normal" font-weight="normal" text-decoration="none" x="401.697265625" y="453.75">(from Actors)</text></g></g><g transform="translate(-10,20) scale(1,1)"><path fill="none" stroke="#000000" d="M 330 395 Q 330 395 355.5 404 Q 381 413 396 413" stroke-miterlimit="10"/></g><g transform="translate(-10,20) scale(1,1)"><path fill="none" stroke="#000000" d="M 70 302 Q 120 -10 185.5 -10 Q 251 -10 316 -10 Q 381 -10 410.5 -10 Q 440 -10 469 -10 Q 498 -10 590 318" stroke-miterlimit="10"/></g><g transform="translate(-10,20) scale(1,1)"><path fill="#ffffff" stroke="none" d="M 430.57390110085225 83.18 C 430.57390110085225 78.386167936 434.45974342579774 74.5 439.253173828125 74.5 C 444.04660423045226 74.5 447.93244655539775 78.386167936 447.93244655539775 83.18 C 447.93244655539775 87.973832064 444.04660423045226 91.86 439.253173828125 91.86 C 434.45974342579774 91.86 430.57390110085225 87.973832064 430.57390110085225 83.18 Z"/></g><g transform="translate(-10,20) scale(1,1)"><path fill="none" stroke="#000000" d="M 430.57390110085225 83.18 C 430.57390110085225 78.386167936 434.45974342579774 74.5 439.253173828125 74.5 C 444.04660423045226 74.5 447.93244655539775 78.386167936 447.93244655539775 83.18 C 447.93244655539775 87.973832064 444.04660423045226 91.86 439.253173828125 91.86 C 434.45974342579774 91.86 430.57390110085225 87.973832064 430.57390110085225 83.18 Z" stroke-miterlimit="10"/></g><g transform="translate(-10,20) scale(1,1)"><path fill="none" stroke="#000000" d="M 439.253173828125 91.86 L 439.253173828125 109.14" stroke-miterlimit="10"/></g><g transform="translate(-10,20) scale(1,1)"><path fill="none" stroke="#000000" d="M 430.06335564630683 98.34 L 448.44299200994317 98.34" stroke-miterlimit="10"/></g><g transform="translate(-10,20) scale(1,1)"><path fill="none" stroke="#000000" d="M 439.253173828125 109.14 L 426.48953746448865 126.5" stroke-miterlimit="10"/></g><g transform="translate(-10,20) scale(1,1)"><path fill="none" stroke="#000000" d="M 439.253173828125 109.14 L 452.01681019176135 126.5" stroke-miterlimit="10"/></g><g transform="translate(-10,20) scale(1,1)"><g><path fill="none" stroke="none"/><text fill="#000000" stroke="none" font-family="Arial" font-size="13px" font-style="normal" font-weight="bold" text-decoration="none" x="403.845947265625" y="147">Collaborator</text></g></g><g transform="translate(-10,20) scale(1,1)"><g><path fill="none" stroke="none"/><text fill="#000000" stroke="none" font-family="Arial" font-size="13px" font-style="normal" font-weight="normal" text-decoration="none" x="401.697265625" y="162">(from Actors)</text></g></g><g transform="translate(-10,20) scale(1,1)"><path fill="none" stroke="#000000" d="M 330 48 Q 330 48 355.5 48 Q 381 48 401 73" stroke-miterlimit="10"/></g><g transform="translate(-10,20) scale(1,1)"><path fill="#ffffff" stroke="none" d="M 435.29020969460225 823.9300000000001 C 435.29020969460225 819.1361679360001 439.17605201954774 815.25 443.969482421875 815.25 C 448.76291282420226 815.25 452.64875514914775 819.1361679360001 452.64875514914775 823.9300000000001 C 452.64875514914775 828.723832064 448.76291282420226 832.61 443.969482421875 832.61 C 439.17605201954774 832.61 435.29020969460225 828.723832064 435.29020969460225 823.9300000000001 Z"/></g><g transform="translate(-10,20) scale(1,1)"><path fill="none" stroke="#000000" d="M 435.29020969460225 823.9300000000001 C 435.29020969460225 819.1361679360001 439.17605201954774 815.25 443.969482421875 815.25 C 448.76291282420226 815.25 452.64875514914775 819.1361679360001 452.64875514914775 823.9300000000001 C 452.64875514914775 828.723832064 448.76291282420226 832.61 443.969482421875 832.61 C 439.17605201954774 832.61 435.29020969460225 828.723832064 435.29020969460225 823.9300000000001 Z" stroke-miterlimit="10"/></g><g transform="translate(-10,20) scale(1,1)"><path fill="none" stroke="#000000" d="M 443.969482421875 832.61 L 443.969482421875 849.89" stroke-miterlimit="10"/></g><g transform="translate(-10,20) scale(1,1)"><path fill="none" stroke="#000000" d="M 434.77966424005683 839.09 L 453.15930060369317 839.09" stroke-miterlimit="10"/></g><g transform="translate(-10,20) scale(1,1)"><path fill="none" stroke="#000000" d="M 443.969482421875 849.89 L 431.20584605823865 867.25" stroke-miterlimit="10"/></g><g transform="translate(-10,20) scale(1,1)"><path fill="none" stroke="#000000" d="M 443.969482421875 849.89 L 456.73311878551135 867.25" stroke-miterlimit="10"/></g><g transform="translate(-10,20) scale(1,1)"><g><path fill="none" stroke="none"/><text fill="#000000" stroke="none" font-family="Arial" font-size="13px" font-style="normal" font-weight="bold" text-decoration="none" x="404.601318359375" y="887.75">Micro Service</text></g></g><g transform="translate(-10,20) scale(1,1)"><g><path fill="none" stroke="none"/><text fill="#000000" stroke="none" font-family="Arial" font-size="13px" font-style="normal" font-weight="normal" text-decoration="none" x="406.41357421875" y="902.75">(from Actors)</text></g></g><g transform="translate(-10,20) scale(1,1)"><path fill="none" stroke="#000000" d="M 492 862 Q 498 862 556 884" stroke-miterlimit="10"/></g><g transform="translate(-10,20) scale(1,1)"><path fill="#FFFFFF" stroke="none" d="M 534.0100017031457 884.663306041238 L 556 884 L 539.9816948862523 868.9197512857751"/></g><g transform="translate(-10,20) scale(1,1)"><path fill="none" stroke="#000000" d="M 534.0100017031457 884.663306041238 L 556 884 L 539.9816948862523 868.9197512857751 L 534.0100017031457 884.663306041238" stroke-miterlimit="10"/></g><g transform="translate(-10,20) scale(1,1)"><path fill="none" stroke="#000000" d="M 250 812 Q 326 841 353.5 851.5 Q 381 862 396 862" stroke-miterlimit="10"/></g><g transform="translate(-10,20) scale(1,1)"><path fill="none" stroke="#000000" d="M 250 601 Q 261 630 321 784.5 Q 381 939 410.5 939 Q 440 939 469 939 Q 498 939 556 916" stroke-miterlimit="10"/></g><g transform="translate(-10,20) scale(1,1)"><path fill="none" stroke="#000000" d="M 276 896 Q 381 784 410.5 784 Q 440 784 469 784 Q 498 784 548.5 784 Q 599 784 649.5 784 Q 700 784 714 778" stroke-miterlimit="10"/></g><g transform="translate(-10,20) scale(1,1)"><path fill="none" stroke="#000000" d="M 605 375 Q 605 375 652.5 599 Q 700 823 714 807" stroke-miterlimit="10"/></g><g transform="translate(-10,20) scale(1,1)"><path fill="none" stroke="#000000" d="M 323 129 Q 381 106 395 109" stroke-miterlimit="10"/></g><g transform="translate(-10,20) scale(1,1)"><path fill="#ffffff" stroke="none" d="M 430.57390110085225 624.9300000000001 C 430.57390110085225 620.1361679360001 434.45974342579774 616.25 439.253173828125 616.25 C 444.04660423045226 616.25 447.93244655539775 620.1361679360001 447.93244655539775 624.9300000000001 C 447.93244655539775 629.723832064 444.04660423045226 633.61 439.253173828125 633.61 C 434.45974342579774 633.61 430.57390110085225 629.723832064 430.57390110085225 624.9300000000001 Z"/></g><g transform="translate(-10,20) scale(1,1)"><path fill="none" stroke="#000000" d="M 430.57390110085225 624.9300000000001 C 430.57390110085225 620.1361679360001 434.45974342579774 616.25 439.253173828125 616.25 C 444.04660423045226 616.25 447.93244655539775 620.1361679360001 447.93244655539775 624.9300000000001 C 447.93244655539775 629.723832064 444.04660423045226 633.61 439.253173828125 633.61 C 434.45974342579774 633.61 430.57390110085225 629.723832064 430.57390110085225 624.9300000000001 Z" stroke-miterlimit="10"/></g><g transform="translate(-10,20) scale(1,1)"><path fill="none" stroke="#000000" d="M 439.253173828125 633.61 L 439.253173828125 650.89" stroke-miterlimit="10"/></g><g transform="translate(-10,20) scale(1,1)"><path fill="none" stroke="#000000" d="M 430.06335564630683 640.09 L 448.44299200994317 640.09" stroke-miterlimit="10"/></g><g transform="translate(-10,20) scale(1,1)"><path fill="none" stroke="#000000" d="M 439.253173828125 650.89 L 426.48953746448865 668.25" stroke-miterlimit="10"/></g><g transform="translate(-10,20) scale(1,1)"><path fill="none" stroke="#000000" d="M 439.253173828125 650.89 L 452.01681019176135 668.25" stroke-miterlimit="10"/></g><g transform="translate(-10,20) scale(1,1)"><g><path fill="none" stroke="none"/><text fill="#000000" stroke="none" font-family="Arial" font-size="13px" font-style="normal" font-weight="bold" text-decoration="none" x="405.655029296875" y="688.75">Researcher</text></g></g><g transform="translate(-10,20) scale(1,1)"><g><path fill="none" stroke="none"/><text fill="#000000" stroke="none" font-family="Arial" font-size="13px" font-style="normal" font-weight="normal" text-decoration="none" x="401.697265625" y="703.75">(from Actors)</text></g></g><g transform="translate(-10,20) scale(1,1)"><path fill="none" stroke="#000000" d="M 285 694 Q 381 615 396 627" stroke-miterlimit="10"/></g><g transform="translate(-10,20) scale(1,1)"><path fill="#ffffff" stroke="none" d="M 241.43254367897728 225.43 C 241.43254367897728 220.636167936 245.3183860039227 216.75 250.11181640625 216.75 C 254.9052468085773 216.75 258.79108913352275 220.636167936 258.79108913352275 225.43 C 258.79108913352275 230.22383206400002 254.9052468085773 234.11 250.11181640625 234.11 C 245.3183860039227 234.11 241.43254367897728 230.22383206400002 241.43254367897728 225.43 Z"/></g><g transform="translate(-10,20) scale(1,1)"><path fill="none" stroke="#000000" d="M 241.43254367897728 225.43 C 241.43254367897728 220.636167936 245.3183860039227 216.75 250.11181640625 216.75 C 254.9052468085773 216.75 258.79108913352275 220.636167936 258.79108913352275 225.43 C 258.79108913352275 230.22383206400002 254.9052468085773 234.11 250.11181640625 234.11 C 245.3183860039227 234.11 241.43254367897728 230.22383206400002 241.43254367897728 225.43 Z" stroke-miterlimit="10"/></g><g transform="translate(-10,20) scale(1,1)"><path fill="none" stroke="#000000" d="M 250.11181640625 234.11 L 250.11181640625 251.39" stroke-miterlimit="10"/></g><g transform="translate(-10,20) scale(1,1)"><path fill="none" stroke="#000000" d="M 240.92199822443183 240.59 L 259.30163458806817 240.59" stroke-miterlimit="10"/></g><g transform="translate(-10,20) scale(1,1)"><path fill="none" stroke="#000000" d="M 250.11181640625 251.39 L 237.34818004261365 268.75" stroke-miterlimit="10"/></g><g transform="translate(-10,20) scale(1,1)"><path fill="none" stroke="#000000" d="M 250.11181640625 251.39 L 262.87545276988635 268.75" stroke-miterlimit="10"/></g><g transform="translate(-10,20) scale(1,1)"><g><path fill="none" stroke="none"/><text fill="#000000" stroke="none" font-family="Arial" font-size="13px" font-style="normal" font-weight="bold" text-decoration="none" x="226.263671875" y="289.25">Supplier</text></g></g><g transform="translate(-10,20) scale(1,1)"><g><path fill="none" stroke="none"/><text fill="#000000" stroke="none" font-family="Arial" font-size="13px" font-style="normal" font-weight="normal" text-decoration="none" x="212.555908203125" y="304.25">(from Actors)</text></g></g><g transform="translate(-10,20) scale(1,1)"><path fill="none" stroke="#000000" d="M 250 262 Q 293 240 337 216 Q 381 192 400 169" stroke-miterlimit="10"/></g><g transform="translate(-10,20) scale(1,1)"><path fill="#FFFFFF" stroke="none" d="M 393.5459162280138 190.03199473811708 L 400 169 L 380.5644074972802 179.30813969968492"/></g><g transform="translate(-10,20) scale(1,1)"><path fill="none" stroke="#000000" d="M 393.5459162280138 190.03199473811708 L 400 169 L 380.5644074972802 179.30813969968492 L 393.5459162280138 190.03199473811708" stroke-miterlimit="10"/></g><g transform="translate(-10,20) scale(1,1)"><path fill="none" stroke="#000000" d="M 439 662 Q 482 663 490 663 Q 498 663 519 666" stroke-miterlimit="10"/></g><g transform="translate(-10,20) scale(1,1)"><path fill="none" stroke="#000000" d="M 264 311 Q 264 311 322.5 525.5 Q 381 740 410.5 740 Q 440 740 469 740 Q 498 740 553 705" stroke-miterlimit="10"/></g><g transform="translate(-10,20) scale(1,1)"><path fill="none" stroke="#000000" d="M 70 398 Q 70 398 95 560.5 Q 120 723 134 723" stroke-miterlimit="10"/></g><g transform="translate(-10,20) scale(1,1)"><path fill="none" stroke="#000000" d="M 439 412 Q 482 413 490 413 Q 498 413 555 375" stroke-miterlimit="10"/></g><g transform="translate(-10,20) scale(1,1)"><path fill="#ffffff" stroke="none" d="M 748.7711667258523 309.18 C 748.7711667258523 304.386167936 752.6570090507977 300.5 757.450439453125 300.5 C 762.2438698554523 300.5 766.1297121803977 304.386167936 766.1297121803977 309.18 C 766.1297121803977 313.973832064 762.2438698554523 317.86 757.450439453125 317.86 C 752.6570090507977 317.86 748.7711667258523 313.973832064 748.7711667258523 309.18 Z"/></g><g transform="translate(-10,20) scale(1,1)"><path fill="none" stroke="#000000" d="M 748.7711667258523 309.18 C 748.7711667258523 304.386167936 752.6570090507977 300.5 757.450439453125 300.5 C 762.2438698554523 300.5 766.1297121803977 304.386167936 766.1297121803977 309.18 C 766.1297121803977 313.973832064 762.2438698554523 317.86 757.450439453125 317.86 C 752.6570090507977 317.86 748.7711667258523 313.973832064 748.7711667258523 309.18 Z" stroke-miterlimit="10"/></g><g transform="translate(-10,20) scale(1,1)"><path fill="none" stroke="#000000" d="M 757.450439453125 317.86 L 757.450439453125 335.14" stroke-miterlimit="10"/></g><g transform="translate(-10,20) scale(1,1)"><path fill="none" stroke="#000000" d="M 748.2606212713068 324.34 L 766.6402576349432 324.34" stroke-miterlimit="10"/></g><g transform="translate(-10,20) scale(1,1)"><path fill="none" stroke="#000000" d="M 757.450439453125 335.14 L 744.6868030894886 352.5" stroke-miterlimit="10"/></g><g transform="translate(-10,20) scale(1,1)"><path fill="none" stroke="#000000" d="M 757.450439453125 335.14 L 770.2140758167614 352.5" stroke-miterlimit="10"/></g><g transform="translate(-10,20) scale(1,1)"><g><path fill="none" stroke="none"/><text fill="#000000" stroke="none" font-family="Arial" font-size="13px" font-style="normal" font-weight="bold" text-decoration="none" x="738.312255859375" y="373">Family</text></g></g><g transform="translate(-10,20) scale(1,1)"><g><path fill="none" stroke="none"/><text fill="#000000" stroke="none" font-family="Arial" font-size="13px" font-style="normal" font-weight="normal" text-decoration="none" x="719.89453125" y="388">(from Actors)</text></g></g><g transform="translate(-10,20) scale(1,1)"><path fill="none" stroke="#000000" d="M 598 346 Q 685 347 692.5 347 Q 700 347 714 347" stroke-miterlimit="10"/></g><g transform="translate(-10,20) scale(1,1)"><path fill="none" stroke="#000000" d="M 265 751 Q 265 751 323 860 Q 381 969 410.5 969 Q 440 969 469 969 Q 498 969 556 929" stroke-miterlimit="10"/></g><g transform="translate(-10,20) scale(1,1)"><path fill="none" stroke="#000000" d="M 262 397 Q 262 397 321.5 542 Q 381 687 396 680" stroke-miterlimit="10"/></g><g transform="translate(-10,20) scale(1,1)"><path fill="none" stroke="#000000" d="M 264 573 Q 381 335 426 169" stroke-miterlimit="10"/></g><g transform="translate(-10,20) scale(1,1)"><path fill="#ffffff" stroke="none" d="M 430.57390110085225 499.93 C 430.57390110085225 495.136167936 434.45974342579774 491.25 439.253173828125 491.25 C 444.04660423045226 491.25 447.93244655539775 495.136167936 447.93244655539775 499.93 C 447.93244655539775 504.723832064 444.04660423045226 508.61 439.253173828125 508.61 C 434.45974342579774 508.61 430.57390110085225 504.723832064 430.57390110085225 499.93 Z"/></g><g transform="translate(-10,20) scale(1,1)"><path fill="none" stroke="#000000" d="M 430.57390110085225 499.93 C 430.57390110085225 495.136167936 434.45974342579774 491.25 439.253173828125 491.25 C 444.04660423045226 491.25 447.93244655539775 495.136167936 447.93244655539775 499.93 C 447.93244655539775 504.723832064 444.04660423045226 508.61 439.253173828125 508.61 C 434.45974342579774 508.61 430.57390110085225 504.723832064 430.57390110085225 499.93 Z" stroke-miterlimit="10"/></g><g transform="translate(-10,20) scale(1,1)"><path fill="none" stroke="#000000" d="M 439.253173828125 508.61 L 439.253173828125 525.89" stroke-miterlimit="10"/></g><g transform="translate(-10,20) scale(1,1)"><path fill="none" stroke="#000000" d="M 430.06335564630683 515.09 L 448.44299200994317 515.09" stroke-miterlimit="10"/></g><g transform="translate(-10,20) scale(1,1)"><path fill="none" stroke="#000000" d="M 439.253173828125 525.89 L 426.48953746448865 543.25" stroke-miterlimit="10"/></g><g transform="translate(-10,20) scale(1,1)"><path fill="none" stroke="#000000" d="M 439.253173828125 525.89 L 452.01681019176135 543.25" stroke-miterlimit="10"/></g><g transform="translate(-10,20) scale(1,1)"><g><path fill="none" stroke="none"/><text fill="#000000" stroke="none" font-family="Arial" font-size="13px" font-style="normal" font-weight="bold" text-decoration="none" x="414.319580078125" y="563.75">AI Agent</text></g></g><g transform="translate(-10,20) scale(1,1)"><g><path fill="none" stroke="none"/><text fill="#000000" stroke="none" font-family="Arial" font-size="13px" font-style="normal" font-weight="normal" text-decoration="none" x="401.697265625" y="578.75">(from Actors)</text></g></g><g transform="translate(-10,20) scale(1,1)"><path fill="none" stroke="#000000" d="M 439 537 Q 482 538 490 538 Q 498 538 583 375" stroke-miterlimit="10"/></g><g transform="translate(-10,20) scale(1,1)"><path fill="none" stroke="#000000" d="M 262 186 Q 262 186 321.5 338 Q 381 490 396 502" stroke-miterlimit="10"/></g><g transform="translate(-10,20) scale(1,1)"><path fill="none" stroke="#000000" d="M 270 694 Q 381 538 396 538" stroke-miterlimit="10"/></g><g transform="translate(-10,20) scale(1,1)"><path fill="none" stroke="#000000" d="M 266 784 Q 381 585 396 572" stroke-miterlimit="10"/></g></g></svg>