<svg version="1.1" xmlns="http://www.w3.org/2000/svg" xmlns:xlink="http://www.w3.org/1999/xlink" width="489.54443359375" height="247"><defs/><g><text fill="#eeeeee" stroke="none" font-family="Arial" font-size="24px" font-style="normal" font-weight="normal" text-decoration="none" x="0" y="0">UNREGISTERED</text><text fill="#eeeeee" stroke="none" font-family="Arial" font-size="24px" font-style="normal" font-weight="normal" text-decoration="none" x="0" y="30">UNREGISTERED</text><text fill="#eeeeee" stroke="none" font-family="Arial" font-size="24px" font-style="normal" font-weight="normal" text-decoration="none" x="0" y="60">UNREGISTERED</text><text fill="#eeeeee" stroke="none" font-family="Arial" font-size="24px" font-style="normal" font-weight="normal" text-decoration="none" x="0" y="90">UNREGISTERED</text><text fill="#eeeeee" stroke="none" font-family="Arial" font-size="24px" font-style="normal" font-weight="normal" text-decoration="none" x="0" y="120">UNREGISTERED</text><text fill="#eeeeee" stroke="none" font-family="Arial" font-size="24px" font-style="normal" font-weight="normal" text-decoration="none" x="0" y="150">UNREGISTERED</text><text fill="#eeeeee" stroke="none" font-family="Arial" font-size="24px" font-style="normal" font-weight="normal" text-decoration="none" x="0" y="180">UNREGISTERED</text><text fill="#eeeeee" stroke="none" font-family="Arial" font-size="24px" font-style="normal" font-weight="normal" text-decoration="none" x="0" y="210">UNREGISTERED</text><text fill="#eeeeee" stroke="none" font-family="Arial" font-size="24px" font-style="normal" font-weight="normal" text-decoration="none" x="0" y="240">UNREGISTERED</text><text fill="#eeeeee" stroke="none" font-family="Arial" font-size="24px" font-style="normal" font-weight="normal" text-decoration="none" x="200" y="0">UNREGISTERED</text><text fill="#eeeeee" stroke="none" font-family="Arial" font-size="24px" font-style="normal" font-weight="normal" text-decoration="none" x="200" y="30">UNREGISTERED</text><text fill="#eeeeee" stroke="none" font-family="Arial" font-size="24px" font-style="normal" font-weight="normal" text-decoration="none" x="200" y="60">UNREGISTERED</text><text fill="#eeeeee" stroke="none" font-family="Arial" font-size="24px" font-style="normal" font-weight="normal" text-decoration="none" x="200" y="90">UNREGISTERED</text><text fill="#eeeeee" stroke="none" font-family="Arial" font-size="24px" font-style="normal" font-weight="normal" text-decoration="none" x="200" y="120">UNREGISTERED</text><text fill="#eeeeee" stroke="none" font-family="Arial" font-size="24px" font-style="normal" font-weight="normal" text-decoration="none" x="200" y="150">UNREGISTERED</text><text fill="#eeeeee" stroke="none" font-family="Arial" font-size="24px" font-style="normal" font-weight="normal" text-decoration="none" x="200" y="180">UNREGISTERED</text><text fill="#eeeeee" stroke="none" font-family="Arial" font-size="24px" font-style="normal" font-weight="normal" text-decoration="none" x="200" y="210">UNREGISTERED</text><text fill="#eeeeee" stroke="none" font-family="Arial" font-size="24px" font-style="normal" font-weight="normal" text-decoration="none" x="200" y="240">UNREGISTERED</text><text fill="#eeeeee" stroke="none" font-family="Arial" font-size="24px" font-style="normal" font-weight="normal" text-decoration="none" x="400" y="0">UNREGISTERED</text><text fill="#eeeeee" stroke="none" font-family="Arial" font-size="24px" font-style="normal" font-weight="normal" text-decoration="none" x="400" y="30">UNREGISTERED</text><text fill="#eeeeee" stroke="none" font-family="Arial" font-size="24px" font-style="normal" font-weight="normal" text-decoration="none" x="400" y="60">UNREGISTERED</text><text fill="#eeeeee" stroke="none" font-family="Arial" font-size="24px" font-style="normal" font-weight="normal" text-decoration="none" x="400" y="90">UNREGISTERED</text><text fill="#eeeeee" stroke="none" font-family="Arial" font-size="24px" font-style="normal" font-weight="normal" text-decoration="none" x="400" y="120">UNREGISTERED</text><text fill="#eeeeee" stroke="none" font-family="Arial" font-size="24px" font-style="normal" font-weight="normal" text-decoration="none" x="400" y="150">UNREGISTERED</text><text fill="#eeeeee" stroke="none" font-family="Arial" font-size="24px" font-style="normal" font-weight="normal" text-decoration="none" x="400" y="180">UNREGISTERED</text><text fill="#eeeeee" stroke="none" font-family="Arial" font-size="24px" font-style="normal" font-weight="normal" text-decoration="none" x="400" y="210">UNREGISTERED</text><text fill="#eeeeee" stroke="none" font-family="Arial" font-size="24px" font-style="normal" font-weight="normal" text-decoration="none" x="400" y="240">UNREGISTERED</text><g transform="translate(-498,-410) scale(1,1)"><path fill="#C0C0C0" stroke="none" d="M 515 454.5 C 515 439.312168 592.230872 427 687.5 427 C 782.769128 427 860 439.312168 860 454.5 C 860 469.687832 782.769128 482 687.5 482 C 592.230872 482 515 469.687832 515 454.5 Z" opacity="0.2"/></g><g transform="translate(-498,-410) scale(1,1)"><path fill="#ffffff" stroke="none" d="M 508 447.5 C 508 432.312168 585.230872 420 680.5 420 C 775.769128 420 853 432.312168 853 447.5 C 853 462.687832 775.769128 475 680.5 475 C 585.230872 475 508 462.687832 508 447.5 Z"/></g><g transform="translate(-498,-410) scale(1,1)"><path fill="none" stroke="#000000" d="M 508 447.5 C 508 432.312168 585.230872 420 680.5 420 C 775.769128 420 853 432.312168 853 447.5 C 853 462.687832 775.769128 475 680.5 475 C 585.230872 475 508 462.687832 508 447.5 Z" stroke-miterlimit="10"/></g><g transform="translate(-498,-410) scale(1,1)"><g><path fill="none" stroke="none"/><text fill="#000000" stroke="none" font-family="Arial" font-size="13px" font-style="normal" font-weight="bold" text-decoration="none" x="570.676025390625" y="447">Standard Multi-Modal Sensor Network</text></g></g><g transform="translate(-498,-410) scale(1,1)"><g><path fill="none" stroke="none"/><text fill="#000000" stroke="none" font-family="Arial" font-size="13px" font-style="normal" font-weight="normal" text-decoration="none" x="629.575927734375" y="462">(from Use Cases)</text></g></g><g transform="translate(-498,-410) scale(1,1)"><path fill="#C0C0C0" stroke="none" d="M 544.5 540.5 C 544.5 525.312168 608.5232736 513 687.5 513 C 766.4767264 513 830.5 525.312168 830.5 540.5 C 830.5 555.687832 766.4767264 568 687.5 568 C 608.5232736 568 544.5 555.687832 544.5 540.5 Z" opacity="0.2"/></g><g transform="translate(-498,-410) scale(1,1)"><path fill="#ffffff" stroke="none" d="M 537.5 533.5 C 537.5 518.312168 601.5232736 506 680.5 506 C 759.4767264 506 823.5 518.312168 823.5 533.5 C 823.5 548.687832 759.4767264 561 680.5 561 C 601.5232736 561 537.5 548.687832 537.5 533.5 Z"/></g><g transform="translate(-498,-410) scale(1,1)"><path fill="none" stroke="#000000" d="M 537.5 533.5 C 537.5 518.312168 601.5232736 506 680.5 506 C 759.4767264 506 823.5 518.312168 823.5 533.5 C 823.5 548.687832 759.4767264 561 680.5 561 C 601.5232736 561 537.5 548.687832 537.5 533.5 Z" stroke-miterlimit="10"/></g><g transform="translate(-498,-410) scale(1,1)"><g><path fill="none" stroke="none"/><text fill="#000000" stroke="none" font-family="Arial" font-size="13px" font-style="normal" font-weight="bold" text-decoration="none" x="594.505126953125" y="533">Standard Application Runtime</text></g></g><g transform="translate(-498,-410) scale(1,1)"><g><path fill="none" stroke="none"/><text fill="#000000" stroke="none" font-family="Arial" font-size="13px" font-style="normal" font-weight="normal" text-decoration="none" x="629.575927734375" y="548">(from Use Cases)</text></g></g><g transform="translate(-498,-410) scale(1,1)"><path fill="#C0C0C0" stroke="none" d="M 571 626.5 C 571 611.312168 623.1588208000001 599 687.5 599 C 751.8411791999999 599 804 611.312168 804 626.5 C 804 641.687832 751.8411791999999 654 687.5 654 C 623.1588208000001 654 571 641.687832 571 626.5 Z" opacity="0.2"/></g><g transform="translate(-498,-410) scale(1,1)"><path fill="#ffffff" stroke="none" d="M 564 619.5 C 564 604.312168 616.1588208000001 592 680.5 592 C 744.8411791999999 592 797 604.312168 797 619.5 C 797 634.687832 744.8411791999999 647 680.5 647 C 616.1588208000001 647 564 634.687832 564 619.5 Z"/></g><g transform="translate(-498,-410) scale(1,1)"><path fill="none" stroke="#000000" d="M 564 619.5 C 564 604.312168 616.1588208000001 592 680.5 592 C 744.8411791999999 592 797 604.312168 797 619.5 C 797 634.687832 744.8411791999999 647 680.5 647 C 616.1588208000001 647 564 634.687832 564 619.5 Z" stroke-miterlimit="10"/></g><g transform="translate(-498,-410) scale(1,1)"><g><path fill="none" stroke="none"/><text fill="#000000" stroke="none" font-family="Arial" font-size="13px" font-style="normal" font-weight="bold" text-decoration="none" x="608.60009765625" y="619">Data Archiving Approach</text></g></g><g transform="translate(-498,-410) scale(1,1)"><g><path fill="none" stroke="none"/><text fill="#000000" stroke="none" font-family="Arial" font-size="13px" font-style="normal" font-weight="normal" text-decoration="none" x="629.575927734375" y="634">(from Use Cases)</text></g></g><g transform="translate(-498,-410) scale(1,1)"><path fill="#ffffff" stroke="none" d="M 922.0929440696023 496.18 C 922.0929440696023 491.386167936 925.9787863945477 487.5 930.772216796875 487.5 C 935.5656471992023 487.5 939.4514895241477 491.386167936 939.4514895241477 496.18 C 939.4514895241477 500.973832064 935.5656471992023 504.86 930.772216796875 504.86 C 925.9787863945477 504.86 922.0929440696023 500.973832064 922.0929440696023 496.18 Z"/></g><g transform="translate(-498,-410) scale(1,1)"><path fill="none" stroke="#000000" d="M 922.0929440696023 496.18 C 922.0929440696023 491.386167936 925.9787863945477 487.5 930.772216796875 487.5 C 935.5656471992023 487.5 939.4514895241477 491.386167936 939.4514895241477 496.18 C 939.4514895241477 500.973832064 935.5656471992023 504.86 930.772216796875 504.86 C 925.9787863945477 504.86 922.0929440696023 500.973832064 922.0929440696023 496.18 Z" stroke-miterlimit="10"/></g><g transform="translate(-498,-410) scale(1,1)"><path fill="none" stroke="#000000" d="M 930.772216796875 504.86 L 930.772216796875 522.14" stroke-miterlimit="10"/></g><g transform="translate(-498,-410) scale(1,1)"><path fill="none" stroke="#000000" d="M 921.5823986150568 511.34 L 939.9620349786932 511.34" stroke-miterlimit="10"/></g><g transform="translate(-498,-410) scale(1,1)"><path fill="none" stroke="#000000" d="M 930.772216796875 522.14 L 918.0085804332386 539.5" stroke-miterlimit="10"/></g><g transform="translate(-498,-410) scale(1,1)"><path fill="none" stroke="#000000" d="M 930.772216796875 522.14 L 943.5358531605114 539.5" stroke-miterlimit="10"/></g><g transform="translate(-498,-410) scale(1,1)"><g><path fill="none" stroke="none"/><text fill="#000000" stroke="none" font-family="Arial" font-size="13px" font-style="normal" font-weight="bold" text-decoration="none" x="891.404052734375" y="560">Micro Service</text></g></g><g transform="translate(-498,-410) scale(1,1)"><g><path fill="none" stroke="none"/><text fill="#000000" stroke="none" font-family="Arial" font-size="13px" font-style="normal" font-weight="normal" text-decoration="none" x="893.21630859375" y="575">(from Actors)</text></g></g><g transform="translate(-498,-410) scale(1,1)"><path fill="none" stroke="#000000" d="M 854 448 Q 854 448 861.5 448 Q 869 448 896 486" stroke-miterlimit="10"/></g><g transform="translate(-498,-410) scale(1,1)"><path fill="none" stroke="#000000" d="M 825 534 Q 825 534 847 534 Q 869 534 883 534" stroke-miterlimit="10"/></g><g transform="translate(-498,-410) scale(1,1)"><path fill="none" stroke="#000000" d="M 798 620 Q 798 620 833.5 620 Q 869 620 896 582" stroke-miterlimit="10"/></g></g></svg>