<svg version="1.1" xmlns="http://www.w3.org/2000/svg" xmlns:xlink="http://www.w3.org/1999/xlink" width="599.75341796875" height="1189"><defs/><g><text fill="#eeeeee" stroke="none" font-family="Arial" font-size="24px" font-style="normal" font-weight="normal" text-decoration="none" x="0" y="0">UNREGISTERED</text><text fill="#eeeeee" stroke="none" font-family="Arial" font-size="24px" font-style="normal" font-weight="normal" text-decoration="none" x="0" y="30">UNREGISTERED</text><text fill="#eeeeee" stroke="none" font-family="Arial" font-size="24px" font-style="normal" font-weight="normal" text-decoration="none" x="0" y="60">UNREGISTERED</text><text fill="#eeeeee" stroke="none" font-family="Arial" font-size="24px" font-style="normal" font-weight="normal" text-decoration="none" x="0" y="90">UNREGISTERED</text><text fill="#eeeeee" stroke="none" font-family="Arial" font-size="24px" font-style="normal" font-weight="normal" text-decoration="none" x="0" y="120">UNREGISTERED</text><text fill="#eeeeee" stroke="none" font-family="Arial" font-size="24px" font-style="normal" font-weight="normal" text-decoration="none" x="0" y="150">UNREGISTERED</text><text fill="#eeeeee" stroke="none" font-family="Arial" font-size="24px" font-style="normal" font-weight="normal" text-decoration="none" x="0" y="180">UNREGISTERED</text><text fill="#eeeeee" stroke="none" font-family="Arial" font-size="24px" font-style="normal" font-weight="normal" text-decoration="none" x="0" y="210">UNREGISTERED</text><text fill="#eeeeee" stroke="none" font-family="Arial" font-size="24px" font-style="normal" font-weight="normal" text-decoration="none" x="0" y="240">UNREGISTERED</text><text fill="#eeeeee" stroke="none" font-family="Arial" font-size="24px" font-style="normal" font-weight="normal" text-decoration="none" x="0" y="270">UNREGISTERED</text><text fill="#eeeeee" stroke="none" font-family="Arial" font-size="24px" font-style="normal" font-weight="normal" text-decoration="none" x="0" y="300">UNREGISTERED</text><text fill="#eeeeee" stroke="none" font-family="Arial" font-size="24px" font-style="normal" font-weight="normal" text-decoration="none" x="0" y="330">UNREGISTERED</text><text fill="#eeeeee" stroke="none" font-family="Arial" font-size="24px" font-style="normal" font-weight="normal" text-decoration="none" x="0" y="360">UNREGISTERED</text><text fill="#eeeeee" stroke="none" font-family="Arial" font-size="24px" font-style="normal" font-weight="normal" text-decoration="none" x="0" y="390">UNREGISTERED</text><text fill="#eeeeee" stroke="none" font-family="Arial" font-size="24px" font-style="normal" font-weight="normal" text-decoration="none" x="0" y="420">UNREGISTERED</text><text fill="#eeeeee" stroke="none" font-family="Arial" font-size="24px" font-style="normal" font-weight="normal" text-decoration="none" x="0" y="450">UNREGISTERED</text><text fill="#eeeeee" stroke="none" font-family="Arial" font-size="24px" font-style="normal" font-weight="normal" text-decoration="none" x="0" y="480">UNREGISTERED</text><text fill="#eeeeee" stroke="none" font-family="Arial" font-size="24px" font-style="normal" font-weight="normal" text-decoration="none" x="0" y="510">UNREGISTERED</text><text fill="#eeeeee" stroke="none" font-family="Arial" font-size="24px" font-style="normal" font-weight="normal" text-decoration="none" x="0" y="540">UNREGISTERED</text><text fill="#eeeeee" stroke="none" font-family="Arial" font-size="24px" font-style="normal" font-weight="normal" text-decoration="none" x="0" y="570">UNREGISTERED</text><text fill="#eeeeee" stroke="none" font-family="Arial" font-size="24px" font-style="normal" font-weight="normal" text-decoration="none" x="0" y="600">UNREGISTERED</text><text fill="#eeeeee" stroke="none" font-family="Arial" font-size="24px" font-style="normal" font-weight="normal" text-decoration="none" x="0" y="630">UNREGISTERED</text><text fill="#eeeeee" stroke="none" font-family="Arial" font-size="24px" font-style="normal" font-weight="normal" text-decoration="none" x="0" y="660">UNREGISTERED</text><text fill="#eeeeee" stroke="none" font-family="Arial" font-size="24px" font-style="normal" font-weight="normal" text-decoration="none" x="0" y="690">UNREGISTERED</text><text fill="#eeeeee" stroke="none" font-family="Arial" font-size="24px" font-style="normal" font-weight="normal" text-decoration="none" x="0" y="720">UNREGISTERED</text><text fill="#eeeeee" stroke="none" font-family="Arial" font-size="24px" font-style="normal" font-weight="normal" text-decoration="none" x="0" y="750">UNREGISTERED</text><text fill="#eeeeee" stroke="none" font-family="Arial" font-size="24px" font-style="normal" font-weight="normal" text-decoration="none" x="0" y="780">UNREGISTERED</text><text fill="#eeeeee" stroke="none" font-family="Arial" font-size="24px" font-style="normal" font-weight="normal" text-decoration="none" x="0" y="810">UNREGISTERED</text><text fill="#eeeeee" stroke="none" font-family="Arial" font-size="24px" font-style="normal" font-weight="normal" text-decoration="none" x="0" y="840">UNREGISTERED</text><text fill="#eeeeee" stroke="none" font-family="Arial" font-size="24px" font-style="normal" font-weight="normal" text-decoration="none" x="0" y="870">UNREGISTERED</text><text fill="#eeeeee" stroke="none" font-family="Arial" font-size="24px" font-style="normal" font-weight="normal" text-decoration="none" x="0" y="900">UNREGISTERED</text><text fill="#eeeeee" stroke="none" font-family="Arial" font-size="24px" font-style="normal" font-weight="normal" text-decoration="none" x="0" y="930">UNREGISTERED</text><text fill="#eeeeee" stroke="none" font-family="Arial" font-size="24px" font-style="normal" font-weight="normal" text-decoration="none" x="0" y="960">UNREGISTERED</text><text fill="#eeeeee" stroke="none" font-family="Arial" font-size="24px" font-style="normal" font-weight="normal" text-decoration="none" x="0" y="990">UNREGISTERED</text><text fill="#eeeeee" stroke="none" font-family="Arial" font-size="24px" font-style="normal" font-weight="normal" text-decoration="none" x="0" y="1020">UNREGISTERED</text><text fill="#eeeeee" stroke="none" font-family="Arial" font-size="24px" font-style="normal" font-weight="normal" text-decoration="none" x="0" y="1050">UNREGISTERED</text><text fill="#eeeeee" stroke="none" font-family="Arial" font-size="24px" font-style="normal" font-weight="normal" text-decoration="none" x="0" y="1080">UNREGISTERED</text><text fill="#eeeeee" stroke="none" font-family="Arial" font-size="24px" font-style="normal" font-weight="normal" text-decoration="none" x="0" y="1110">UNREGISTERED</text><text fill="#eeeeee" stroke="none" font-family="Arial" font-size="24px" font-style="normal" font-weight="normal" text-decoration="none" x="0" y="1140">UNREGISTERED</text><text fill="#eeeeee" stroke="none" font-family="Arial" font-size="24px" font-style="normal" font-weight="normal" text-decoration="none" x="0" y="1170">UNREGISTERED</text><text fill="#eeeeee" stroke="none" font-family="Arial" font-size="24px" font-style="normal" font-weight="normal" text-decoration="none" x="200" y="0">UNREGISTERED</text><text fill="#eeeeee" stroke="none" font-family="Arial" font-size="24px" font-style="normal" font-weight="normal" text-decoration="none" x="200" y="30">UNREGISTERED</text><text fill="#eeeeee" stroke="none" font-family="Arial" font-size="24px" font-style="normal" font-weight="normal" text-decoration="none" x="200" y="60">UNREGISTERED</text><text fill="#eeeeee" stroke="none" font-family="Arial" font-size="24px" font-style="normal" font-weight="normal" text-decoration="none" x="200" y="90">UNREGISTERED</text><text fill="#eeeeee" stroke="none" font-family="Arial" font-size="24px" font-style="normal" font-weight="normal" text-decoration="none" x="200" y="120">UNREGISTERED</text><text fill="#eeeeee" stroke="none" font-family="Arial" font-size="24px" font-style="normal" font-weight="normal" text-decoration="none" x="200" y="150">UNREGISTERED</text><text fill="#eeeeee" stroke="none" font-family="Arial" font-size="24px" font-style="normal" font-weight="normal" text-decoration="none" x="200" y="180">UNREGISTERED</text><text fill="#eeeeee" stroke="none" font-family="Arial" font-size="24px" font-style="normal" font-weight="normal" text-decoration="none" x="200" y="210">UNREGISTERED</text><text fill="#eeeeee" stroke="none" font-family="Arial" font-size="24px" font-style="normal" font-weight="normal" text-decoration="none" x="200" y="240">UNREGISTERED</text><text fill="#eeeeee" stroke="none" font-family="Arial" font-size="24px" font-style="normal" font-weight="normal" text-decoration="none" x="200" y="270">UNREGISTERED</text><text fill="#eeeeee" stroke="none" font-family="Arial" font-size="24px" font-style="normal" font-weight="normal" text-decoration="none" x="200" y="300">UNREGISTERED</text><text fill="#eeeeee" stroke="none" font-family="Arial" font-size="24px" font-style="normal" font-weight="normal" text-decoration="none" x="200" y="330">UNREGISTERED</text><text fill="#eeeeee" stroke="none" font-family="Arial" font-size="24px" font-style="normal" font-weight="normal" text-decoration="none" x="200" y="360">UNREGISTERED</text><text fill="#eeeeee" stroke="none" font-family="Arial" font-size="24px" font-style="normal" font-weight="normal" text-decoration="none" x="200" y="390">UNREGISTERED</text><text fill="#eeeeee" stroke="none" font-family="Arial" font-size="24px" font-style="normal" font-weight="normal" text-decoration="none" x="200" y="420">UNREGISTERED</text><text fill="#eeeeee" stroke="none" font-family="Arial" font-size="24px" font-style="normal" font-weight="normal" text-decoration="none" x="200" y="450">UNREGISTERED</text><text fill="#eeeeee" stroke="none" font-family="Arial" font-size="24px" font-style="normal" font-weight="normal" text-decoration="none" x="200" y="480">UNREGISTERED</text><text fill="#eeeeee" stroke="none" font-family="Arial" font-size="24px" font-style="normal" font-weight="normal" text-decoration="none" x="200" y="510">UNREGISTERED</text><text fill="#eeeeee" stroke="none" font-family="Arial" font-size="24px" font-style="normal" font-weight="normal" text-decoration="none" x="200" y="540">UNREGISTERED</text><text fill="#eeeeee" stroke="none" font-family="Arial" font-size="24px" font-style="normal" font-weight="normal" text-decoration="none" x="200" y="570">UNREGISTERED</text><text fill="#eeeeee" stroke="none" font-family="Arial" font-size="24px" font-style="normal" font-weight="normal" text-decoration="none" x="200" y="600">UNREGISTERED</text><text fill="#eeeeee" stroke="none" font-family="Arial" font-size="24px" font-style="normal" font-weight="normal" text-decoration="none" x="200" y="630">UNREGISTERED</text><text fill="#eeeeee" stroke="none" font-family="Arial" font-size="24px" font-style="normal" font-weight="normal" text-decoration="none" x="200" y="660">UNREGISTERED</text><text fill="#eeeeee" stroke="none" font-family="Arial" font-size="24px" font-style="normal" font-weight="normal" text-decoration="none" x="200" y="690">UNREGISTERED</text><text fill="#eeeeee" stroke="none" font-family="Arial" font-size="24px" font-style="normal" font-weight="normal" text-decoration="none" x="200" y="720">UNREGISTERED</text><text fill="#eeeeee" stroke="none" font-family="Arial" font-size="24px" font-style="normal" font-weight="normal" text-decoration="none" x="200" y="750">UNREGISTERED</text><text fill="#eeeeee" stroke="none" font-family="Arial" font-size="24px" font-style="normal" font-weight="normal" text-decoration="none" x="200" y="780">UNREGISTERED</text><text fill="#eeeeee" stroke="none" font-family="Arial" font-size="24px" font-style="normal" font-weight="normal" text-decoration="none" x="200" y="810">UNREGISTERED</text><text fill="#eeeeee" stroke="none" font-family="Arial" font-size="24px" font-style="normal" font-weight="normal" text-decoration="none" x="200" y="840">UNREGISTERED</text><text fill="#eeeeee" stroke="none" font-family="Arial" font-size="24px" font-style="normal" font-weight="normal" text-decoration="none" x="200" y="870">UNREGISTERED</text><text fill="#eeeeee" stroke="none" font-family="Arial" font-size="24px" font-style="normal" font-weight="normal" text-decoration="none" x="200" y="900">UNREGISTERED</text><text fill="#eeeeee" stroke="none" font-family="Arial" font-size="24px" font-style="normal" font-weight="normal" text-decoration="none" x="200" y="930">UNREGISTERED</text><text fill="#eeeeee" stroke="none" font-family="Arial" font-size="24px" font-style="normal" font-weight="normal" text-decoration="none" x="200" y="960">UNREGISTERED</text><text fill="#eeeeee" stroke="none" font-family="Arial" font-size="24px" font-style="normal" font-weight="normal" text-decoration="none" x="200" y="990">UNREGISTERED</text><text fill="#eeeeee" stroke="none" font-family="Arial" font-size="24px" font-style="normal" font-weight="normal" text-decoration="none" x="200" y="1020">UNREGISTERED</text><text fill="#eeeeee" stroke="none" font-family="Arial" font-size="24px" font-style="normal" font-weight="normal" text-decoration="none" x="200" y="1050">UNREGISTERED</text><text fill="#eeeeee" stroke="none" font-family="Arial" font-size="24px" font-style="normal" font-weight="normal" text-decoration="none" x="200" y="1080">UNREGISTERED</text><text fill="#eeeeee" stroke="none" font-family="Arial" font-size="24px" font-style="normal" font-weight="normal" text-decoration="none" x="200" y="1110">UNREGISTERED</text><text fill="#eeeeee" stroke="none" font-family="Arial" font-size="24px" font-style="normal" font-weight="normal" text-decoration="none" x="200" y="1140">UNREGISTERED</text><text fill="#eeeeee" stroke="none" font-family="Arial" font-size="24px" font-style="normal" font-weight="normal" text-decoration="none" x="200" y="1170">UNREGISTERED</text><text fill="#eeeeee" stroke="none" font-family="Arial" font-size="24px" font-style="normal" font-weight="normal" text-decoration="none" x="400" y="0">UNREGISTERED</text><text fill="#eeeeee" stroke="none" font-family="Arial" font-size="24px" font-style="normal" font-weight="normal" text-decoration="none" x="400" y="30">UNREGISTERED</text><text fill="#eeeeee" stroke="none" font-family="Arial" font-size="24px" font-style="normal" font-weight="normal" text-decoration="none" x="400" y="60">UNREGISTERED</text><text fill="#eeeeee" stroke="none" font-family="Arial" font-size="24px" font-style="normal" font-weight="normal" text-decoration="none" x="400" y="90">UNREGISTERED</text><text fill="#eeeeee" stroke="none" font-family="Arial" font-size="24px" font-style="normal" font-weight="normal" text-decoration="none" x="400" y="120">UNREGISTERED</text><text fill="#eeeeee" stroke="none" font-family="Arial" font-size="24px" font-style="normal" font-weight="normal" text-decoration="none" x="400" y="150">UNREGISTERED</text><text fill="#eeeeee" stroke="none" font-family="Arial" font-size="24px" font-style="normal" font-weight="normal" text-decoration="none" x="400" y="180">UNREGISTERED</text><text fill="#eeeeee" stroke="none" font-family="Arial" font-size="24px" font-style="normal" font-weight="normal" text-decoration="none" x="400" y="210">UNREGISTERED</text><text fill="#eeeeee" stroke="none" font-family="Arial" font-size="24px" font-style="normal" font-weight="normal" text-decoration="none" x="400" y="240">UNREGISTERED</text><text fill="#eeeeee" stroke="none" font-family="Arial" font-size="24px" font-style="normal" font-weight="normal" text-decoration="none" x="400" y="270">UNREGISTERED</text><text fill="#eeeeee" stroke="none" font-family="Arial" font-size="24px" font-style="normal" font-weight="normal" text-decoration="none" x="400" y="300">UNREGISTERED</text><text fill="#eeeeee" stroke="none" font-family="Arial" font-size="24px" font-style="normal" font-weight="normal" text-decoration="none" x="400" y="330">UNREGISTERED</text><text fill="#eeeeee" stroke="none" font-family="Arial" font-size="24px" font-style="normal" font-weight="normal" text-decoration="none" x="400" y="360">UNREGISTERED</text><text fill="#eeeeee" stroke="none" font-family="Arial" font-size="24px" font-style="normal" font-weight="normal" text-decoration="none" x="400" y="390">UNREGISTERED</text><text fill="#eeeeee" stroke="none" font-family="Arial" font-size="24px" font-style="normal" font-weight="normal" text-decoration="none" x="400" y="420">UNREGISTERED</text><text fill="#eeeeee" stroke="none" font-family="Arial" font-size="24px" font-style="normal" font-weight="normal" text-decoration="none" x="400" y="450">UNREGISTERED</text><text fill="#eeeeee" stroke="none" font-family="Arial" font-size="24px" font-style="normal" font-weight="normal" text-decoration="none" x="400" y="480">UNREGISTERED</text><text fill="#eeeeee" stroke="none" font-family="Arial" font-size="24px" font-style="normal" font-weight="normal" text-decoration="none" x="400" y="510">UNREGISTERED</text><text fill="#eeeeee" stroke="none" font-family="Arial" font-size="24px" font-style="normal" font-weight="normal" text-decoration="none" x="400" y="540">UNREGISTERED</text><text fill="#eeeeee" stroke="none" font-family="Arial" font-size="24px" font-style="normal" font-weight="normal" text-decoration="none" x="400" y="570">UNREGISTERED</text><text fill="#eeeeee" stroke="none" font-family="Arial" font-size="24px" font-style="normal" font-weight="normal" text-decoration="none" x="400" y="600">UNREGISTERED</text><text fill="#eeeeee" stroke="none" font-family="Arial" font-size="24px" font-style="normal" font-weight="normal" text-decoration="none" x="400" y="630">UNREGISTERED</text><text fill="#eeeeee" stroke="none" font-family="Arial" font-size="24px" font-style="normal" font-weight="normal" text-decoration="none" x="400" y="660">UNREGISTERED</text><text fill="#eeeeee" stroke="none" font-family="Arial" font-size="24px" font-style="normal" font-weight="normal" text-decoration="none" x="400" y="690">UNREGISTERED</text><text fill="#eeeeee" stroke="none" font-family="Arial" font-size="24px" font-style="normal" font-weight="normal" text-decoration="none" x="400" y="720">UNREGISTERED</text><text fill="#eeeeee" stroke="none" font-family="Arial" font-size="24px" font-style="normal" font-weight="normal" text-decoration="none" x="400" y="750">UNREGISTERED</text><text fill="#eeeeee" stroke="none" font-family="Arial" font-size="24px" font-style="normal" font-weight="normal" text-decoration="none" x="400" y="780">UNREGISTERED</text><text fill="#eeeeee" stroke="none" font-family="Arial" font-size="24px" font-style="normal" font-weight="normal" text-decoration="none" x="400" y="810">UNREGISTERED</text><text fill="#eeeeee" stroke="none" font-family="Arial" font-size="24px" font-style="normal" font-weight="normal" text-decoration="none" x="400" y="840">UNREGISTERED</text><text fill="#eeeeee" stroke="none" font-family="Arial" font-size="24px" font-style="normal" font-weight="normal" text-decoration="none" x="400" y="870">UNREGISTERED</text><text fill="#eeeeee" stroke="none" font-family="Arial" font-size="24px" font-style="normal" font-weight="normal" text-decoration="none" x="400" y="900">UNREGISTERED</text><text fill="#eeeeee" stroke="none" font-family="Arial" font-size="24px" font-style="normal" font-weight="normal" text-decoration="none" x="400" y="930">UNREGISTERED</text><text fill="#eeeeee" stroke="none" font-family="Arial" font-size="24px" font-style="normal" font-weight="normal" text-decoration="none" x="400" y="960">UNREGISTERED</text><text fill="#eeeeee" stroke="none" font-family="Arial" font-size="24px" font-style="normal" font-weight="normal" text-decoration="none" x="400" y="990">UNREGISTERED</text><text fill="#eeeeee" stroke="none" font-family="Arial" font-size="24px" font-style="normal" font-weight="normal" text-decoration="none" x="400" y="1020">UNREGISTERED</text><text fill="#eeeeee" stroke="none" font-family="Arial" font-size="24px" font-style="normal" font-weight="normal" text-decoration="none" x="400" y="1050">UNREGISTERED</text><text fill="#eeeeee" stroke="none" font-family="Arial" font-size="24px" font-style="normal" font-weight="normal" text-decoration="none" x="400" y="1080">UNREGISTERED</text><text fill="#eeeeee" stroke="none" font-family="Arial" font-size="24px" font-style="normal" font-weight="normal" text-decoration="none" x="400" y="1110">UNREGISTERED</text><text fill="#eeeeee" stroke="none" font-family="Arial" font-size="24px" font-style="normal" font-weight="normal" text-decoration="none" x="400" y="1140">UNREGISTERED</text><text fill="#eeeeee" stroke="none" font-family="Arial" font-size="24px" font-style="normal" font-weight="normal" text-decoration="none" x="400" y="1170">UNREGISTERED</text><g transform="translate(-10,-10) scale(1,1)"><path fill="#ffffff" stroke="none" d="M 417.63737766335225 444.68 C 417.63737766335225 439.886167936 421.52321998829774 436 426.316650390625 436 C 431.11008079295226 436 434.99592311789775 439.886167936 434.99592311789775 444.68 C 434.99592311789775 449.473832064 431.11008079295226 453.36 426.316650390625 453.36 C 421.52321998829774 453.36 417.63737766335225 449.473832064 417.63737766335225 444.68 Z"/></g><g transform="translate(-10,-10) scale(1,1)"><path fill="none" stroke="#000000" d="M 417.63737766335225 444.68 C 417.63737766335225 439.886167936 421.52321998829774 436 426.316650390625 436 C 431.11008079295226 436 434.99592311789775 439.886167936 434.99592311789775 444.68 C 434.99592311789775 449.473832064 431.11008079295226 453.36 426.316650390625 453.36 C 421.52321998829774 453.36 417.63737766335225 449.473832064 417.63737766335225 444.68 Z" stroke-miterlimit="10"/></g><g transform="translate(-10,-10) scale(1,1)"><path fill="none" stroke="#000000" d="M 426.316650390625 453.36 L 426.316650390625 470.64" stroke-miterlimit="10"/></g><g transform="translate(-10,-10) scale(1,1)"><path fill="none" stroke="#000000" d="M 417.12683220880683 459.84 L 435.50646857244317 459.84" stroke-miterlimit="10"/></g><g transform="translate(-10,-10) scale(1,1)"><path fill="none" stroke="#000000" d="M 426.316650390625 470.64 L 413.55301402698865 488" stroke-miterlimit="10"/></g><g transform="translate(-10,-10) scale(1,1)"><path fill="none" stroke="#000000" d="M 426.316650390625 470.64 L 439.08028675426135 488" stroke-miterlimit="10"/></g><g transform="translate(-10,-10) scale(1,1)"><g><path fill="none" stroke="none"/><text fill="#000000" stroke="none" font-family="Arial" font-size="13px" font-style="normal" font-weight="bold" text-decoration="none" x="410.78076171875" y="508.5">Peter</text></g></g><g transform="translate(-10,-10) scale(1,1)"><path fill="#ffffff" stroke="none" d="M 546.8473386008523 29.68 C 546.8473386008523 24.886167936 550.7331809257977 21 555.526611328125 21 C 560.3200417304523 21 564.2058840553977 24.886167936 564.2058840553977 29.68 C 564.2058840553977 34.473832064 560.3200417304523 38.36 555.526611328125 38.36 C 550.7331809257977 38.36 546.8473386008523 34.473832064 546.8473386008523 29.68 Z"/></g><g transform="translate(-10,-10) scale(1,1)"><path fill="none" stroke="#000000" d="M 546.8473386008523 29.68 C 546.8473386008523 24.886167936 550.7331809257977 21 555.526611328125 21 C 560.3200417304523 21 564.2058840553977 24.886167936 564.2058840553977 29.68 C 564.2058840553977 34.473832064 560.3200417304523 38.36 555.526611328125 38.36 C 550.7331809257977 38.36 546.8473386008523 34.473832064 546.8473386008523 29.68 Z" stroke-miterlimit="10"/></g><g transform="translate(-10,-10) scale(1,1)"><path fill="none" stroke="#000000" d="M 555.526611328125 38.36 L 555.526611328125 55.64" stroke-miterlimit="10"/></g><g transform="translate(-10,-10) scale(1,1)"><path fill="none" stroke="#000000" d="M 546.3367931463068 44.84 L 564.7164295099432 44.84" stroke-miterlimit="10"/></g><g transform="translate(-10,-10) scale(1,1)"><path fill="none" stroke="#000000" d="M 555.526611328125 55.64 L 542.7629749644886 73" stroke-miterlimit="10"/></g><g transform="translate(-10,-10) scale(1,1)"><path fill="none" stroke="#000000" d="M 555.526611328125 55.64 L 568.2902476917614 73" stroke-miterlimit="10"/></g><g transform="translate(-10,-10) scale(1,1)"><g><path fill="none" stroke="none"/><text fill="#000000" stroke="none" font-family="Arial" font-size="13px" font-style="normal" font-weight="bold" text-decoration="none" x="536.388427734375" y="93.5">Family</text></g></g><g transform="translate(-10,-10) scale(1,1)"><path fill="#ffffff" stroke="none" d="M 266.04558078835225 429.68 C 266.04558078835225 424.886167936 269.93142311329774 421 274.724853515625 421 C 279.51828391795226 421 283.40412624289775 424.886167936 283.40412624289775 429.68 C 283.40412624289775 434.473832064 279.51828391795226 438.36 274.724853515625 438.36 C 269.93142311329774 438.36 266.04558078835225 434.473832064 266.04558078835225 429.68 Z"/></g><g transform="translate(-10,-10) scale(1,1)"><path fill="none" stroke="#000000" d="M 266.04558078835225 429.68 C 266.04558078835225 424.886167936 269.93142311329774 421 274.724853515625 421 C 279.51828391795226 421 283.40412624289775 424.886167936 283.40412624289775 429.68 C 283.40412624289775 434.473832064 279.51828391795226 438.36 274.724853515625 438.36 C 269.93142311329774 438.36 266.04558078835225 434.473832064 266.04558078835225 429.68 Z" stroke-miterlimit="10"/></g><g transform="translate(-10,-10) scale(1,1)"><path fill="none" stroke="#000000" d="M 274.724853515625 438.36 L 274.724853515625 455.64" stroke-miterlimit="10"/></g><g transform="translate(-10,-10) scale(1,1)"><path fill="none" stroke="#000000" d="M 265.53503533380683 444.84 L 283.91467169744317 444.84" stroke-miterlimit="10"/></g><g transform="translate(-10,-10) scale(1,1)"><path fill="none" stroke="#000000" d="M 274.724853515625 455.64 L 261.96121715198865 473" stroke-miterlimit="10"/></g><g transform="translate(-10,-10) scale(1,1)"><path fill="none" stroke="#000000" d="M 274.724853515625 455.64 L 287.48848987926135 473" stroke-miterlimit="10"/></g><g transform="translate(-10,-10) scale(1,1)"><g><path fill="none" stroke="none"/><text fill="#000000" stroke="none" font-family="Arial" font-size="13px" font-style="normal" font-weight="bold" text-decoration="none" x="246.547607421875" y="493.5">Caregiver</text></g></g><g transform="translate(-10,-10) scale(1,1)"><path fill="#ffffff" stroke="none" d="M 89.87883274147727 429.68 C 89.87883274147727 424.886167936 93.76467506642273 421 98.55810546875 421 C 103.35153587107727 421 107.23737819602273 424.886167936 107.23737819602273 429.68 C 107.23737819602273 434.473832064 103.35153587107727 438.36 98.55810546875 438.36 C 93.76467506642273 438.36 89.87883274147727 434.473832064 89.87883274147727 429.68 Z"/></g><g transform="translate(-10,-10) scale(1,1)"><path fill="none" stroke="#000000" d="M 89.87883274147727 429.68 C 89.87883274147727 424.886167936 93.76467506642273 421 98.55810546875 421 C 103.35153587107727 421 107.23737819602273 424.886167936 107.23737819602273 429.68 C 107.23737819602273 434.473832064 103.35153587107727 438.36 98.55810546875 438.36 C 93.76467506642273 438.36 89.87883274147727 434.473832064 89.87883274147727 429.68 Z" stroke-miterlimit="10"/></g><g transform="translate(-10,-10) scale(1,1)"><path fill="none" stroke="#000000" d="M 98.55810546875 438.36 L 98.55810546875 455.64" stroke-miterlimit="10"/></g><g transform="translate(-10,-10) scale(1,1)"><path fill="none" stroke="#000000" d="M 89.36828728693182 444.84 L 107.74792365056818 444.84" stroke-miterlimit="10"/></g><g transform="translate(-10,-10) scale(1,1)"><path fill="none" stroke="#000000" d="M 98.55810546875 455.64 L 85.79446910511363 473" stroke-miterlimit="10"/></g><g transform="translate(-10,-10) scale(1,1)"><path fill="none" stroke="#000000" d="M 98.55810546875 455.64 L 111.32174183238637 473" stroke-miterlimit="10"/></g><g transform="translate(-10,-10) scale(1,1)"><g><path fill="none" stroke="none"/><text fill="#000000" stroke="none" font-family="Arial" font-size="13px" font-style="normal" font-weight="bold" text-decoration="none" x="29.549560546875" y="493.5">Healthcare Professional</text></g></g><g transform="translate(-10,-10) scale(1,1)"><path fill="none" stroke="#000000" d="M 98 459 Q 178 460 185.5 460 Q 193 460 239 459" stroke-miterlimit="10"/></g><g transform="translate(-10,-10) scale(1,1)"><path fill="#FFFFFF" stroke="none" d="M 218.86243063868076 467.85879789915407 L 239 459 L 218.49647208034372 451.0247042156497"/></g><g transform="translate(-10,-10) scale(1,1)"><path fill="none" stroke="#000000" d="M 218.86243063868076 467.85879789915407 L 239 459 L 218.49647208034372 451.0247042156497 L 218.86243063868076 467.85879789915407" stroke-miterlimit="10"/></g><g transform="translate(-10,-10) scale(1,1)"><path fill="#ffffff" stroke="none" d="M 266.04558078835225 649.6800000000001 C 266.04558078835225 644.8861679360001 269.93142311329774 641 274.724853515625 641 C 279.51828391795226 641 283.40412624289775 644.8861679360001 283.40412624289775 649.6800000000001 C 283.40412624289775 654.473832064 279.51828391795226 658.36 274.724853515625 658.36 C 269.93142311329774 658.36 266.04558078835225 654.473832064 266.04558078835225 649.6800000000001 Z"/></g><g transform="translate(-10,-10) scale(1,1)"><path fill="none" stroke="#000000" d="M 266.04558078835225 649.6800000000001 C 266.04558078835225 644.8861679360001 269.93142311329774 641 274.724853515625 641 C 279.51828391795226 641 283.40412624289775 644.8861679360001 283.40412624289775 649.6800000000001 C 283.40412624289775 654.473832064 279.51828391795226 658.36 274.724853515625 658.36 C 269.93142311329774 658.36 266.04558078835225 654.473832064 266.04558078835225 649.6800000000001 Z" stroke-miterlimit="10"/></g><g transform="translate(-10,-10) scale(1,1)"><path fill="none" stroke="#000000" d="M 274.724853515625 658.36 L 274.724853515625 675.64" stroke-miterlimit="10"/></g><g transform="translate(-10,-10) scale(1,1)"><path fill="none" stroke="#000000" d="M 265.53503533380683 664.84 L 283.91467169744317 664.84" stroke-miterlimit="10"/></g><g transform="translate(-10,-10) scale(1,1)"><path fill="none" stroke="#000000" d="M 274.724853515625 675.64 L 261.96121715198865 693" stroke-miterlimit="10"/></g><g transform="translate(-10,-10) scale(1,1)"><path fill="none" stroke="#000000" d="M 274.724853515625 675.64 L 287.48848987926135 693" stroke-miterlimit="10"/></g><g transform="translate(-10,-10) scale(1,1)"><g><path fill="none" stroke="none"/><text fill="#000000" stroke="none" font-family="Arial" font-size="13px" font-style="normal" font-weight="bold" text-decoration="none" x="216.554931640625" y="713.5">Foundation Member</text></g></g><g transform="translate(-10,-10) scale(1,1)"><path fill="#ffffff" stroke="none" d="M 417.63737766335225 664.6800000000001 C 417.63737766335225 659.8861679360001 421.52321998829774 656 426.316650390625 656 C 431.11008079295226 656 434.99592311789775 659.8861679360001 434.99592311789775 664.6800000000001 C 434.99592311789775 669.473832064 431.11008079295226 673.36 426.316650390625 673.36 C 421.52321998829774 673.36 417.63737766335225 669.473832064 417.63737766335225 664.6800000000001 Z"/></g><g transform="translate(-10,-10) scale(1,1)"><path fill="none" stroke="#000000" d="M 417.63737766335225 664.6800000000001 C 417.63737766335225 659.8861679360001 421.52321998829774 656 426.316650390625 656 C 431.11008079295226 656 434.99592311789775 659.8861679360001 434.99592311789775 664.6800000000001 C 434.99592311789775 669.473832064 431.11008079295226 673.36 426.316650390625 673.36 C 421.52321998829774 673.36 417.63737766335225 669.473832064 417.63737766335225 664.6800000000001 Z" stroke-miterlimit="10"/></g><g transform="translate(-10,-10) scale(1,1)"><path fill="none" stroke="#000000" d="M 426.316650390625 673.36 L 426.316650390625 690.64" stroke-miterlimit="10"/></g><g transform="translate(-10,-10) scale(1,1)"><path fill="none" stroke="#000000" d="M 417.12683220880683 679.84 L 435.50646857244317 679.84" stroke-miterlimit="10"/></g><g transform="translate(-10,-10) scale(1,1)"><path fill="none" stroke="#000000" d="M 426.316650390625 690.64 L 413.55301402698865 708" stroke-miterlimit="10"/></g><g transform="translate(-10,-10) scale(1,1)"><path fill="none" stroke="#000000" d="M 426.316650390625 690.64 L 439.08028675426135 708" stroke-miterlimit="10"/></g><g transform="translate(-10,-10) scale(1,1)"><g><path fill="none" stroke="none"/><text fill="#000000" stroke="none" font-family="Arial" font-size="13px" font-style="normal" font-weight="bold" text-decoration="none" x="381.0419921875" y="728.5">Trusted Advisor</text></g></g><g transform="translate(-10,-10) scale(1,1)"><path fill="none" stroke="#000000" d="M 309 639 Q 357 585 401 654" stroke-miterlimit="10"/></g><g transform="translate(-10,-10) scale(1,1)"><path fill="#FFFFFF" stroke="none" d="M 382.9731749505133 641.3891483778772 L 401 654 L 397.1703284627848 632.335891065704"/></g><g transform="translate(-10,-10) scale(1,1)"><path fill="none" stroke="#000000" d="M 382.9731749505133 641.3891483778772 L 401 654 L 397.1703284627848 632.335891065704 L 382.9731749505133 641.3891483778772" stroke-miterlimit="10"/></g><g transform="translate(-10,-10) scale(1,1)"><path fill="#ffffff" stroke="none" d="M 417.63737766335225 44.68 C 417.63737766335225 39.886167936 421.52321998829774 36 426.316650390625 36 C 431.11008079295226 36 434.99592311789775 39.886167936 434.99592311789775 44.68 C 434.99592311789775 49.473832064 431.11008079295226 53.36 426.316650390625 53.36 C 421.52321998829774 53.36 417.63737766335225 49.473832064 417.63737766335225 44.68 Z"/></g><g transform="translate(-10,-10) scale(1,1)"><path fill="none" stroke="#000000" d="M 417.63737766335225 44.68 C 417.63737766335225 39.886167936 421.52321998829774 36 426.316650390625 36 C 431.11008079295226 36 434.99592311789775 39.886167936 434.99592311789775 44.68 C 434.99592311789775 49.473832064 431.11008079295226 53.36 426.316650390625 53.36 C 421.52321998829774 53.36 417.63737766335225 49.473832064 417.63737766335225 44.68 Z" stroke-miterlimit="10"/></g><g transform="translate(-10,-10) scale(1,1)"><path fill="none" stroke="#000000" d="M 426.316650390625 53.36 L 426.316650390625 70.64" stroke-miterlimit="10"/></g><g transform="translate(-10,-10) scale(1,1)"><path fill="none" stroke="#000000" d="M 417.12683220880683 59.84 L 435.50646857244317 59.84" stroke-miterlimit="10"/></g><g transform="translate(-10,-10) scale(1,1)"><path fill="none" stroke="#000000" d="M 426.316650390625 70.64 L 413.55301402698865 88" stroke-miterlimit="10"/></g><g transform="translate(-10,-10) scale(1,1)"><path fill="none" stroke="#000000" d="M 426.316650390625 70.64 L 439.08028675426135 88" stroke-miterlimit="10"/></g><g transform="translate(-10,-10) scale(1,1)"><g><path fill="none" stroke="none"/><text fill="#000000" stroke="none" font-family="Arial" font-size="13px" font-style="normal" font-weight="bold" text-decoration="none" x="407.165771484375" y="108.5">Patron</text></g></g><g transform="translate(-10,-10) scale(1,1)"><path fill="#ffffff" stroke="none" d="M 417.63737766335225 154.68 C 417.63737766335225 149.886167936 421.52321998829774 146 426.316650390625 146 C 431.11008079295226 146 434.99592311789775 149.886167936 434.99592311789775 154.68 C 434.99592311789775 159.47383206400002 431.11008079295226 163.36 426.316650390625 163.36 C 421.52321998829774 163.36 417.63737766335225 159.47383206400002 417.63737766335225 154.68 Z"/></g><g transform="translate(-10,-10) scale(1,1)"><path fill="none" stroke="#000000" d="M 417.63737766335225 154.68 C 417.63737766335225 149.886167936 421.52321998829774 146 426.316650390625 146 C 431.11008079295226 146 434.99592311789775 149.886167936 434.99592311789775 154.68 C 434.99592311789775 159.47383206400002 431.11008079295226 163.36 426.316650390625 163.36 C 421.52321998829774 163.36 417.63737766335225 159.47383206400002 417.63737766335225 154.68 Z" stroke-miterlimit="10"/></g><g transform="translate(-10,-10) scale(1,1)"><path fill="none" stroke="#000000" d="M 426.316650390625 163.36 L 426.316650390625 180.64" stroke-miterlimit="10"/></g><g transform="translate(-10,-10) scale(1,1)"><path fill="none" stroke="#000000" d="M 417.12683220880683 169.84 L 435.50646857244317 169.84" stroke-miterlimit="10"/></g><g transform="translate(-10,-10) scale(1,1)"><path fill="none" stroke="#000000" d="M 426.316650390625 180.64 L 413.55301402698865 198" stroke-miterlimit="10"/></g><g transform="translate(-10,-10) scale(1,1)"><path fill="none" stroke="#000000" d="M 426.316650390625 180.64 L 439.08028675426135 198" stroke-miterlimit="10"/></g><g transform="translate(-10,-10) scale(1,1)"><g><path fill="none" stroke="none"/><text fill="#000000" stroke="none" font-family="Arial" font-size="13px" font-style="normal" font-weight="bold" text-decoration="none" x="402.468505859375" y="218.5">Supplier</text></g></g><g transform="translate(-10,-10) scale(1,1)"><path fill="#ffffff" stroke="none" d="M 546.8473386008523 429.68 C 546.8473386008523 424.886167936 550.7331809257977 421 555.526611328125 421 C 560.3200417304523 421 564.2058840553977 424.886167936 564.2058840553977 429.68 C 564.2058840553977 434.473832064 560.3200417304523 438.36 555.526611328125 438.36 C 550.7331809257977 438.36 546.8473386008523 434.473832064 546.8473386008523 429.68 Z"/></g><g transform="translate(-10,-10) scale(1,1)"><path fill="none" stroke="#000000" d="M 546.8473386008523 429.68 C 546.8473386008523 424.886167936 550.7331809257977 421 555.526611328125 421 C 560.3200417304523 421 564.2058840553977 424.886167936 564.2058840553977 429.68 C 564.2058840553977 434.473832064 560.3200417304523 438.36 555.526611328125 438.36 C 550.7331809257977 438.36 546.8473386008523 434.473832064 546.8473386008523 429.68 Z" stroke-miterlimit="10"/></g><g transform="translate(-10,-10) scale(1,1)"><path fill="none" stroke="#000000" d="M 555.526611328125 438.36 L 555.526611328125 455.64" stroke-miterlimit="10"/></g><g transform="translate(-10,-10) scale(1,1)"><path fill="none" stroke="#000000" d="M 546.3367931463068 444.84 L 564.7164295099432 444.84" stroke-miterlimit="10"/></g><g transform="translate(-10,-10) scale(1,1)"><path fill="none" stroke="#000000" d="M 555.526611328125 455.64 L 542.7629749644886 473" stroke-miterlimit="10"/></g><g transform="translate(-10,-10) scale(1,1)"><path fill="none" stroke="#000000" d="M 555.526611328125 455.64 L 568.2902476917614 473" stroke-miterlimit="10"/></g><g transform="translate(-10,-10) scale(1,1)"><g><path fill="none" stroke="none"/><text fill="#000000" stroke="none" font-family="Arial" font-size="13px" font-style="normal" font-weight="bold" text-decoration="none" x="520.119384765625" y="493.5">Collaborator</text></g></g><g transform="translate(-10,-10) scale(1,1)"><path fill="none" stroke="#000000" d="M 426 74 Q 452 95 474 112.5 Q 496 130 548 419" stroke-miterlimit="10"/></g><g transform="translate(-10,-10) scale(1,1)"><path fill="#FFFFFF" stroke="none" d="M 536.1146699726445 400.4867903879192 L 548 419 L 552.6866185992471 397.50498648278653"/></g><g transform="translate(-10,-10) scale(1,1)"><path fill="none" stroke="#000000" d="M 536.1146699726445 400.4867903879192 L 548 419 L 552.6866185992471 397.50498648278653 L 536.1146699726445 400.4867903879192" stroke-miterlimit="10"/></g><g transform="translate(-10,-10) scale(1,1)"><path fill="none" stroke="#000000" d="M 458 210 Q 458 210 477 225 Q 496 240 544 419" stroke-miterlimit="10"/></g><g transform="translate(-10,-10) scale(1,1)"><path fill="#FFFFFF" stroke="none" d="M 530.6038742959272 401.54881619715496 L 544 419 L 546.8673590797473 397.1876582662982"/></g><g transform="translate(-10,-10) scale(1,1)"><path fill="none" stroke="#000000" d="M 530.6038742959272 401.54881619715496 L 544 419 L 546.8673590797473 397.1876582662982 L 530.6038742959272 401.54881619715496" stroke-miterlimit="10"/></g><g transform="translate(-10,-10) scale(1,1)"><path fill="#ffffff" stroke="none" d="M 417.63737766335225 264.68 C 417.63737766335225 259.886167936 421.52321998829774 256 426.316650390625 256 C 431.11008079295226 256 434.99592311789775 259.886167936 434.99592311789775 264.68 C 434.99592311789775 269.473832064 431.11008079295226 273.36 426.316650390625 273.36 C 421.52321998829774 273.36 417.63737766335225 269.473832064 417.63737766335225 264.68 Z"/></g><g transform="translate(-10,-10) scale(1,1)"><path fill="none" stroke="#000000" d="M 417.63737766335225 264.68 C 417.63737766335225 259.886167936 421.52321998829774 256 426.316650390625 256 C 431.11008079295226 256 434.99592311789775 259.886167936 434.99592311789775 264.68 C 434.99592311789775 269.473832064 431.11008079295226 273.36 426.316650390625 273.36 C 421.52321998829774 273.36 417.63737766335225 269.473832064 417.63737766335225 264.68 Z" stroke-miterlimit="10"/></g><g transform="translate(-10,-10) scale(1,1)"><path fill="none" stroke="#000000" d="M 426.316650390625 273.36 L 426.316650390625 290.64" stroke-miterlimit="10"/></g><g transform="translate(-10,-10) scale(1,1)"><path fill="none" stroke="#000000" d="M 417.12683220880683 279.84 L 435.50646857244317 279.84" stroke-miterlimit="10"/></g><g transform="translate(-10,-10) scale(1,1)"><path fill="none" stroke="#000000" d="M 426.316650390625 290.64 L 413.55301402698865 308" stroke-miterlimit="10"/></g><g transform="translate(-10,-10) scale(1,1)"><path fill="none" stroke="#000000" d="M 426.316650390625 290.64 L 439.08028675426135 308" stroke-miterlimit="10"/></g><g transform="translate(-10,-10) scale(1,1)"><g><path fill="none" stroke="none"/><text fill="#000000" stroke="none" font-family="Arial" font-size="13px" font-style="normal" font-weight="bold" text-decoration="none" x="394.16259765625" y="328.5">Beneficiary</text></g></g><g transform="translate(-10,-10) scale(1,1)"><path fill="#ffffff" stroke="none" d="M 266.04558078835225 44.68 C 266.04558078835225 39.886167936 269.93142311329774 36 274.724853515625 36 C 279.51828391795226 36 283.40412624289775 39.886167936 283.40412624289775 44.68 C 283.40412624289775 49.473832064 279.51828391795226 53.36 274.724853515625 53.36 C 269.93142311329774 53.36 266.04558078835225 49.473832064 266.04558078835225 44.68 Z"/></g><g transform="translate(-10,-10) scale(1,1)"><path fill="none" stroke="#000000" d="M 266.04558078835225 44.68 C 266.04558078835225 39.886167936 269.93142311329774 36 274.724853515625 36 C 279.51828391795226 36 283.40412624289775 39.886167936 283.40412624289775 44.68 C 283.40412624289775 49.473832064 279.51828391795226 53.36 274.724853515625 53.36 C 269.93142311329774 53.36 266.04558078835225 49.473832064 266.04558078835225 44.68 Z" stroke-miterlimit="10"/></g><g transform="translate(-10,-10) scale(1,1)"><path fill="none" stroke="#000000" d="M 274.724853515625 53.36 L 274.724853515625 70.64" stroke-miterlimit="10"/></g><g transform="translate(-10,-10) scale(1,1)"><path fill="none" stroke="#000000" d="M 265.53503533380683 59.84 L 283.91467169744317 59.84" stroke-miterlimit="10"/></g><g transform="translate(-10,-10) scale(1,1)"><path fill="none" stroke="#000000" d="M 274.724853515625 70.64 L 261.96121715198865 88" stroke-miterlimit="10"/></g><g transform="translate(-10,-10) scale(1,1)"><path fill="none" stroke="#000000" d="M 274.724853515625 70.64 L 287.48848987926135 88" stroke-miterlimit="10"/></g><g transform="translate(-10,-10) scale(1,1)"><g><path fill="none" stroke="none"/><text fill="#000000" stroke="none" font-family="Arial" font-size="13px" font-style="normal" font-weight="bold" text-decoration="none" x="258.106689453125" y="108.5">Client</text></g></g><g transform="translate(-10,-10) scale(1,1)"><path fill="#ffffff" stroke="none" d="M 266.04558078835225 319.68 C 266.04558078835225 314.886167936 269.93142311329774 311 274.724853515625 311 C 279.51828391795226 311 283.40412624289775 314.886167936 283.40412624289775 319.68 C 283.40412624289775 324.473832064 279.51828391795226 328.36 274.724853515625 328.36 C 269.93142311329774 328.36 266.04558078835225 324.473832064 266.04558078835225 319.68 Z"/></g><g transform="translate(-10,-10) scale(1,1)"><path fill="none" stroke="#000000" d="M 266.04558078835225 319.68 C 266.04558078835225 314.886167936 269.93142311329774 311 274.724853515625 311 C 279.51828391795226 311 283.40412624289775 314.886167936 283.40412624289775 319.68 C 283.40412624289775 324.473832064 279.51828391795226 328.36 274.724853515625 328.36 C 269.93142311329774 328.36 266.04558078835225 324.473832064 266.04558078835225 319.68 Z" stroke-miterlimit="10"/></g><g transform="translate(-10,-10) scale(1,1)"><path fill="none" stroke="#000000" d="M 274.724853515625 328.36 L 274.724853515625 345.64" stroke-miterlimit="10"/></g><g transform="translate(-10,-10) scale(1,1)"><path fill="none" stroke="#000000" d="M 265.53503533380683 334.84 L 283.91467169744317 334.84" stroke-miterlimit="10"/></g><g transform="translate(-10,-10) scale(1,1)"><path fill="none" stroke="#000000" d="M 274.724853515625 345.64 L 261.96121715198865 363" stroke-miterlimit="10"/></g><g transform="translate(-10,-10) scale(1,1)"><path fill="none" stroke="#000000" d="M 274.724853515625 345.64 L 287.48848987926135 363" stroke-miterlimit="10"/></g><g transform="translate(-10,-10) scale(1,1)"><g><path fill="none" stroke="none"/><text fill="#000000" stroke="none" font-family="Arial" font-size="13px" font-style="normal" font-weight="bold" text-decoration="none" x="257.021240234375" y="383.5">Public</text></g></g><g transform="translate(-10,-10) scale(1,1)"><path fill="#ffffff" stroke="none" d="M 266.04558078835225 209.68 C 266.04558078835225 204.886167936 269.93142311329774 201 274.724853515625 201 C 279.51828391795226 201 283.40412624289775 204.886167936 283.40412624289775 209.68 C 283.40412624289775 214.47383206400002 279.51828391795226 218.36 274.724853515625 218.36 C 269.93142311329774 218.36 266.04558078835225 214.47383206400002 266.04558078835225 209.68 Z"/></g><g transform="translate(-10,-10) scale(1,1)"><path fill="none" stroke="#000000" d="M 266.04558078835225 209.68 C 266.04558078835225 204.886167936 269.93142311329774 201 274.724853515625 201 C 279.51828391795226 201 283.40412624289775 204.886167936 283.40412624289775 209.68 C 283.40412624289775 214.47383206400002 279.51828391795226 218.36 274.724853515625 218.36 C 269.93142311329774 218.36 266.04558078835225 214.47383206400002 266.04558078835225 209.68 Z" stroke-miterlimit="10"/></g><g transform="translate(-10,-10) scale(1,1)"><path fill="none" stroke="#000000" d="M 274.724853515625 218.36 L 274.724853515625 235.64" stroke-miterlimit="10"/></g><g transform="translate(-10,-10) scale(1,1)"><path fill="none" stroke="#000000" d="M 265.53503533380683 224.84 L 283.91467169744317 224.84" stroke-miterlimit="10"/></g><g transform="translate(-10,-10) scale(1,1)"><path fill="none" stroke="#000000" d="M 274.724853515625 235.64 L 261.96121715198865 253" stroke-miterlimit="10"/></g><g transform="translate(-10,-10) scale(1,1)"><path fill="none" stroke="#000000" d="M 274.724853515625 235.64 L 287.48848987926135 253" stroke-miterlimit="10"/></g><g transform="translate(-10,-10) scale(1,1)"><g><path fill="none" stroke="none"/><text fill="#000000" stroke="none" font-family="Arial" font-size="13px" font-style="normal" font-weight="bold" text-decoration="none" x="219.449462890625" y="273.5">Indirect Beneficiary</text></g></g><g transform="translate(-10,-10) scale(1,1)"><path fill="none" stroke="#000000" d="M 341 240 Q 341 240 349 240 Q 357 240 386 263" stroke-miterlimit="10"/></g><g transform="translate(-10,-10) scale(1,1)"><path fill="#FFFFFF" stroke="none" d="M 364.8435915325048 256.96622997152724 L 386 263 L 375.3066798103349 243.77364040382838"/></g><g transform="translate(-10,-10) scale(1,1)"><path fill="none" stroke="#000000" d="M 364.8435915325048 256.96622997152724 L 386 263 L 375.3066798103349 243.77364040382838 L 364.8435915325048 256.96622997152724" stroke-miterlimit="10"/></g><g transform="translate(-10,-10) scale(1,1)"><path fill="none" stroke="#000000" d="M 296 500 Q 296 500 326.5 557.5 Q 357 615 391 654" stroke-miterlimit="10"/></g><g transform="translate(-10,-10) scale(1,1)"><path fill="#FFFFFF" stroke="none" d="M 371.2974578599162 644.2117502474538 L 391 654 L 383.989536622106 633.1468610701601"/></g><g transform="translate(-10,-10) scale(1,1)"><path fill="none" stroke="#000000" d="M 371.2974578599162 644.2117502474538 L 391 654 L 383.989536622106 633.1468610701601 L 371.2974578599162 644.2117502474538" stroke-miterlimit="10"/></g><g transform="translate(-10,-10) scale(1,1)"><path fill="none" stroke="#000000" d="M 467 327 Q 467 327 481.5 338.5 Q 496 350 533 419" stroke-miterlimit="10"/></g><g transform="translate(-10,-10) scale(1,1)"><path fill="#FFFFFF" stroke="none" d="M 515.9751194088082 405.06610460583045 L 533 419 L 530.8143434066383 397.10883956351574"/></g><g transform="translate(-10,-10) scale(1,1)"><path fill="none" stroke="#000000" d="M 515.9751194088082 405.06610460583045 L 533 419 L 530.8143434066383 397.10883956351574 L 515.9751194088082 405.06610460583045" stroke-miterlimit="10"/></g><g transform="translate(-10,-10) scale(1,1)"><path fill="none" stroke="#000000" d="M 467 654 Q 496 625 540 500" stroke-miterlimit="10"/></g><g transform="translate(-10,-10) scale(1,1)"><path fill="#FFFFFF" stroke="none" d="M 541.1927748909563 521.967641841115 L 540 500 L 525.3099507012946 516.376887726354"/></g><g transform="translate(-10,-10) scale(1,1)"><path fill="none" stroke="#000000" d="M 541.1927748909563 521.967641841115 L 540 500 L 525.3099507012946 516.376887726354 L 541.1927748909563 521.967641841115" stroke-miterlimit="10"/></g><g transform="translate(-10,-10) scale(1,1)"><path fill="none" stroke="#000000" d="M 301 75 Q 301 75 329 75 Q 357 75 400 74" stroke-miterlimit="10"/></g><g transform="translate(-10,-10) scale(1,1)"><path fill="#FFFFFF" stroke="none" d="M 379.875882964811 82.88931457166507 L 400 74 L 379.4844057653014 66.05579499275092"/></g><g transform="translate(-10,-10) scale(1,1)"><path fill="none" stroke="#000000" d="M 379.875882964811 82.88931457166507 L 400 74 L 379.4844057653014 66.05579499275092 L 379.875882964811 82.88931457166507" stroke-miterlimit="10"/></g><g transform="translate(-10,-10) scale(1,1)"><path fill="none" stroke="#000000" d="M 301 350 Q 301 350 329 350 Q 357 350 386 327" stroke-miterlimit="10"/></g><g transform="translate(-10,-10) scale(1,1)"><path fill="#FFFFFF" stroke="none" d="M 375.3066798103349 346.2263595961716 L 386 327 L 364.8435915325048 333.0337700284728"/></g><g transform="translate(-10,-10) scale(1,1)"><path fill="none" stroke="#000000" d="M 375.3066798103349 346.2263595961716 L 386 327 L 364.8435915325048 333.0337700284728 L 375.3066798103349 346.2263595961716" stroke-miterlimit="10"/></g><g transform="translate(-10,-10) scale(1,1)"><path fill="none" stroke="#000000" d="M 442 515 Q 442 515 469 585 Q 496 655 543 500" stroke-miterlimit="10"/></g><g transform="translate(-10,-10) scale(1,1)"><path fill="none" stroke="#000000" d="M 544.0794003202037 510.9469125760985 L 543 500 L 536.0226151704154 508.5038874016466" stroke-miterlimit="10"/></g><g transform="translate(-10,-10) scale(1,1)"><path fill="none" stroke="#000000" d="M 433 434 Q 496 60 529 59" stroke-miterlimit="10"/></g><g transform="translate(-10,-10) scale(1,1)"><path fill="none" stroke="#000000" d="M 518.9694906059477 63.515404887253176 L 529 59 L 518.7144853731307 55.100232204289895" stroke-miterlimit="10"/></g><g transform="translate(-10,-10) scale(1,1)"><path fill="#ffffff" stroke="none" d="M 546.8473386008523 954.6800000000001 C 546.8473386008523 949.8861679360001 550.7331809257977 946 555.526611328125 946 C 560.3200417304523 946 564.2058840553977 949.8861679360001 564.2058840553977 954.6800000000001 C 564.2058840553977 959.473832064 560.3200417304523 963.36 555.526611328125 963.36 C 550.7331809257977 963.36 546.8473386008523 959.473832064 546.8473386008523 954.6800000000001 Z"/></g><g transform="translate(-10,-10) scale(1,1)"><path fill="none" stroke="#000000" d="M 546.8473386008523 954.6800000000001 C 546.8473386008523 949.8861679360001 550.7331809257977 946 555.526611328125 946 C 560.3200417304523 946 564.2058840553977 949.8861679360001 564.2058840553977 954.6800000000001 C 564.2058840553977 959.473832064 560.3200417304523 963.36 555.526611328125 963.36 C 550.7331809257977 963.36 546.8473386008523 959.473832064 546.8473386008523 954.6800000000001 Z" stroke-miterlimit="10"/></g><g transform="translate(-10,-10) scale(1,1)"><path fill="none" stroke="#000000" d="M 555.526611328125 963.36 L 555.526611328125 980.64" stroke-miterlimit="10"/></g><g transform="translate(-10,-10) scale(1,1)"><path fill="none" stroke="#000000" d="M 546.3367931463068 969.84 L 564.7164295099432 969.84" stroke-miterlimit="10"/></g><g transform="translate(-10,-10) scale(1,1)"><path fill="none" stroke="#000000" d="M 555.526611328125 980.64 L 542.7629749644886 998" stroke-miterlimit="10"/></g><g transform="translate(-10,-10) scale(1,1)"><path fill="none" stroke="#000000" d="M 555.526611328125 980.64 L 568.2902476917614 998" stroke-miterlimit="10"/></g><g transform="translate(-10,-10) scale(1,1)"><g><path fill="none" stroke="none"/><text fill="#000000" stroke="none" font-family="Arial" font-size="13px" font-style="normal" font-weight="bold" text-decoration="none" x="519.037109375" y="1018.5">Environment</text></g></g><g transform="translate(-10,-10) scale(1,1)"><path fill="none" stroke="#000000" d="M 434 515 Q 434 515 465 702.5 Q 496 890 530 944" stroke-miterlimit="10"/></g><g transform="translate(-10,-10) scale(1,1)"><path fill="none" stroke="#000000" d="M 521.0229598142705 937.6428977117088 L 530 944 L 528.1474241464338 933.1571238729392" stroke-miterlimit="10"/></g><g transform="translate(-10,-10) scale(1,1)"><path fill="#ffffff" stroke="none" d="M 417.63737766335225 899.6800000000001 C 417.63737766335225 894.8861679360001 421.52321998829774 891 426.316650390625 891 C 431.11008079295226 891 434.99592311789775 894.8861679360001 434.99592311789775 899.6800000000001 C 434.99592311789775 904.473832064 431.11008079295226 908.36 426.316650390625 908.36 C 421.52321998829774 908.36 417.63737766335225 904.473832064 417.63737766335225 899.6800000000001 Z"/></g><g transform="translate(-10,-10) scale(1,1)"><path fill="none" stroke="#000000" d="M 417.63737766335225 899.6800000000001 C 417.63737766335225 894.8861679360001 421.52321998829774 891 426.316650390625 891 C 431.11008079295226 891 434.99592311789775 894.8861679360001 434.99592311789775 899.6800000000001 C 434.99592311789775 904.473832064 431.11008079295226 908.36 426.316650390625 908.36 C 421.52321998829774 908.36 417.63737766335225 904.473832064 417.63737766335225 899.6800000000001 Z" stroke-miterlimit="10"/></g><g transform="translate(-10,-10) scale(1,1)"><path fill="none" stroke="#000000" d="M 426.316650390625 908.36 L 426.316650390625 925.64" stroke-miterlimit="10"/></g><g transform="translate(-10,-10) scale(1,1)"><path fill="none" stroke="#000000" d="M 417.12683220880683 914.84 L 435.50646857244317 914.84" stroke-miterlimit="10"/></g><g transform="translate(-10,-10) scale(1,1)"><path fill="none" stroke="#000000" d="M 426.316650390625 925.64 L 413.55301402698865 943" stroke-miterlimit="10"/></g><g transform="translate(-10,-10) scale(1,1)"><path fill="none" stroke="#000000" d="M 426.316650390625 925.64 L 439.08028675426135 943" stroke-miterlimit="10"/></g><g transform="translate(-10,-10) scale(1,1)"><g><path fill="none" stroke="none"/><text fill="#000000" stroke="none" font-family="Arial" font-size="13px" font-style="normal" font-weight="bold" text-decoration="none" x="408.25439453125" y="963.5">Digital</text></g></g><g transform="translate(-10,-10) scale(1,1)"><path fill="#ffffff" stroke="none" d="M 417.63737766335225 1009.6800000000001 C 417.63737766335225 1004.8861679360001 421.52321998829774 1001 426.316650390625 1001 C 431.11008079295226 1001 434.99592311789775 1004.8861679360001 434.99592311789775 1009.6800000000001 C 434.99592311789775 1014.473832064 431.11008079295226 1018.36 426.316650390625 1018.36 C 421.52321998829774 1018.36 417.63737766335225 1014.473832064 417.63737766335225 1009.6800000000001 Z"/></g><g transform="translate(-10,-10) scale(1,1)"><path fill="none" stroke="#000000" d="M 417.63737766335225 1009.6800000000001 C 417.63737766335225 1004.8861679360001 421.52321998829774 1001 426.316650390625 1001 C 431.11008079295226 1001 434.99592311789775 1004.8861679360001 434.99592311789775 1009.6800000000001 C 434.99592311789775 1014.473832064 431.11008079295226 1018.36 426.316650390625 1018.36 C 421.52321998829774 1018.36 417.63737766335225 1014.473832064 417.63737766335225 1009.6800000000001 Z" stroke-miterlimit="10"/></g><g transform="translate(-10,-10) scale(1,1)"><path fill="none" stroke="#000000" d="M 426.316650390625 1018.36 L 426.316650390625 1035.64" stroke-miterlimit="10"/></g><g transform="translate(-10,-10) scale(1,1)"><path fill="none" stroke="#000000" d="M 417.12683220880683 1024.84 L 435.50646857244317 1024.84" stroke-miterlimit="10"/></g><g transform="translate(-10,-10) scale(1,1)"><path fill="none" stroke="#000000" d="M 426.316650390625 1035.64 L 413.55301402698865 1053" stroke-miterlimit="10"/></g><g transform="translate(-10,-10) scale(1,1)"><path fill="none" stroke="#000000" d="M 426.316650390625 1035.64 L 439.08028675426135 1053" stroke-miterlimit="10"/></g><g transform="translate(-10,-10) scale(1,1)"><g><path fill="none" stroke="none"/><text fill="#000000" stroke="none" font-family="Arial" font-size="13px" font-style="normal" font-weight="bold" text-decoration="none" x="402.113037109375" y="1073.5">Physical</text></g></g><g transform="translate(-10,-10) scale(1,1)"><path fill="none" stroke="#000000" d="M 426 929 Q 452 930 474 930 Q 496 930 511 944" stroke-miterlimit="10"/></g><g transform="translate(-10,-10) scale(1,1)"><path fill="#FFFFFF" stroke="none" d="M 490.39658443150057 936.2864232089312 L 511 944 L 501.8855075920775 923.9768626797417"/></g><g transform="translate(-10,-10) scale(1,1)"><path fill="none" stroke="#000000" d="M 490.39658443150057 936.2864232089312 L 511 944 L 501.8855075920775 923.9768626797417 L 490.39658443150057 936.2864232089312" stroke-miterlimit="10"/></g><g transform="translate(-10,-10) scale(1,1)"><path fill="none" stroke="#000000" d="M 426 1039 Q 458 1040 477 1040 Q 496 1040 512 1025" stroke-miterlimit="10"/></g><g transform="translate(-10,-10) scale(1,1)"><path fill="#FFFFFF" stroke="none" d="M 502.93002584775945 1045.0433422581586 L 512 1025 L 491.41377654337714 1032.759343000151"/></g><g transform="translate(-10,-10) scale(1,1)"><path fill="none" stroke="#000000" d="M 502.93002584775945 1045.0433422581586 L 512 1025 L 491.41377654337714 1032.759343000151 L 502.93002584775945 1045.0433422581586" stroke-miterlimit="10"/></g><g transform="translate(-10,-10) scale(1,1)"><path fill="#ffffff" stroke="none" d="M 266.04558078835225 1009.6800000000001 C 266.04558078835225 1004.8861679360001 269.93142311329774 1001 274.724853515625 1001 C 279.51828391795226 1001 283.40412624289775 1004.8861679360001 283.40412624289775 1009.6800000000001 C 283.40412624289775 1014.473832064 279.51828391795226 1018.36 274.724853515625 1018.36 C 269.93142311329774 1018.36 266.04558078835225 1014.473832064 266.04558078835225 1009.6800000000001 Z"/></g><g transform="translate(-10,-10) scale(1,1)"><path fill="none" stroke="#000000" d="M 266.04558078835225 1009.6800000000001 C 266.04558078835225 1004.8861679360001 269.93142311329774 1001 274.724853515625 1001 C 279.51828391795226 1001 283.40412624289775 1004.8861679360001 283.40412624289775 1009.6800000000001 C 283.40412624289775 1014.473832064 279.51828391795226 1018.36 274.724853515625 1018.36 C 269.93142311329774 1018.36 266.04558078835225 1014.473832064 266.04558078835225 1009.6800000000001 Z" stroke-miterlimit="10"/></g><g transform="translate(-10,-10) scale(1,1)"><path fill="none" stroke="#000000" d="M 274.724853515625 1018.36 L 274.724853515625 1035.64" stroke-miterlimit="10"/></g><g transform="translate(-10,-10) scale(1,1)"><path fill="none" stroke="#000000" d="M 265.53503533380683 1024.84 L 283.91467169744317 1024.84" stroke-miterlimit="10"/></g><g transform="translate(-10,-10) scale(1,1)"><path fill="none" stroke="#000000" d="M 274.724853515625 1035.64 L 261.96121715198865 1053" stroke-miterlimit="10"/></g><g transform="translate(-10,-10) scale(1,1)"><path fill="none" stroke="#000000" d="M 274.724853515625 1035.64 L 287.48848987926135 1053" stroke-miterlimit="10"/></g><g transform="translate(-10,-10) scale(1,1)"><g><path fill="none" stroke="none"/><text fill="#000000" stroke="none" font-family="Arial" font-size="13px" font-style="normal" font-weight="bold" text-decoration="none" x="256.418212890625" y="1073.5">Virtual</text></g></g><g transform="translate(-10,-10) scale(1,1)"><path fill="none" stroke="#000000" d="M 301 1006 Q 301 1006 329 968 Q 357 930 400 929" stroke-miterlimit="10"/></g><g transform="translate(-10,-10) scale(1,1)"><path fill="#FFFFFF" stroke="none" d="M 379.875882964811 937.8893145716651 L 400 929 L 379.4844057653014 921.055794992751"/></g><g transform="translate(-10,-10) scale(1,1)"><path fill="none" stroke="#000000" d="M 379.875882964811 937.8893145716651 L 400 929 L 379.4844057653014 921.055794992751 L 379.875882964811 937.8893145716651" stroke-miterlimit="10"/></g><g transform="translate(-10,-10) scale(1,1)"><path fill="none" stroke="#000000" d="M 301 1040 Q 301 1040 329 1040 Q 357 1040 394 1039" stroke-miterlimit="10"/></g><g transform="translate(-10,-10) scale(1,1)"><path fill="#FFFFFF" stroke="none" d="M 373.90952809056495 1047.9650955631382 L 394 1039 L 373.45461120892014 1031.1331709422811"/></g><g transform="translate(-10,-10) scale(1,1)"><path fill="none" stroke="#000000" d="M 373.90952809056495 1047.9650955631382 L 394 1039 L 373.45461120892014 1031.1331709422811 L 373.90952809056495 1047.9650955631382" stroke-miterlimit="10"/></g><g transform="translate(-10,-10) scale(1,1)"><path fill="#ffffff" stroke="none" d="M 417.63737766335225 1119.6799999999998 C 417.63737766335225 1114.8861679359998 421.52321998829774 1111 426.316650390625 1111 C 431.11008079295226 1111 434.99592311789775 1114.8861679359998 434.99592311789775 1119.6799999999998 C 434.99592311789775 1124.473832064 431.11008079295226 1128.36 426.316650390625 1128.36 C 421.52321998829774 1128.36 417.63737766335225 1124.473832064 417.63737766335225 1119.6799999999998 Z"/></g><g transform="translate(-10,-10) scale(1,1)"><path fill="none" stroke="#000000" d="M 417.63737766335225 1119.6799999999998 C 417.63737766335225 1114.8861679359998 421.52321998829774 1111 426.316650390625 1111 C 431.11008079295226 1111 434.99592311789775 1114.8861679359998 434.99592311789775 1119.6799999999998 C 434.99592311789775 1124.473832064 431.11008079295226 1128.36 426.316650390625 1128.36 C 421.52321998829774 1128.36 417.63737766335225 1124.473832064 417.63737766335225 1119.6799999999998 Z" stroke-miterlimit="10"/></g><g transform="translate(-10,-10) scale(1,1)"><path fill="none" stroke="#000000" d="M 426.316650390625 1128.36 L 426.316650390625 1145.64" stroke-miterlimit="10"/></g><g transform="translate(-10,-10) scale(1,1)"><path fill="none" stroke="#000000" d="M 417.12683220880683 1134.84 L 435.50646857244317 1134.84" stroke-miterlimit="10"/></g><g transform="translate(-10,-10) scale(1,1)"><path fill="none" stroke="#000000" d="M 426.316650390625 1145.64 L 413.55301402698865 1163" stroke-miterlimit="10"/></g><g transform="translate(-10,-10) scale(1,1)"><path fill="none" stroke="#000000" d="M 426.316650390625 1145.64 L 439.08028675426135 1163" stroke-miterlimit="10"/></g><g transform="translate(-10,-10) scale(1,1)"><g><path fill="none" stroke="none"/><text fill="#000000" stroke="none" font-family="Arial" font-size="13px" font-style="normal" font-weight="bold" text-decoration="none" x="393.791259765625" y="1183.5">Foundation</text></g></g><g transform="translate(-10,-10) scale(1,1)"><path fill="none" stroke="#000000" d="M 290 639 Q 357 475 400 474" stroke-miterlimit="10"/></g><g transform="translate(-10,-10) scale(1,1)"><path fill="#FFFFFF" stroke="none" d="M 379.875882964811 482.88931457166507 L 400 474 L 379.4844057653014 466.0557949927509"/></g><g transform="translate(-10,-10) scale(1,1)"><path fill="none" stroke="#000000" d="M 379.875882964811 482.88931457166507 L 400 474 L 379.4844057653014 466.0557949927509 L 379.875882964811 482.88931457166507" stroke-miterlimit="10"/></g><g transform="translate(-10,-10) scale(1,1)"><path fill="none" stroke="#000000" d="M 282 720 Q 282 720 319.5 935 Q 357 1150 385 1150" stroke-miterlimit="10"/></g><g transform="translate(-10,-10) scale(1,1)"><path fill="#000000" stroke="none" d="M 374.83732514237585 1154.2095177560159 L 385 1150 L 374.83732514237585 1145.7904822439841 L 363 1150"/></g><g transform="translate(-10,-10) scale(1,1)"><path fill="none" stroke="#000000" d="M 374.83732514237585 1154.2095177560159 L 385 1150 L 374.83732514237585 1145.7904822439841 L 363 1150 L 374.83732514237585 1154.2095177560159" stroke-miterlimit="10"/></g><g transform="translate(-10,-10) scale(1,1)"><path fill="#ffffff" stroke="none" d="M 266.04558078835225 789.6800000000001 C 266.04558078835225 784.8861679360001 269.93142311329774 781 274.724853515625 781 C 279.51828391795226 781 283.40412624289775 784.8861679360001 283.40412624289775 789.6800000000001 C 283.40412624289775 794.473832064 279.51828391795226 798.36 274.724853515625 798.36 C 269.93142311329774 798.36 266.04558078835225 794.473832064 266.04558078835225 789.6800000000001 Z"/></g><g transform="translate(-10,-10) scale(1,1)"><path fill="none" stroke="#000000" d="M 266.04558078835225 789.6800000000001 C 266.04558078835225 784.8861679360001 269.93142311329774 781 274.724853515625 781 C 279.51828391795226 781 283.40412624289775 784.8861679360001 283.40412624289775 789.6800000000001 C 283.40412624289775 794.473832064 279.51828391795226 798.36 274.724853515625 798.36 C 269.93142311329774 798.36 266.04558078835225 794.473832064 266.04558078835225 789.6800000000001 Z" stroke-miterlimit="10"/></g><g transform="translate(-10,-10) scale(1,1)"><path fill="none" stroke="#000000" d="M 274.724853515625 798.36 L 274.724853515625 815.64" stroke-miterlimit="10"/></g><g transform="translate(-10,-10) scale(1,1)"><path fill="none" stroke="#000000" d="M 265.53503533380683 804.84 L 283.91467169744317 804.84" stroke-miterlimit="10"/></g><g transform="translate(-10,-10) scale(1,1)"><path fill="none" stroke="#000000" d="M 274.724853515625 815.64 L 261.96121715198865 833" stroke-miterlimit="10"/></g><g transform="translate(-10,-10) scale(1,1)"><path fill="none" stroke="#000000" d="M 274.724853515625 815.64 L 287.48848987926135 833" stroke-miterlimit="10"/></g><g transform="translate(-10,-10) scale(1,1)"><g><path fill="none" stroke="none"/><text fill="#000000" stroke="none" font-family="Arial" font-size="13px" font-style="normal" font-weight="bold" text-decoration="none" x="241.126708984375" y="853.5">Researcher</text></g></g><g transform="translate(-10,-10) scale(1,1)"><path fill="none" stroke="#000000" d="M 304 779 Q 357 710 371 707" stroke-miterlimit="10"/></g><g transform="translate(-10,-10) scale(1,1)"><path fill="#FFFFFF" stroke="none" d="M 352.8898568202915 719.4909052518406 L 371 707 L 349.3617911426337 703.026598756104"/></g><g transform="translate(-10,-10) scale(1,1)"><path fill="none" stroke="#000000" d="M 352.8898568202915 719.4909052518406 L 371 707 L 349.3617911426337 703.026598756104 L 352.8898568202915 719.4909052518406" stroke-miterlimit="10"/></g><g transform="translate(-10,-10) scale(1,1)"><path fill="#ffffff" stroke="none" d="M 89.87883274147727 1009.6800000000001 C 89.87883274147727 1004.8861679360001 93.76467506642273 1001 98.55810546875 1001 C 103.35153587107727 1001 107.23737819602273 1004.8861679360001 107.23737819602273 1009.6800000000001 C 107.23737819602273 1014.473832064 103.35153587107727 1018.36 98.55810546875 1018.36 C 93.76467506642273 1018.36 89.87883274147727 1014.473832064 89.87883274147727 1009.6800000000001 Z"/></g><g transform="translate(-10,-10) scale(1,1)"><path fill="none" stroke="#000000" d="M 89.87883274147727 1009.6800000000001 C 89.87883274147727 1004.8861679360001 93.76467506642273 1001 98.55810546875 1001 C 103.35153587107727 1001 107.23737819602273 1004.8861679360001 107.23737819602273 1009.6800000000001 C 107.23737819602273 1014.473832064 103.35153587107727 1018.36 98.55810546875 1018.36 C 93.76467506642273 1018.36 89.87883274147727 1014.473832064 89.87883274147727 1009.6800000000001 Z" stroke-miterlimit="10"/></g><g transform="translate(-10,-10) scale(1,1)"><path fill="none" stroke="#000000" d="M 98.55810546875 1018.36 L 98.55810546875 1035.64" stroke-miterlimit="10"/></g><g transform="translate(-10,-10) scale(1,1)"><path fill="none" stroke="#000000" d="M 89.36828728693182 1024.84 L 107.74792365056818 1024.84" stroke-miterlimit="10"/></g><g transform="translate(-10,-10) scale(1,1)"><path fill="none" stroke="#000000" d="M 98.55810546875 1035.64 L 85.79446910511363 1053" stroke-miterlimit="10"/></g><g transform="translate(-10,-10) scale(1,1)"><path fill="none" stroke="#000000" d="M 98.55810546875 1035.64 L 111.32174183238637 1053" stroke-miterlimit="10"/></g><g transform="translate(-10,-10) scale(1,1)"><g><path fill="none" stroke="none"/><text fill="#000000" stroke="none" font-family="Arial" font-size="13px" font-style="normal" font-weight="bold" text-decoration="none" x="66.759521484375" y="1073.5">Application</text></g></g><g transform="translate(-10,-10) scale(1,1)"><path fill="none" stroke="#000000" d="M 98 1039 Q 139 1040 166 1040 Q 193 1040 249 1039" stroke-miterlimit="10"/></g><g transform="translate(-10,-10) scale(1,1)"><path fill="#FFFFFF" stroke="none" d="M 228.82820611437646 1047.7805883308536 L 249 1039 L 228.52757420322428 1030.9452013063321"/></g><g transform="translate(-10,-10) scale(1,1)"><path fill="none" stroke="#000000" d="M 228.82820611437646 1047.7805883308536 L 249 1039 L 228.52757420322428 1030.9452013063321 L 228.82820611437646 1047.7805883308536" stroke-miterlimit="10"/></g><g transform="translate(-10,-10) scale(1,1)"><path fill="#ffffff" stroke="none" d="M 266.04558078835225 899.6800000000001 C 266.04558078835225 894.8861679360001 269.93142311329774 891 274.724853515625 891 C 279.51828391795226 891 283.40412624289775 894.8861679360001 283.40412624289775 899.6800000000001 C 283.40412624289775 904.473832064 279.51828391795226 908.36 274.724853515625 908.36 C 269.93142311329774 908.36 266.04558078835225 904.473832064 266.04558078835225 899.6800000000001 Z"/></g><g transform="translate(-10,-10) scale(1,1)"><path fill="none" stroke="#000000" d="M 266.04558078835225 899.6800000000001 C 266.04558078835225 894.8861679360001 269.93142311329774 891 274.724853515625 891 C 279.51828391795226 891 283.40412624289775 894.8861679360001 283.40412624289775 899.6800000000001 C 283.40412624289775 904.473832064 279.51828391795226 908.36 274.724853515625 908.36 C 269.93142311329774 908.36 266.04558078835225 904.473832064 266.04558078835225 899.6800000000001 Z" stroke-miterlimit="10"/></g><g transform="translate(-10,-10) scale(1,1)"><path fill="none" stroke="#000000" d="M 274.724853515625 908.36 L 274.724853515625 925.64" stroke-miterlimit="10"/></g><g transform="translate(-10,-10) scale(1,1)"><path fill="none" stroke="#000000" d="M 265.53503533380683 914.84 L 283.91467169744317 914.84" stroke-miterlimit="10"/></g><g transform="translate(-10,-10) scale(1,1)"><path fill="none" stroke="#000000" d="M 274.724853515625 925.64 L 261.96121715198865 943" stroke-miterlimit="10"/></g><g transform="translate(-10,-10) scale(1,1)"><path fill="none" stroke="#000000" d="M 274.724853515625 925.64 L 287.48848987926135 943" stroke-miterlimit="10"/></g><g transform="translate(-10,-10) scale(1,1)"><g><path fill="none" stroke="none"/><text fill="#000000" stroke="none" font-family="Arial" font-size="13px" font-style="normal" font-weight="bold" text-decoration="none" x="249.791259765625" y="963.5">AI Agent</text></g></g><g transform="translate(-10,-10) scale(1,1)"><path fill="none" stroke="#000000" d="M 304 889 Q 357 820 404 735" stroke-miterlimit="10"/></g><g transform="translate(-10,-10) scale(1,1)"><path fill="#FFFFFF" stroke="none" d="M 401.53241606784144 756.8611763072748 L 404 735 L 386.796968656835 748.7133406800124"/></g><g transform="translate(-10,-10) scale(1,1)"><path fill="none" stroke="#000000" d="M 401.53241606784144 756.8611763072748 L 404 735 L 386.796968656835 748.7133406800124 L 401.53241606784144 756.8611763072748" stroke-miterlimit="10"/></g></g></svg>